<svg width="100" height="100" viewBox="0 0 100 100" fill="none" xmlns="http://www.w3.org/2000/svg">
<circle cx="50.5204" cy="50.8724" r="30.1764" stroke="#BCBCBC" stroke-width="3"/>
<path d="M94.0689 51.1336C94.0689 75.091 60.3743 90 36.417 90C12.4596 90 13.0971 75.0909 13.0971 51.1336C13.0971 27.1762 15.6985 10 39.6559 10C63.6132 10 94.0689 27.1762 94.0689 51.1336Z" stroke="#BCBCBC"/>
<path d="M88.2389 60.5263C88.2389 84.4837 80.4554 88.3806 56.498 88.3806C32.5406 88.3806 5 74.1193 5 50.162C5 26.2046 41.6095 12.2672 65.5668 12.2672C89.5242 12.2672 88.2389 36.569 88.2389 60.5263Z" stroke="#959595"/>
<path d="M45.7637 44.5165C45.7637 46.5997 44.0749 48.2885 41.9917 48.2885C39.9084 48.2885 38.2196 46.5997 38.2196 44.5165C38.2196 42.4332 39.9084 40.7444 41.9917 40.7444C44.0749 40.7444 45.7637 42.4332 45.7637 44.5165Z" fill="#959595"/>
<path d="M62.8211 44.5165C62.8211 46.5997 61.1323 48.2885 59.049 48.2885C56.9658 48.2885 55.277 46.5997 55.277 44.5165C55.277 42.4332 56.9658 40.7444 59.049 40.7444C61.1323 40.7444 62.8211 42.4332 62.8211 44.5165Z" fill="#959595"/>
<path d="M60.8714 62.3239C57.7243 60.5069 54.1544 59.5503 50.5204 59.5503C46.8864 59.5503 43.3165 60.5069 40.1694 62.3239" stroke="#959595" stroke-width="2" stroke-linecap="round"/>
<path d="M57.6752 38.8795C59.9256 40.3138 61.2997 40.9457 64.0677 41.5894" stroke="#959595" stroke-width="2" stroke-linecap="round"/>
<path d="M43.3657 38.8795C41.1153 40.3138 39.7412 40.9457 36.9732 41.5894" stroke="#959595" stroke-width="2" stroke-linecap="round"/>
</svg>
