<svg width="320" height="320" viewBox="0 0 320 320" fill="none" xmlns="http://www.w3.org/2000/svg">
<path d="M248.186 110.854L247.11 108.934C238.061 92.9344 221.126 82.9888 202.95 83.5904C200.61 83.6675 198.278 83.9178 195.974 84.3392C179.373 87.3792 164.614 99.424 158.214 115.226C154.432 124.518 153.133 135.309 146.266 142.573C137.306 152.026 122.65 151.891 109.786 151.104C96.9216 150.317 82.2016 150.214 73.3056 159.706C67.7376 165.651 65.7664 174.278 65.9584 182.464C66.4576 204.147 80.96 223.949 99.8784 234.138C118.797 244.326 141.325 245.869 162.445 242.266C192.026 237.216 220.48 221.786 238.042 197.133C255.603 172.48 260.819 138.394 248.186 110.854Z" fill="white"/>
<path d="M124.8 57.0049C148.141 54.8609 172.954 54.9248 198.842 56.608C200.594 56.5995 202.278 57.2871 203.524 58.5195C204.769 59.752 205.475 61.4286 205.485 63.1809L205.754 113.536C205.762 115.288 205.075 116.972 203.842 118.218C202.61 119.464 200.933 120.169 199.181 120.179C189.651 120 180.16 120.051 170.714 120.179C169.608 121.704 168.82 123.435 168.396 125.27C167.972 127.104 167.92 129.006 168.243 130.861C166.355 130.746 164.902 129.171 163.891 127.571C162.504 125.353 161.548 122.893 161.075 120.32C149.043 120.506 137.069 120.71 125.165 120.582C124.297 120.587 123.438 120.42 122.635 120.092C121.832 119.764 121.101 119.281 120.485 118.671C119.869 118.06 119.379 117.334 119.043 116.535C118.707 115.735 118.532 114.877 118.528 114.01L118.259 63.6544C118.247 61.906 118.929 60.2242 120.155 58.9777C121.381 57.7312 123.052 57.0218 124.8 57.0049Z" fill="white"/>
<path d="M124.8 57.0048L124.288 57.0496C123.783 57.0973 123.285 57.2003 122.803 57.3568C122.016 57.6219 121.285 58.0298 120.646 58.56C119.781 59.2948 119.119 60.2405 118.726 61.3056C118.488 61.9391 118.354 62.607 118.33 63.2832C118.298 64 118.33 64.7552 118.33 65.5488C118.33 67.1275 118.345 68.847 118.374 70.7072C118.374 74.4256 118.426 78.6816 118.464 83.424C118.502 88.1664 118.528 93.3952 118.566 99.0592C118.566 101.888 118.583 104.826 118.618 107.872C118.618 109.389 118.618 110.938 118.618 112.506C118.598 113.292 118.624 114.078 118.694 114.861C118.801 115.642 119.051 116.397 119.43 117.088C120.222 118.509 121.516 119.582 123.059 120.096C123.844 120.349 124.667 120.461 125.491 120.429H128.051L138.573 120.346L161.05 120.173H161.184V120.301C161.587 122.452 162.328 124.525 163.379 126.445C163.894 127.443 164.54 128.369 165.299 129.197C166.047 130.044 167.082 130.584 168.205 130.714L168.038 130.906C167.712 129.028 167.764 127.105 168.193 125.248C168.622 123.392 169.418 121.64 170.534 120.096L170.586 120.026H197.011C197.894 120.026 198.816 120.026 199.674 119.994C200.973 119.883 202.207 119.378 203.211 118.546C204.215 117.715 204.942 116.596 205.293 115.341C205.51 114.506 205.592 113.642 205.536 112.781C205.536 111.904 205.536 111.034 205.536 110.163C205.504 103.219 205.466 96.4224 205.434 89.8176C205.402 83.2128 205.37 76.8064 205.338 70.6176C205.338 69.0688 205.338 67.5371 205.338 66.0224C205.338 65.2672 205.338 64.512 205.338 63.7632C205.366 63.0292 205.293 62.2947 205.12 61.5808C204.759 60.1925 203.946 58.9638 202.809 58.0889C201.672 57.2139 200.276 56.7424 198.842 56.7488C180.963 55.5048 163.032 55.1801 145.12 55.776C138.65 56.0192 133.568 56.3456 130.112 56.6016L126.163 56.9024C125.267 56.9728 124.806 56.9984 124.806 56.9984C124.806 56.9984 125.267 56.9408 126.163 56.8576C127.059 56.7744 128.378 56.6464 130.106 56.512C133.562 56.2304 138.637 55.872 145.114 55.6096C163.036 54.9552 180.981 55.2393 198.874 56.4608C200.354 56.4557 201.795 56.9369 202.976 57.8304C204.193 58.7399 205.063 60.0385 205.44 61.5104C205.621 62.247 205.699 63.0052 205.67 63.7632C205.67 64.5184 205.67 65.2736 205.67 66.0288C205.67 67.5478 205.67 69.0774 205.67 70.6176C205.67 76.8 205.741 83.2128 205.779 89.8176C205.818 96.4224 205.856 103.213 205.894 110.163C205.894 111.034 205.894 111.904 205.894 112.774C205.946 113.666 205.86 114.559 205.638 115.424C205.267 116.745 204.503 117.921 203.446 118.795C202.389 119.67 201.091 120.202 199.725 120.32C198.803 120.384 197.933 120.32 197.03 120.32H170.739L170.874 120.25C169.781 121.757 169.002 123.468 168.582 125.282C168.162 127.096 168.11 128.975 168.429 130.81L168.467 131.014H168.256C167.052 130.881 165.941 130.304 165.139 129.395C164.35 128.55 163.68 127.6 163.149 126.573C162.084 124.622 161.333 122.517 160.922 120.333L161.082 120.467L138.598 120.621L128.077 120.691H125.517C124.663 120.724 123.809 120.607 122.995 120.346C121.802 119.953 120.743 119.232 119.941 118.265C119.138 117.298 118.624 116.125 118.458 114.88C118.388 114.084 118.362 113.285 118.381 112.486C118.381 110.918 118.381 109.37 118.381 107.853C118.381 104.813 118.381 101.869 118.342 99.04C118.342 93.376 118.298 88.16 118.278 83.4048C118.259 78.6496 118.278 74.4064 118.227 70.6944C118.227 68.8342 118.227 67.1126 118.227 65.5296C118.227 64.736 118.227 63.9872 118.227 63.264C118.257 62.5734 118.399 61.8924 118.65 61.248C119.09 60.072 119.858 59.0468 120.863 58.2937C121.868 57.5405 123.068 57.0911 124.32 56.9984L124.8 57.0048Z" fill="black"/>
<path d="M258.243 108.057C274.527 108.057 287.727 94.856 287.727 78.572C287.727 62.288 274.527 49.0872 258.243 49.0872C241.959 49.0872 228.758 62.288 228.758 78.572C228.758 94.856 241.959 108.057 258.243 108.057Z" fill="#FFFC47"/>
<path d="M246.016 77.1072C245.554 77.152 245.119 77.3471 244.778 77.6627C244.437 77.9782 244.208 78.3968 244.128 78.8544C243.871 79.9569 243.958 81.1118 244.378 82.1632C244.869 83.4854 245.665 84.6729 246.701 85.6293C247.738 86.5858 248.985 87.284 250.342 87.6672C251.634 88.0682 253.005 88.1431 254.333 87.8851C255.661 87.6271 256.904 87.0444 257.952 86.1888C258.632 85.5484 259.144 84.7506 259.443 83.8656C259.558 83.4295 259.559 82.9714 259.447 82.5346C259.335 82.0978 259.114 81.6968 258.803 81.3696C257.933 80.6592 256.64 80.7296 255.526 80.8896C253.139 81.216 251.008 81.0496 249.376 79.2768C248.895 78.6522 248.353 78.0776 247.757 77.5616C247.456 77.305 247.085 77.1436 246.692 77.098C246.299 77.0524 245.901 77.1247 245.549 77.3056" fill="white"/>
<path opacity="0.3" fill-rule="evenodd" clip-rule="evenodd" d="M248.006 61.216C249.126 60.576 251.52 60.864 252.358 61.856C253.146 62.7904 253.197 64.4928 252.89 65.6448C252.211 68.2176 250.592 70.1376 248.838 72.1472C248.307 72.8682 247.55 73.3908 246.688 73.632C245.711 73.7079 244.738 73.4359 243.942 72.864C242.425 72.0418 241.096 70.9127 240.038 69.5488C239.51 68.865 239.125 68.0822 238.905 67.2466C238.685 66.4111 238.635 65.5399 238.758 64.6848C238.906 63.8345 239.302 63.0468 239.896 62.4215C240.491 61.7961 241.257 61.361 242.099 61.1712C243.821 60.8768 245.715 62.0672 245.939 63.776C245.97 63.716 246.001 63.6571 246.03 63.5992C246.579 62.5337 246.944 61.823 248.006 61.216ZM270.893 68.192C272.173 68.4416 273.747 70.2528 273.747 71.5328C273.722 72.7552 272.64 74.0672 271.616 74.752C269.389 76.2368 266.919 76.6016 264.269 76.9408C263.394 77.1301 262.481 77.0196 261.677 76.6272C260.895 76.0362 260.347 75.1887 260.128 74.2336C259.539 72.6099 259.293 70.8819 259.405 69.1584C259.465 68.2971 259.698 67.4567 260.089 66.6871C260.481 65.9175 261.023 65.2344 261.683 64.6784C262.358 64.1403 263.176 63.8132 264.036 63.738C264.895 63.6629 265.758 63.8431 266.515 64.256C267.981 65.1584 268.608 67.3088 267.648 68.736C267.692 68.719 267.734 68.7023 267.777 68.6858C268.918 68.2402 269.659 67.9513 270.893 68.192Z" fill="black"/>
<path d="M266.734 264.469C285.365 264.469 300.469 249.365 300.469 230.734C300.469 212.103 285.365 197 266.734 197C248.103 197 233 212.103 233 230.734C233 249.365 248.103 264.469 266.734 264.469Z" fill="#FFFC47"/>
<path fill-rule="evenodd" clip-rule="evenodd" d="M277.741 206.644C278.681 206.663 279.392 206.58 279.603 206.164C279.814 205.761 279.449 205.076 278.521 204.423C277.286 203.616 275.843 203.185 274.368 203.182C272.883 203.131 271.418 203.523 270.157 204.308C269.209 204.948 268.838 205.62 269.049 206.036C269.261 206.452 269.958 206.548 270.899 206.548C271.263 206.548 271.661 206.539 272.088 206.528C272.765 206.512 273.514 206.494 274.31 206.51C275.016 206.524 275.69 206.556 276.309 206.587C276.829 206.612 277.311 206.635 277.741 206.644ZM251.603 210.708C252.409 210.484 253.011 210.222 253.126 209.767C253.235 209.3 252.787 208.73 251.846 208.327C250.587 207.879 249.224 207.806 247.924 208.116C246.623 208.426 245.44 209.106 244.518 210.074C243.846 210.855 243.68 211.534 243.981 211.898C244.281 212.263 244.934 212.244 245.76 212.078C246.251 211.979 246.804 211.841 247.403 211.692L247.403 211.692L247.404 211.692L247.404 211.692C247.811 211.59 248.239 211.484 248.685 211.38C249.089 211.286 249.482 211.201 249.856 211.119L249.856 211.119L249.856 211.119C250.501 210.979 251.093 210.85 251.603 210.708ZM247.123 224.09C247.021 223.911 247.859 223.137 249.568 222.426C250.995 221.858 252.502 221.537 254.024 221.471C252.783 220.602 251.445 219.876 250.035 219.31C249.495 219.098 249.013 218.927 248.61 218.785C247.797 218.497 247.309 218.325 247.321 218.158C247.341 217.908 248.518 217.774 250.381 218.158C252.809 218.738 255.053 219.917 256.909 221.588L257.145 221.799C257.227 221.871 257.294 221.959 257.342 222.057C257.39 222.155 257.418 222.261 257.425 222.37C257.431 222.479 257.416 222.588 257.38 222.691C257.345 222.794 257.289 222.889 257.216 222.97C257.125 223.075 257.009 223.154 256.879 223.201C256.75 223.248 256.61 223.261 256.473 223.239C254.298 222.916 252.081 223.007 249.939 223.508C249.4 223.637 248.93 223.765 248.535 223.872L248.535 223.872C247.697 224.1 247.201 224.234 247.123 224.09ZM281.538 218.31C282.28 218.379 282.726 218.42 282.784 218.273C282.861 218.087 281.926 217.402 280.173 217.025C278.432 216.682 276.644 216.788 274.973 217.319C275.184 216.866 275.427 216.428 275.699 216.007C276.204 215.234 276.809 214.53 277.497 213.914C278.087 213.395 278.617 213.024 278.997 212.758C279.384 212.487 279.616 212.325 279.597 212.225C279.558 212.026 278.381 212.02 276.806 212.967C275.923 213.521 275.143 214.225 274.502 215.047C273.706 216.099 273.119 217.294 272.774 218.567C272.733 218.722 272.738 218.884 272.787 219.036C272.836 219.188 272.928 219.323 273.051 219.424C273.175 219.525 273.324 219.589 273.483 219.607C273.642 219.625 273.802 219.598 273.945 219.527H274.009C275.864 218.566 277.938 218.107 280.025 218.196C280.612 218.224 281.121 218.271 281.538 218.31Z" fill="#263238"/>
<g opacity="0.3">
<path fill-rule="evenodd" clip-rule="evenodd" d="M280.714 223.073C280.713 223.071 280.711 223.069 280.71 223.067V223.073L280.714 223.073Z" fill="white"/>
<path d="M282.714 228.423C283.367 230.302 284.602 231.923 286.24 233.051C288.006 234.151 290.605 234.439 292.377 233.319C293.197 232.785 293.791 231.968 294.048 231.025C294.306 230.081 294.208 229.076 293.773 228.199C292.928 226.459 291.04 225.23 288.985 224.558C286.279 223.813 283.51 223.316 280.714 223.073C281.563 224.799 281.991 226.653 282.714 228.423Z" fill="white"/>
<path d="M248.32 227.726C246.656 228.801 244.806 229.473 243.078 230.414C241.231 231.309 239.717 232.771 238.758 234.587C237.837 236.507 237.856 239.22 239.213 240.903C239.859 241.681 240.768 242.194 241.768 242.344C242.768 242.494 243.788 242.27 244.634 241.716C246.317 240.647 247.347 238.561 247.789 236.379C248.23 233.517 248.407 230.62 248.32 227.726Z" fill="white"/>
</g>
<path d="M276.87 231.566C276.87 229.588 276.013 227.22 274.31 226.881C272.608 226.542 270.957 228.276 269.875 229.633C268.339 231.553 266.035 231.809 263.578 231.156C261.363 230.561 259.066 228.519 256.621 229.569C255.488 230.03 254.899 231.547 255.008 232.961C255.184 234.355 255.722 235.679 256.57 236.801C259.494 241.019 264.39 243.495 268.832 242.523C273.274 241.55 276.922 236.859 276.87 231.566Z" fill="white"/>
<path d="M73.6299 165.429C73.6299 150.905 61.856 139.131 47.3323 139.131C32.8085 139.131 21.0347 150.905 21.0347 165.429C21.0347 179.952 32.8085 191.726 47.3323 191.726C61.856 191.726 73.6299 179.952 73.6299 165.429Z" fill="#FFFC47"/>
<path fill-rule="evenodd" clip-rule="evenodd" d="M41.9136 152.832C42.7456 153.043 43.4112 153.101 43.7248 152.755C44.032 152.422 43.8912 151.68 43.2768 150.867C42.4027 149.848 41.2576 149.098 39.9744 148.704C38.7056 148.273 37.3401 148.213 36.0384 148.531C35.0336 148.813 34.56 149.267 34.56 149.76C34.56 150.253 35.1552 150.598 35.9552 150.912C36.5618 151.15 37.3083 151.388 38.1249 151.648C38.3852 151.731 38.6525 151.816 38.9248 151.904C39.1465 151.976 39.3645 152.047 39.578 152.117C40.4492 152.402 41.2454 152.662 41.9136 152.832ZM64.5952 159.827C64.1792 160.038 63.616 159.827 62.9632 159.565C62.4769 159.369 61.9232 159.11 61.2782 158.808L61.2781 158.808L61.2779 158.808C61.057 158.704 60.8255 158.596 60.5824 158.483C58.6624 157.613 56.8768 156.646 57.0304 155.718C57.1072 155.27 57.6704 154.931 58.5792 154.835C59.7529 154.742 60.9303 154.963 61.9904 155.475C62.6051 155.764 63.1726 156.143 63.6736 156.602C64.1032 156.995 64.4549 157.466 64.7104 157.99C65.1392 158.912 64.992 159.629 64.5952 159.827ZM42.432 162.56C42.2952 162.56 42.1872 162.35 42.0185 162.023C41.8794 161.753 41.6991 161.403 41.4272 161.024C40.6552 159.945 39.5482 159.15 38.2784 158.765C36.9376 158.416 35.5404 158.34 34.1696 158.541C34.0621 158.553 33.9581 158.564 33.8578 158.576L33.8574 158.576L33.8544 158.576L33.8539 158.576C32.924 158.68 32.3188 158.748 32.2496 158.541C32.1728 158.31 32.7488 157.837 33.9008 157.389C35.4571 156.79 37.1653 156.709 38.7712 157.158C39.6002 157.398 40.3648 157.821 41.0084 158.396C41.652 158.971 42.1582 159.683 42.4896 160.48C42.6851 160.962 42.7619 161.485 42.7136 162.003C42.656 162.381 42.5472 162.56 42.432 162.56ZM62.9504 169.472C62.8002 169.513 62.6113 169.244 62.3119 168.818C62.1394 168.573 61.9301 168.276 61.6704 167.955C60.8415 166.784 59.7141 165.855 58.4052 165.267C57.0963 164.678 55.6537 164.451 54.2272 164.608C53.861 164.637 53.5368 164.678 53.262 164.713C52.6914 164.786 52.3337 164.832 52.256 164.685C52.1408 164.467 52.7232 163.885 53.9776 163.456C55.6606 162.917 57.4835 163.017 59.0968 163.739C60.7101 164.46 62.0003 165.752 62.72 167.366C63.2384 168.595 63.1552 169.434 62.9504 169.472ZM49.8304 174.784C51.3216 174.272 52.064 173.562 51.9616 173.382C51.8798 173.236 51.4593 173.313 50.7662 173.439L50.7662 173.439L50.766 173.439C50.4287 173.5 50.0268 173.573 49.568 173.638C47.7785 173.876 45.958 173.667 44.2688 173.03C42.5978 172.348 41.1238 171.259 39.9808 169.862C39.5989 169.423 39.2993 169.032 39.0648 168.725L39.0648 168.725C38.7216 168.277 38.5179 168.011 38.4 168.045C38.2016 168.102 38.2464 169.114 39.0016 170.522C40.0401 172.37 41.6846 173.803 43.6574 174.58C45.6303 175.356 47.8106 175.428 49.8304 174.784Z" fill="#263238"/>
<path d="M156.203 276.997C158.803 261.381 148.25 246.613 132.633 244.014C117.017 241.415 102.25 251.968 99.6503 267.584C97.051 283.201 107.604 297.968 123.22 300.567C138.837 303.167 153.604 292.614 156.203 276.997Z" fill="#FFFC47"/>
<path d="M139.021 267.731C139.466 267.658 139.924 267.731 140.324 267.94C140.725 268.149 141.047 268.482 141.242 268.89C141.773 269.853 141.996 270.957 141.882 272.051C141.764 273.418 141.325 274.738 140.6 275.903C139.875 277.067 138.884 278.044 137.709 278.752C136.601 279.46 135.335 279.884 134.024 279.984C132.713 280.085 131.398 279.859 130.195 279.328C129.393 278.901 128.707 278.283 128.198 277.53C127.983 277.147 127.87 276.715 127.87 276.275C127.87 275.836 127.983 275.404 128.198 275.021C128.838 274.131 130.061 273.875 131.142 273.741C133.466 273.427 135.424 272.723 136.499 270.643C136.787 269.933 137.145 269.254 137.568 268.614C137.783 268.295 138.088 268.047 138.445 267.903C138.803 267.759 139.195 267.726 139.571 267.808" fill="white"/>
<g opacity="0.3">
<path d="M129.146 255.078C129.677 253.92 131.846 253.05 133.069 253.382C134.291 253.715 134.803 254.31 135.667 255.245C135.437 253.587 136.909 251.987 138.573 251.821C139.411 251.785 140.242 251.997 140.96 252.43C141.678 252.864 142.253 253.5 142.611 254.259C142.95 255.027 143.131 255.855 143.143 256.694C143.156 257.533 142.998 258.365 142.682 259.142C142.04 260.69 141.086 262.089 139.878 263.251C139.28 263.995 138.436 264.502 137.498 264.678C136.628 264.678 135.784 264.382 135.104 263.84C132.941 262.413 130.931 261.03 129.632 258.784C129.037 257.76 128.64 256.154 129.146 255.078Z" fill="black"/>
<path d="M111.584 269.651C111.219 268.442 112.269 266.349 113.402 265.811C114.534 265.274 115.322 265.357 116.602 265.485C115.322 264.397 115.373 262.221 116.512 261.005C117.114 260.421 117.876 260.03 118.701 259.879C119.525 259.729 120.376 259.826 121.146 260.16C121.909 260.508 122.593 261.006 123.159 261.625C123.724 262.244 124.158 262.972 124.435 263.763C124.991 265.347 125.209 267.03 125.075 268.704C125.117 269.655 124.822 270.591 124.243 271.347C123.587 271.921 122.758 272.259 121.888 272.307C119.328 272.666 116.902 272.947 114.445 272.147C113.28 271.738 111.93 270.79 111.584 269.651Z" fill="black"/>
</g>
<path d="M131.585 54.4628C131.585 34.6159 115.496 18.5268 95.6489 18.5268C75.802 18.5268 59.7129 34.6159 59.7129 54.4628C59.7129 74.3097 75.802 90.3988 95.6489 90.3988C115.496 90.3988 131.585 74.3097 131.585 54.4628Z" fill="#FFFC47"/>
<path fill-rule="evenodd" clip-rule="evenodd" d="M106.957 39.4969C107.404 38.8637 107.653 38.1124 107.674 37.3376C107.687 36.8208 107.599 36.3064 107.413 35.8239C107.227 35.3415 106.947 34.9005 106.591 34.5264C106.234 34.1523 105.806 33.8525 105.333 33.6441C104.86 33.4356 104.35 33.3228 103.834 33.312C103.059 33.2958 102.296 33.5095 101.643 33.9261C100.989 34.3427 100.474 34.9436 100.161 35.6528C99.849 36.3621 99.7537 37.148 99.8874 37.9114C100.021 38.6748 100.378 39.3815 100.913 39.9423C101.448 40.5031 102.137 40.8929 102.893 41.0625C103.649 41.2321 104.439 41.1739 105.162 40.8953C105.885 40.6166 106.51 40.13 106.957 39.4969ZM85.5906 42.0665C86.1806 41.56 86.607 40.8898 86.816 40.1408C87.0956 39.1385 86.9663 38.0663 86.4563 37.1593C85.9464 36.2522 85.0976 35.5844 84.096 35.3024C83.3475 35.0916 82.5533 35.1077 81.8139 35.3485C81.0745 35.5893 80.4232 36.0441 79.9425 36.6553C79.4617 37.2664 79.173 38.0065 79.113 38.7818C79.053 39.5571 79.2244 40.3328 79.6055 41.0106C79.9866 41.6884 80.5602 42.238 81.2537 42.5897C81.9472 42.9414 82.7295 43.0794 83.5015 42.9862C84.2735 42.8931 85.0006 42.573 85.5906 42.0665Z" fill="#263238"/>
<path d="M88.8064 50.9184C92.0064 52.0384 94.304 52.6272 97.9968 50.5536C98.7008 50.1632 99.552 49.4976 100.262 49.1264C100.603 48.9421 100.985 48.8456 101.373 48.8456C101.76 48.8456 102.142 48.9421 102.483 49.1264C102.886 49.3404 103.23 49.6503 103.484 50.0287C103.739 50.4071 103.896 50.8423 103.942 51.296C104.202 53.538 103.811 55.8075 102.816 57.8332C101.82 59.859 100.263 61.5554 98.3296 62.72C94.4896 64.9024 89.1648 64.1856 86.24 60.8832C85.2808 59.7373 84.5194 58.4395 83.9872 57.0432C83.3472 55.5392 82.9056 53.8432 83.4112 52.3136C83.9168 50.784 85.76 49.5872 87.2128 50.3232L88.8064 50.9184Z" fill="white"/>
<path d="M218.541 92.7616C218.925 92.2247 219.428 91.7842 220.011 91.4744C220.594 91.1646 221.241 90.994 221.901 90.976C222.433 91.0555 222.977 90.9588 223.45 90.7008C223.715 90.4188 223.931 90.0943 224.09 89.7408C224.253 89.4999 224.463 89.2943 224.707 89.1363C224.951 88.9782 225.225 88.8709 225.512 88.8208C225.798 88.7706 226.092 88.7786 226.375 88.8443C226.659 88.91 226.926 89.0321 227.162 89.2032C227.365 89.4105 227.6 89.5834 227.859 89.7152C228.966 90.0992 229.818 88.0128 230.918 88.4352C230.479 88.6761 230.126 89.0473 229.907 89.4976C229.802 89.724 229.776 89.9793 229.834 90.2221C229.892 90.4649 230.031 90.681 230.227 90.8352C231.309 91.5392 232.614 89.4208 233.779 89.9648C234.419 90.2592 234.637 91.2448 235.328 91.2896C235.596 91.2743 235.86 91.2137 236.109 91.1104C236.556 91.0158 237.022 91.0957 237.412 91.3336C237.803 91.5715 238.087 91.9496 238.208 92.3904C238.4 93.1392 238.15 94.1248 238.797 94.5472C239.014 94.6467 239.249 94.6982 239.488 94.6982C239.727 94.6982 239.962 94.6467 240.179 94.5472C240.274 95.2487 240.206 95.9625 239.981 96.6336C240.642 96.9266 241.164 97.4638 241.438 98.1329C241.713 98.802 241.718 99.5512 241.453 100.224C242.148 100.566 242.769 101.04 243.283 101.619C243.538 101.912 243.705 102.272 243.764 102.656C243.822 103.04 243.771 103.433 243.616 103.789C243.522 103.937 243.447 104.096 243.392 104.262C243.366 104.454 243.392 104.648 243.469 104.826C243.797 105.481 244.048 106.173 244.218 106.886C244.307 107.616 243.885 108.493 243.149 108.538C242.976 108.538 242.784 108.538 242.656 108.634C242.612 108.681 242.579 108.736 242.557 108.797C242.535 108.857 242.525 108.921 242.528 108.986C242.556 109.514 242.668 110.035 242.861 110.528C243.056 111.026 243.056 111.579 242.861 112.077C242.805 112.194 242.724 112.297 242.625 112.38C242.525 112.463 242.409 112.524 242.284 112.558C242.159 112.592 242.028 112.598 241.9 112.577C241.772 112.556 241.65 112.508 241.542 112.435C241.862 113.216 242.182 113.99 242.515 114.771C242.707 115.232 242.893 115.802 242.592 116.205C242.202 116.73 241.312 116.493 240.896 115.994C240.48 115.494 240.256 114.822 239.827 114.336C239.629 114.156 239.45 113.954 239.296 113.734C239.187 113.555 239.123 113.325 238.944 113.216C238.579 112.992 238.144 113.523 238.246 113.933C238.415 114.327 238.693 114.664 239.046 114.906C239.36 115.2 239.648 115.635 239.482 116.026C239.405 116.218 239.232 116.358 239.162 116.55C238.906 117.19 239.898 117.683 240.109 118.368C240.147 118.629 240.124 118.896 240.042 119.147C239.96 119.398 239.82 119.626 239.635 119.814C239.251 120.326 238.432 120.819 238.067 120.288C237.975 120.08 237.898 119.867 237.837 119.648C237.685 119.434 237.482 119.26 237.248 119.142C236.707 118.776 236.284 118.26 236.032 117.658C236.672 118.24 237.357 119.034 237.088 119.853C236.938 120.179 236.74 120.482 236.499 120.749C236.09 121.325 235.859 122.029 235.482 122.605C235.306 122.912 235.037 123.155 234.713 123.298C234.39 123.441 234.028 123.476 233.683 123.398C233.83 123.72 233.864 124.082 233.782 124.426C233.7 124.769 233.505 125.076 233.228 125.296C232.952 125.517 232.61 125.639 232.256 125.643C231.903 125.647 231.558 125.533 231.277 125.318C231.138 125.183 230.975 125.075 230.797 124.998C230.577 124.973 230.355 125.01 230.157 125.107C229.554 125.301 228.91 125.325 228.295 125.177C227.68 125.029 227.117 124.715 226.669 124.269L227.264 123.955C226.014 124.072 224.753 123.895 223.584 123.437C222.464 122.886 221.6 121.594 221.965 120.397C222.125 119.878 222.496 119.315 222.221 118.848C222.103 118.703 221.956 118.584 221.79 118.499C221.623 118.414 221.441 118.365 221.254 118.355L216.653 117.453C215.894 117.375 215.172 117.089 214.566 116.627C214.276 116.384 214.094 116.036 214.061 115.659C214.027 115.283 214.145 114.908 214.387 114.618C213.947 113.987 213.336 113.494 212.627 113.197C211.84 112.864 210.963 112.794 210.157 112.499C209.742 112.386 209.366 112.16 209.072 111.846C208.778 111.532 208.578 111.142 208.493 110.72C208.422 109.869 209.491 109.043 210.17 109.574C209.862 108.294 207.578 108.57 207.2 107.328C206.893 106.323 208.128 105.6 208.691 104.71C208.499 104.371 208.102 104.198 207.898 103.866C207.482 103.174 208.141 102.317 208.813 101.869C209.485 101.421 210.323 100.934 210.381 100.128C210.438 99.3216 209.626 98.4896 209.952 97.728C210.048 97.5172 210.22 97.3508 210.434 97.2628C210.648 97.1748 210.888 97.1718 211.104 97.2544C211.469 95.6992 214.4 96.3968 215.008 94.9184C215.064 94.8124 215.081 94.6897 215.055 94.5725C215.029 94.4552 214.963 94.351 214.867 94.2784C214.447 93.9722 213.992 93.7186 213.51 93.5232C213.273 93.4172 213.074 93.2417 212.939 93.0199C212.805 92.7982 212.74 92.5407 212.755 92.2816C212.864 91.776 213.779 91.6416 213.843 92.1728C213.963 92.0478 214.11 91.9518 214.273 91.8919C214.436 91.832 214.61 91.8099 214.783 91.8272C214.955 91.8444 215.122 91.9006 215.269 91.9915C215.417 92.0824 215.542 92.2057 215.635 92.352C215.808 92.1285 216.052 91.9711 216.327 91.9059C216.602 91.8407 216.891 91.8716 217.146 91.9936C217.652 92.2471 218.091 92.6179 218.426 93.0752" fill="#263238"/>
<path d="M227.04 109.299C226.227 107.277 224.39 105.837 222.458 104.819C221.667 104.347 220.772 104.077 219.853 104.032C219.394 104.019 218.942 104.141 218.552 104.382C218.162 104.623 217.851 104.973 217.658 105.389L218.042 106.874C218.259 109.293 220.448 110.989 221.702 113.069C222.253 113.978 222.765 115.085 223.789 115.341C224.34 115.443 224.91 115.338 225.389 115.046C227.302 114.003 227.84 111.36 227.04 109.299Z" fill="#FFFC47"/>
<path d="M228.678 91.4623C228.678 91.4623 228.582 91.4623 228.422 91.5647C228.189 91.6816 227.997 91.8669 227.872 92.0959C227.669 92.4459 227.593 92.8547 227.654 93.2543C227.749 93.7744 227.921 94.2772 228.166 94.7455L228.205 94.8351H228.109C227.408 94.9518 226.765 95.2959 226.278 95.8143C226.004 96.0994 225.799 96.4443 225.68 96.8218C225.561 97.1994 225.532 97.5994 225.594 97.9903C225.646 98.3487 225.78 98.6903 225.985 98.9888C226.191 99.2873 226.462 99.5347 226.778 99.7119L226.995 99.8207L226.752 99.8655C226.351 99.9451 225.97 100.107 225.634 100.34C225.298 100.574 225.014 100.874 224.8 101.222C224.463 101.783 224.327 102.443 224.416 103.091C224.475 103.52 224.623 103.932 224.851 104.301C225.011 104.557 225.126 104.678 225.114 104.685C225.101 104.691 225.082 104.685 225.024 104.602C224.941 104.519 224.866 104.429 224.8 104.333C224.549 103.964 224.383 103.544 224.314 103.104C224.203 102.429 224.332 101.736 224.678 101.146C224.899 100.775 225.195 100.455 225.548 100.206C225.901 99.9583 226.303 99.7876 226.726 99.7055V99.8591C226.2 99.5563 225.794 99.0801 225.579 98.5116C225.365 97.9432 225.354 97.3179 225.549 96.7423C225.685 96.3527 225.903 95.9969 226.189 95.6991C226.7 95.1606 227.375 94.8071 228.109 94.6943L228.051 94.7967C227.808 94.3112 227.642 93.7909 227.558 93.2543C227.502 92.8308 227.595 92.401 227.821 92.0383C227.96 91.8037 228.171 91.6199 228.422 91.5135C228.487 91.4843 228.556 91.4649 228.627 91.4559L228.678 91.4623Z" fill="#455A64"/>
<path d="M241.107 101.722C241.107 101.722 241.107 101.722 241.03 101.792C240.949 101.859 240.864 101.921 240.774 101.978C240.436 102.188 240.07 102.349 239.686 102.458C239.098 102.623 238.481 102.667 237.875 102.586C237.095 102.494 236.354 102.193 235.731 101.715L235.859 101.677C235.681 102.189 235.391 102.655 235.01 103.042C234.629 103.428 234.167 103.725 233.658 103.91C233.108 104.098 232.514 104.107 231.959 103.937C231.404 103.767 230.916 103.426 230.566 102.963H230.707C230.642 103.363 230.472 103.738 230.214 104.051C229.986 104.331 229.708 104.568 229.395 104.749C228.877 105.039 228.304 105.216 227.712 105.267C227.333 105.293 226.952 105.293 226.573 105.267C226.436 105.278 226.299 105.278 226.163 105.267C226.299 105.253 226.437 105.253 226.573 105.267C226.949 105.263 227.325 105.238 227.699 105.19C228.272 105.125 228.826 104.942 229.325 104.653C229.64 104.476 229.912 104.233 230.123 103.94C230.334 103.647 230.479 103.311 230.547 102.957V102.752L230.662 102.925C231.006 103.35 231.473 103.658 232 103.805C232.527 103.952 233.086 103.93 233.6 103.744C234.085 103.567 234.525 103.284 234.888 102.917C235.25 102.549 235.528 102.106 235.699 101.619L235.738 101.517L235.827 101.587C236.424 102.055 237.136 102.353 237.888 102.451C238.477 102.536 239.077 102.505 239.654 102.362C240.168 102.223 240.658 102.008 241.107 101.722Z" fill="#455A64"/>
<path d="M236.8 111.11C236.8 111.11 236.8 111.162 236.755 111.226C236.684 111.323 236.583 111.395 236.467 111.43C236.05 111.55 235.61 111.563 235.187 111.469C234.549 111.345 233.967 111.022 233.523 110.547C232.975 109.963 232.67 109.191 232.672 108.39L232.813 108.461C232.18 108.938 231.411 109.201 230.618 109.21C229.976 109.222 229.34 109.084 228.762 108.806C228.375 108.624 228.015 108.389 227.693 108.109C227.568 108.01 227.456 107.896 227.36 107.77C227.804 108.136 228.292 108.445 228.813 108.691C229.378 108.944 229.992 109.067 230.611 109.05C231.37 109.033 232.105 108.777 232.71 108.32L232.845 108.218V108.41C232.843 109.099 233.077 109.767 233.508 110.305C233.938 110.843 234.54 111.217 235.213 111.366C235.619 111.462 236.042 111.462 236.448 111.366C236.522 111.351 236.591 111.321 236.652 111.277C236.713 111.232 236.763 111.176 236.8 111.11Z" fill="#455A64"/>
<path d="M216.403 94.08C216.321 94.6731 216.349 95.2763 216.486 95.8592C216.658 96.5568 217.02 97.193 217.532 97.697C218.044 98.201 218.685 98.553 219.386 98.7136C219.827 98.8198 220.284 98.848 220.736 98.7968H220.845V98.8992C220.78 99.5237 220.83 100.155 220.992 100.762C221.125 101.243 221.328 101.702 221.594 102.125C221.691 102.286 221.8 102.44 221.92 102.586C221.96 102.639 222.012 102.683 222.072 102.713C222.132 102.743 222.199 102.759 222.266 102.758C222.307 102.756 222.348 102.744 222.384 102.724C222.421 102.705 222.452 102.677 222.477 102.643C222.477 102.598 222.477 102.56 222.515 102.566C222.554 102.573 222.515 102.598 222.515 102.662C222.492 102.705 222.459 102.741 222.419 102.768C222.379 102.795 222.333 102.811 222.285 102.816C222.208 102.822 222.13 102.81 222.059 102.78C221.987 102.75 221.924 102.703 221.875 102.643C221.742 102.503 221.622 102.351 221.517 102.189C221.234 101.761 221.018 101.293 220.877 100.8C220.699 100.176 220.641 99.5251 220.704 98.88L220.8 98.976C220.327 99.0339 219.848 99.0057 219.386 98.8928C218.654 98.7303 217.985 98.3619 217.457 97.8311C216.928 97.3004 216.563 96.6294 216.403 95.8976C216.302 95.4613 216.278 95.0108 216.333 94.5664C216.346 94.4451 216.37 94.3253 216.403 94.208C216.399 94.1226 216.399 94.08 216.403 94.08Z" fill="#455A64"/>
<path d="M225.958 129.325C226.919 128.706 227.633 127.768 227.973 126.677C228.313 125.586 228.26 124.409 227.821 123.354C229.062 122.637 229.395 120.909 228.954 119.514C228.512 118.118 227.488 117.069 226.496 116.038C226.693 114.373 226.245 112.695 225.244 111.349C224.243 110.003 222.765 109.091 221.114 108.8C220.442 105.856 217.216 104.173 214.208 103.904C213.468 103.893 212.733 103.776 212.026 103.558C211.538 103.324 211.065 103.059 210.611 102.765C208.013 101.325 204.525 102.189 202.458 104.326C202.152 104.694 201.799 105.019 201.408 105.293C200.841 105.551 200.243 105.736 199.629 105.843C198.98 106.039 198.381 106.371 197.872 106.818C197.363 107.266 196.956 107.817 196.678 108.435C196.218 109.485 196.115 110.746 195.283 111.539C194.874 111.936 194.31 112.179 193.939 112.608C192.858 113.888 193.894 116.006 192.998 117.414C192.819 117.702 192.563 117.933 192.358 118.208C191.938 118.768 191.734 119.461 191.782 120.16C191.908 120.682 191.93 121.223 191.846 121.754C191.679 122.122 191.464 122.466 191.206 122.778C190.662 123.616 191.258 127.898 191.846 128.685L215.226 138.061C216.19 138.208 217.176 138.051 218.047 137.613C218.919 137.175 219.632 136.477 220.09 135.616C220.201 135.31 220.393 135.04 220.646 134.835C220.901 134.724 221.175 134.668 221.453 134.669C223.277 134.451 224.269 132.448 224.781 130.675C224.838 130.424 224.935 130.184 225.069 129.965C225.321 129.696 225.623 129.478 225.958 129.325Z" fill="#263238"/>
<path d="M219.258 126.72C220.947 122.598 220.211 116.806 216.877 113.165C215.34 111.551 213.494 110.263 211.45 109.376C209.603 108.442 207.515 108.093 205.466 108.378C204.051 108.173 197.619 110.662 195.533 115.27C193.216 120.39 190.586 126.739 189.728 130.893C188 139.213 193.651 142.528 193.651 142.528L190.419 150.4L208.051 154.08L219.258 126.72Z" fill="#AB726C"/>
<path d="M196.237 122.976C196.133 123.238 196.137 123.531 196.247 123.791C196.357 124.051 196.565 124.257 196.826 124.365C196.95 124.424 197.085 124.458 197.223 124.464C197.361 124.47 197.498 124.448 197.627 124.4C197.756 124.351 197.874 124.277 197.974 124.182C198.074 124.087 198.153 123.973 198.208 123.846C198.312 123.585 198.308 123.293 198.198 123.034C198.087 122.775 197.88 122.571 197.619 122.464C197.495 122.404 197.36 122.37 197.223 122.364C197.086 122.357 196.948 122.379 196.819 122.426C196.69 122.474 196.572 122.547 196.472 122.642C196.372 122.736 196.292 122.85 196.237 122.976Z" fill="#263238"/>
<path d="M196.16 118.989C196.237 119.168 197.216 118.893 198.304 119.302C199.392 119.712 199.981 120.582 200.147 120.474C200.314 120.365 200.192 120.154 199.936 119.77C199.59 119.265 199.096 118.88 198.522 118.669C197.957 118.452 197.339 118.421 196.755 118.579C196.326 118.714 196.122 118.906 196.16 118.989Z" fill="#263238"/>
<path d="M199.27 129.978C198.769 129.577 198.215 129.246 197.626 128.992C197.363 128.858 197.12 128.704 197.146 128.493C197.171 128.282 197.382 128.013 197.638 127.744L199.258 125.939C201.536 123.379 203.302 121.203 203.194 121.114C203.085 121.024 201.158 123.034 198.88 125.594L197.293 127.418C196.992 127.688 196.795 128.054 196.736 128.454C196.738 128.568 196.766 128.68 196.819 128.781C196.871 128.882 196.945 128.969 197.037 129.037C197.176 129.135 197.327 129.216 197.485 129.28C198.049 129.585 198.649 129.819 199.27 129.978Z" fill="#263238"/>
<path d="M193.651 142.554C197.34 144.011 201.361 144.418 205.267 143.731C205.267 143.731 200.48 148.179 192.877 144.461L193.651 142.554Z" fill="#794742"/>
<path d="M198.144 115.085C198.227 115.418 199.123 115.552 200.064 116.006C201.005 116.461 201.715 117.011 202.022 116.858C202.157 116.774 202.15 116.474 201.914 116.083C201.581 115.573 201.107 115.171 200.55 114.925C200.002 114.668 199.391 114.573 198.79 114.65C198.342 114.733 198.112 114.925 198.144 115.085Z" fill="#263238"/>
<path d="M208.154 127.936C208.045 128.195 207.841 128.403 207.583 128.515C207.326 128.627 207.035 128.635 206.771 128.538C206.641 128.494 206.52 128.424 206.417 128.333C206.314 128.242 206.23 128.131 206.17 128.007C206.11 127.883 206.076 127.748 206.07 127.611C206.063 127.473 206.084 127.336 206.131 127.206C206.238 126.946 206.442 126.737 206.7 126.625C206.958 126.513 207.25 126.505 207.514 126.605C207.644 126.649 207.764 126.719 207.866 126.81C207.969 126.902 208.053 127.013 208.112 127.136C208.172 127.26 208.206 127.395 208.213 127.532C208.22 127.669 208.2 127.807 208.154 127.936Z" fill="#263238"/>
<path d="M210.867 125.043C210.688 125.12 210.17 124.243 209.101 123.795C208.032 123.347 207.021 123.552 206.957 123.373C206.893 123.194 207.149 123.11 207.597 123.002C208.196 122.879 208.819 122.942 209.382 123.181C209.94 123.415 210.408 123.821 210.72 124.339C210.944 124.73 210.957 125.011 210.867 125.043Z" fill="#263238"/>
<path d="M212.557 121.517C212.243 121.67 211.52 121.069 210.534 120.64C209.549 120.211 208.614 120 208.544 119.693C208.512 119.533 208.749 119.347 209.184 119.27C209.808 119.197 210.439 119.299 211.008 119.565C211.581 119.814 212.07 120.223 212.416 120.742C212.691 121.139 212.698 121.434 212.557 121.517Z" fill="#263238"/>
<path d="M215.13 133.715C215.354 133.126 216.55 132 217.165 132.128C218.803 132.474 221.542 133.651 220.083 137.594C218.086 142.976 213.094 139.859 213.146 139.699C213.197 139.539 214.355 135.738 215.13 133.715Z" fill="#AB726C"/>
<path d="M215.36 138.285C215.36 138.285 215.424 138.387 215.558 138.515C215.747 138.693 215.997 138.791 216.256 138.79C216.896 138.79 217.715 138.067 218.099 137.107C218.287 136.651 218.368 136.159 218.336 135.667C218.348 135.48 218.314 135.293 218.237 135.123C218.16 134.952 218.042 134.803 217.894 134.688C217.798 134.621 217.682 134.59 217.565 134.599C217.449 134.608 217.339 134.658 217.254 134.739C217.126 134.861 217.12 134.982 217.088 134.982C217.056 134.982 217.005 134.848 217.133 134.643C217.212 134.519 217.332 134.427 217.472 134.381C217.662 134.328 217.866 134.348 218.042 134.438C218.24 134.568 218.403 134.745 218.515 134.955C218.627 135.164 218.684 135.398 218.682 135.635C218.738 136.188 218.659 136.746 218.451 137.261C218.016 138.33 217.082 139.136 216.224 139.072C216.063 139.062 215.907 139.015 215.767 138.936C215.627 138.856 215.508 138.745 215.418 138.611C215.322 138.419 215.334 138.291 215.36 138.285Z" fill="#794742"/>
<path d="M194.278 114.906C194.908 114.837 195.506 114.591 196.002 114.197C196.498 113.803 196.872 113.276 197.082 112.678C197.722 113.165 198.797 112.512 199.456 112.038C200.115 111.565 200.736 111.456 200.992 110.694C201.028 110.539 201.103 110.396 201.21 110.278C201.424 110.148 201.681 110.104 201.926 110.157C202.569 110.189 203.209 110.059 203.788 109.78C204.367 109.5 204.867 109.08 205.242 108.557C206.206 109.502 207.392 110.19 208.691 110.56C208.817 111.071 209.071 111.542 209.429 111.929C209.787 112.316 210.237 112.605 210.737 112.77C211.237 112.935 211.771 112.97 212.289 112.873C212.806 112.775 213.29 112.547 213.696 112.211C213.759 112.604 213.906 112.979 214.127 113.31C214.348 113.642 214.637 113.922 214.976 114.131C215.651 114.56 216.387 114.886 217.158 115.098C216.743 115.773 216.586 116.575 216.715 117.357C216.845 118.139 217.252 118.848 217.862 119.354C218.029 119.488 218.227 119.629 218.246 119.84C218.266 120.051 218.086 120.243 217.939 120.403C217.72 120.674 217.557 120.985 217.461 121.32C217.365 121.655 217.337 122.005 217.378 122.351C217.42 122.696 217.531 123.03 217.704 123.332C217.878 123.634 218.11 123.898 218.387 124.109C218.113 124.211 217.866 124.374 217.664 124.586C217.463 124.798 217.313 125.054 217.225 125.333C217.137 125.612 217.115 125.907 217.158 126.196C217.202 126.486 217.312 126.761 217.478 127.002C217.632 127.194 217.83 127.43 217.715 127.642C217.663 127.719 217.593 127.783 217.51 127.827C216.875 128.154 216.348 128.659 215.994 129.28C215.827 129.594 215.788 129.96 215.885 130.302C215.981 130.644 216.206 130.936 216.512 131.117C216.27 131.185 216.046 131.303 215.851 131.461C215.656 131.619 215.496 131.816 215.379 132.038C215.194 132.499 215.488 133.152 215.987 133.152C216.198 133.152 219.072 133.638 219.251 133.523C221.549 132.038 220.531 129.043 221.325 126.419C222.094 123.779 222.24 120.997 221.754 118.291C221.593 117.153 221.283 116.04 220.832 114.982C220.247 113.808 219.532 112.702 218.701 111.686C217.732 110.277 216.541 109.034 215.174 108.006C212.538 106.221 209.126 106.131 205.952 106.355C204.74 106.407 203.541 106.622 202.387 106.995C201.036 107.529 199.792 108.301 198.714 109.274C197.056 110.562 195.685 112.181 194.688 114.029" fill="#263238"/>
<path d="M193.92 112.64C194.063 112.459 194.234 112.301 194.426 112.173C194.611 112.038 194.848 111.891 195.104 111.686C195.39 111.44 195.621 111.137 195.782 110.797C195.981 110.366 196.142 109.918 196.262 109.459C196.403 108.908 196.618 108.378 196.902 107.885C197.248 107.324 197.705 106.84 198.246 106.464C198.543 106.257 198.863 106.085 199.2 105.952C199.554 105.822 199.918 105.719 200.288 105.645C200.668 105.575 201.033 105.444 201.37 105.254C201.702 105.023 202.001 104.747 202.259 104.435C203.52 103.099 205.214 102.253 207.04 102.048C207.532 102 208.027 102 208.518 102.048C209.022 102.115 209.516 102.242 209.99 102.426C210.228 102.525 210.461 102.636 210.688 102.758C210.918 102.886 211.13 103.027 211.328 103.162C211.762 103.443 212.25 103.631 212.762 103.712C213.28 103.802 213.818 103.802 214.355 103.872C215.465 103.986 216.548 104.289 217.555 104.768C218.072 105.013 218.563 105.309 219.021 105.651C219.972 106.356 220.68 107.34 221.043 108.467L221.139 108.806L221.069 108.736C221.923 108.877 222.741 109.188 223.473 109.65C224.206 110.113 224.837 110.719 225.331 111.43C226.318 112.77 226.745 114.441 226.522 116.09V116.019C227.059 116.556 227.561 117.127 228.026 117.728C228.482 118.312 228.824 118.976 229.037 119.686C229.232 120.379 229.232 121.112 229.037 121.805C228.858 122.479 228.427 123.058 227.833 123.424L227.866 123.328C228.294 124.341 228.359 125.472 228.051 126.528C227.787 127.488 227.238 128.345 226.477 128.986C226.299 129.129 226.111 129.26 225.913 129.376C225.722 129.491 225.53 129.594 225.363 129.715C225.197 129.831 225.063 129.988 224.973 130.17C224.89 130.351 224.824 130.54 224.774 130.733C224.574 131.434 224.295 132.111 223.942 132.749C223.658 133.264 223.278 133.72 222.822 134.093C222.483 134.367 222.084 134.558 221.658 134.65C221.312 134.726 221.018 134.701 220.864 134.752C220.775 134.769 220.689 134.797 220.608 134.835C220.683 134.783 220.768 134.746 220.858 134.726C221.037 134.675 221.312 134.688 221.651 134.605C222.067 134.506 222.454 134.314 222.784 134.042C223.231 133.671 223.601 133.217 223.872 132.704C224.217 132.07 224.488 131.397 224.678 130.701C224.731 130.504 224.797 130.312 224.877 130.125C224.973 129.927 225.118 129.757 225.299 129.632C225.478 129.505 225.664 129.387 225.856 129.28C226.046 129.165 226.228 129.037 226.4 128.896C227.14 128.27 227.672 127.432 227.923 126.496C228.226 125.462 228.158 124.355 227.731 123.366V123.302L227.789 123.27C228.35 122.924 228.756 122.373 228.922 121.734C229.107 121.071 229.107 120.369 228.922 119.706C228.712 119.01 228.375 118.359 227.93 117.786C227.468 117.192 226.97 116.628 226.438 116.096H226.406V116.058C226.599 114.413 226.156 112.757 225.169 111.427C224.182 110.097 222.724 109.194 221.094 108.902H221.043V108.845L220.947 108.518C220.596 107.427 219.911 106.473 218.989 105.792C218.541 105.455 218.061 105.164 217.555 104.922C217.057 104.685 216.538 104.492 216.006 104.346C215.482 104.2 214.947 104.097 214.406 104.038C213.875 103.974 213.338 103.962 212.806 103.872C212.54 103.83 212.278 103.762 212.026 103.667C211.779 103.565 211.542 103.443 211.315 103.302L210.675 102.899C210.454 102.777 210.226 102.67 209.99 102.579C209.533 102.394 209.053 102.269 208.563 102.208C208.084 102.157 207.602 102.157 207.123 102.208C206.202 102.3 205.307 102.567 204.486 102.995C203.712 103.38 203.014 103.903 202.426 104.538C202.154 104.854 201.842 105.134 201.498 105.37C201.148 105.563 200.77 105.699 200.378 105.773C200.012 105.842 199.652 105.94 199.302 106.067C198.976 106.198 198.665 106.363 198.374 106.56C197.841 106.923 197.389 107.394 197.05 107.942C196.766 108.427 196.551 108.948 196.41 109.491C196.279 109.952 196.112 110.401 195.91 110.835C195.736 111.178 195.494 111.483 195.2 111.731C194.938 111.936 194.694 112.077 194.509 112.211C194.369 112.306 194.237 112.411 194.112 112.525C193.978 112.582 193.92 112.64 193.92 112.64Z" fill="#455A64"/>
<path d="M219.046 106.682C219.046 106.682 218.938 106.541 218.726 106.317C218.424 105.999 218.072 105.733 217.683 105.53C217.111 105.227 216.468 105.083 215.821 105.114C215.032 105.16 214.277 105.453 213.664 105.952C213.48 106.103 213.313 106.272 213.165 106.458C213.095 106.536 213.043 106.629 213.013 106.729C212.983 106.83 212.976 106.936 212.992 107.04L213.05 107.27L212.858 107.13C212.359 106.762 211.736 106.605 211.123 106.694C210.638 106.763 210.189 106.988 209.843 107.334C209.603 107.57 209.412 107.851 209.28 108.16C209.19 108.371 209.165 108.493 209.152 108.493C209.139 108.493 209.152 108.461 209.152 108.397C209.17 108.31 209.193 108.225 209.222 108.141C209.332 107.82 209.512 107.527 209.747 107.283C210.103 106.902 210.576 106.649 211.091 106.566C211.745 106.464 212.412 106.625 212.947 107.014L212.813 107.098C212.791 106.969 212.798 106.838 212.833 106.713C212.868 106.588 212.932 106.472 213.018 106.374C213.172 106.177 213.348 105.997 213.542 105.837C214.183 105.313 214.975 105.01 215.802 104.973C216.472 104.95 217.136 105.112 217.722 105.44C218.116 105.655 218.466 105.944 218.752 106.291C218.831 106.384 218.904 106.483 218.97 106.586C219.029 106.645 219.055 106.677 219.046 106.682Z" fill="#455A64"/>
<path d="M225.395 116.16C225.316 116.211 225.23 116.25 225.139 116.275C224.891 116.367 224.634 116.432 224.371 116.467C223.971 116.526 223.562 116.496 223.174 116.378C222.683 116.231 222.263 115.907 221.997 115.469H222.125L221.882 115.629C221.798 115.68 221.709 115.725 221.619 115.77C221.103 116.016 220.533 116.128 219.962 116.096C219.499 116.075 219.044 115.964 218.624 115.77C218.343 115.634 218.082 115.459 217.85 115.251C217.764 115.176 217.689 115.09 217.626 114.995C217.947 115.252 218.3 115.467 218.675 115.635C219.082 115.804 219.515 115.9 219.955 115.917C220.498 115.936 221.037 115.826 221.53 115.597C221.616 115.557 221.699 115.512 221.779 115.462L222.01 115.315L222.093 115.258L222.138 115.341C222.382 115.745 222.764 116.047 223.213 116.192C223.578 116.312 223.964 116.351 224.346 116.307C225.011 116.288 225.389 116.128 225.395 116.16Z" fill="#455A64"/>
<path d="M226.336 122.24C226.322 122.271 226.305 122.301 226.285 122.33C226.224 122.413 226.151 122.487 226.067 122.547C225.747 122.759 225.359 122.846 224.979 122.79C224.429 122.688 223.92 122.428 223.514 122.042C223.277 121.837 223.034 121.632 222.79 121.402C222.522 121.148 222.352 120.808 222.31 120.442V120.32L222.419 120.41C221.8 120.619 221.153 120.736 220.499 120.755C219.929 120.768 219.367 120.617 218.88 120.32C218.561 120.133 218.296 119.866 218.112 119.546C218.065 119.458 218.027 119.366 217.997 119.27C217.997 119.206 217.997 119.174 217.997 119.174C217.997 119.174 218.054 119.302 218.189 119.514C218.387 119.806 218.653 120.048 218.963 120.218C219.422 120.474 219.942 120.6 220.467 120.582C221.121 120.561 221.768 120.442 222.387 120.23L222.502 120.192V120.397C222.546 120.722 222.7 121.022 222.938 121.248C223.162 121.485 223.405 121.696 223.635 121.888C224.018 122.261 224.496 122.52 225.018 122.637C225.371 122.701 225.736 122.637 226.048 122.458C226.246 122.33 226.317 122.202 226.336 122.24Z" fill="#455A64"/>
<path d="M198.918 132.16C198.799 132.671 198.751 133.197 198.778 133.722C198.794 133.984 198.866 134.24 198.988 134.473C199.111 134.706 199.281 134.91 199.488 135.072C199.723 135.223 199.993 135.31 200.272 135.327C200.551 135.344 200.83 135.289 201.082 135.168C201.587 134.924 202.002 134.525 202.266 134.029C202.515 133.587 202.643 132.954 202.266 132.64C202.09 132.522 201.887 132.449 201.677 132.429L198.88 131.93" fill="#794742"/>
<path d="M198.656 134.554C199.038 134.838 199.473 135.043 199.936 135.155C200.422 135.251 200.926 135.162 201.35 134.906C201.601 134.746 201.815 134.535 201.978 134.287C202.141 134.039 202.25 133.759 202.298 133.466C202.317 133.315 202.317 133.162 202.298 133.011C202.298 132.864 202.298 132.877 202.176 132.832C202.054 132.787 201.882 132.774 201.734 132.749L201.274 132.666C200.672 132.557 200.134 132.454 199.686 132.358C199.187 132.302 198.699 132.168 198.24 131.962C198.74 131.907 199.245 131.931 199.738 132.032C200.192 132.083 200.736 132.154 201.344 132.237L201.805 132.301C201.965 132.333 202.106 132.333 202.317 132.39C202.446 132.427 202.56 132.503 202.643 132.608C202.712 132.714 202.754 132.834 202.765 132.96C202.787 133.153 202.787 133.349 202.765 133.542C202.706 133.903 202.568 134.246 202.361 134.547C202.154 134.848 201.884 135.099 201.568 135.283C201.049 135.572 200.437 135.643 199.866 135.482C199.49 135.385 199.147 135.188 198.874 134.912C198.688 134.714 198.63 134.573 198.656 134.554Z" fill="#263238"/>
<path d="M149.933 165.274C153.519 166.705 157.239 167.777 161.037 168.474C164.352 169.114 174.765 169.798 174.765 169.798L191.795 150.97L160.397 155.174C157.107 153.741 135.507 135.437 135.507 135.437L131.667 140.826C131.667 140.826 148.48 164.73 149.933 165.274Z" fill="#AB726C"/>
<path d="M111.827 130.234L119.68 125.44L126.97 126.982L138.65 137.862L134.349 144L132.429 141.926C132.429 141.926 127.2 140.819 125.978 139.251C125.068 138.119 124.082 137.05 123.027 136.051L120.96 134.995C120.96 134.995 116.166 137.363 114.611 136.512L113.901 136.013L118.842 133.05L118.598 131.661C118.598 131.661 114.899 134.624 112.442 134.125L111.635 133.12L115.699 130.758C115.699 130.758 113.203 131.674 112.602 131.187C112.266 130.941 111.999 130.612 111.827 130.234Z" fill="#AB726C"/>
<path d="M126.49 130.944C126.49 130.944 126.541 130.995 126.547 131.136C126.541 131.235 126.513 131.332 126.465 131.419C126.418 131.506 126.352 131.582 126.272 131.642C126.145 131.735 125.998 131.797 125.842 131.825C125.687 131.853 125.528 131.845 125.376 131.802C125.004 131.687 124.641 131.548 124.288 131.386C123.507 131.066 122.566 130.707 121.504 130.368C120.973 130.195 120.41 130.029 119.827 129.869C119.28 129.647 118.676 129.609 118.106 129.76C117.985 129.813 117.876 129.89 117.787 129.987C117.698 130.084 117.63 130.198 117.587 130.323C117.563 130.445 117.569 130.571 117.606 130.689C117.643 130.808 117.709 130.915 117.798 131.002C118.229 131.379 118.684 131.728 119.162 132.045L121.581 133.792C122.259 134.291 122.81 134.707 123.187 134.995C123.393 135.132 123.58 135.296 123.744 135.482C123.515 135.39 123.299 135.268 123.104 135.117C122.707 134.867 122.131 134.477 121.427 134.016L118.97 132.333L118.259 131.84C117.994 131.673 117.749 131.475 117.53 131.251C117.396 131.121 117.297 130.958 117.243 130.779C117.19 130.6 117.182 130.41 117.222 130.227C117.277 130.046 117.37 129.88 117.496 129.739C117.622 129.599 117.778 129.488 117.952 129.414C118.602 129.214 119.302 129.248 119.93 129.51C120.525 129.67 121.088 129.85 121.619 130.029C122.688 130.394 123.629 130.784 124.403 131.136C124.737 131.308 125.081 131.46 125.434 131.59C125.557 131.636 125.688 131.654 125.819 131.642C125.95 131.63 126.076 131.588 126.189 131.52C126.286 131.46 126.365 131.374 126.418 131.273C126.471 131.172 126.495 131.058 126.49 130.944Z" fill="#794742"/>
<path d="M125.702 130.81C125.157 130.723 124.627 130.559 124.128 130.323C122.9 129.831 121.714 129.241 120.582 128.557L120.288 128.371H120.48C119.2 129.088 118.061 129.715 117.222 130.15C116.787 130.415 116.323 130.629 115.84 130.79C116.227 130.448 116.657 130.157 117.12 129.926C117.92 129.434 119.04 128.768 120.32 128.045L120.416 127.987L120.512 128.045L120.806 128.23C123.398 129.818 125.741 130.701 125.702 130.81Z" fill="#794742"/>
<path d="M68.48 246.97L63.5136 261.69C63.5136 261.69 46.8736 261.587 45.7024 264.25L73.8944 274.899L82.5728 252.275L68.48 246.97Z" fill="#455A64"/>
<path d="M72.7104 263.763C72.9516 263.947 73.116 264.214 73.1715 264.512C73.2271 264.81 73.17 265.118 73.0112 265.376C72.8366 265.623 72.5738 265.793 72.2771 265.851C71.9804 265.91 71.6727 265.852 71.4176 265.69C71.16 265.496 70.9846 265.213 70.9265 264.897C70.8684 264.58 70.9317 264.253 71.104 263.981C71.3141 263.741 71.6091 263.592 71.9267 263.566C72.2444 263.54 72.5598 263.638 72.8064 263.84" fill="#E0E0E0"/>
<g opacity="0.6">
<path opacity="0.6" d="M73.9136 274.874L74.7008 272.557L47.36 263.213C47.36 263.213 45.9008 263.283 45.7088 264.224L73.9136 274.874Z" fill="white"/>
</g>
<path d="M63.1296 261.376C63.0848 261.517 63.7696 261.837 64.256 262.534C64.7424 263.232 64.896 263.949 65.056 263.942C65.216 263.936 65.2992 263.066 64.6656 262.227C64.032 261.389 63.1488 261.242 63.1296 261.376Z" fill="#263238"/>
<path d="M59.712 261.485C59.6288 261.606 60.1344 262.061 60.352 262.822C60.5696 263.584 60.4992 264.25 60.64 264.294C60.7808 264.339 61.1648 263.597 60.8384 262.656C60.512 261.715 59.7632 261.35 59.712 261.485Z" fill="#263238"/>
<path d="M56.6912 264.39C56.8064 264.461 57.2608 263.846 57.1904 262.963C57.12 262.08 56.5888 261.53 56.4864 261.626C56.384 261.722 56.6336 262.266 56.6784 263.002C56.7232 263.738 56.5632 264.32 56.6912 264.39Z" fill="#263238"/>
<path d="M64.64 258.144C64.64 258.291 65.3504 258.342 66.112 258.688C66.8736 259.034 67.392 259.514 67.5008 259.418C67.6096 259.322 67.2192 258.618 66.3168 258.221C65.4144 257.824 64.64 258.016 64.64 258.144Z" fill="#263238"/>
<path d="M48.5952 226.912L39.1232 239.226C39.1232 239.226 23.424 233.734 21.4528 235.84L44.6656 255.04L60.2176 236.48L48.5952 226.912Z" fill="#455A64"/>
<path d="M47.136 244.166C47.3019 244.42 47.3689 244.726 47.324 245.025C47.2792 245.325 47.1257 245.598 46.8928 245.792C46.6458 245.966 46.3416 246.04 46.0421 245.999C45.7425 245.957 45.4701 245.803 45.28 245.568C45.0984 245.301 45.0246 244.975 45.0733 244.656C45.1219 244.336 45.2895 244.047 45.5424 243.846C45.8184 243.688 46.1454 243.643 46.4537 243.722C46.7621 243.801 47.0275 243.997 47.1936 244.269" fill="#E0E0E0"/>
<g opacity="0.6">
<path opacity="0.6" d="M44.6656 255.066L46.1568 253.146L23.3472 235.418C23.3472 235.418 21.9392 235.014 21.4272 235.84L44.6656 255.066Z" fill="white"/>
</g>
<path d="M38.8416 238.797C38.752 238.912 39.2768 239.437 39.5328 240.262C39.7888 241.088 39.6928 241.811 39.8336 241.85C39.9744 241.888 40.3456 241.101 40.0192 240.102C39.6928 239.104 38.9056 238.675 38.8416 238.797Z" fill="#263238"/>
<path d="M35.5776 237.786C35.456 237.875 35.7888 238.477 35.776 239.27C35.7632 240.064 35.456 240.672 35.5712 240.762C35.6864 240.851 36.2944 240.269 36.288 239.277C36.2816 238.285 35.6672 237.683 35.5776 237.786Z" fill="#263238"/>
<path d="M31.776 239.558C31.8592 239.667 32.4864 239.232 32.7104 238.368C32.9344 237.504 32.608 236.819 32.48 236.877C32.352 236.934 32.4096 237.517 32.2176 238.24C32.0256 238.963 31.6736 239.45 31.776 239.558Z" fill="#263238"/>
<path d="M41.312 236.23C41.2736 236.371 41.952 236.646 42.528 237.222C43.104 237.798 43.4688 238.413 43.6096 238.362C43.7504 238.31 43.6096 237.51 42.88 236.845C42.1504 236.179 41.3312 236.096 41.312 236.23Z" fill="#263238"/>
<path d="M136.16 187.923L148.038 191.674L146.97 181.677L143.936 179.968L139.264 179.098L136.544 181.158L135.603 183.923L136.16 187.923Z" fill="#FFFC47"/>
<g opacity="0.3">
<path opacity="0.3" d="M136.186 187.834L148.038 191.674L146.97 181.677L143.936 179.968L139.264 179.098L136.544 181.158L135.603 183.923L136.186 187.834Z" fill="black"/>
</g>
<path d="M163.706 168.781V152.608L181.76 148.013L191.302 147.68C192.685 149.011 182.81 161.76 182.81 161.76L163.706 168.781Z" fill="#FFFC47"/>
<path d="M41.2224 234.765C41.2224 234.765 72.1152 190.976 76.1152 185.971C80.1152 180.966 84.064 176.813 93.3952 179.821C97.952 181.286 144.256 195.059 144.256 195.059L151.936 194.118L177.485 215.552C177.485 215.552 161.037 233.51 141.267 225.446C121.325 217.306 92.0384 203.552 92.0384 203.552C92.0384 203.552 77.7088 218.573 72.7744 224.672C67.6544 231.072 54.8928 243.52 54.8928 243.52L41.2224 234.765Z" fill="#263238"/>
<path d="M146.362 186.758C145.216 187.13 78.7968 195.955 78.7968 195.955L63.6352 256.954L79.3792 262.317L98.0864 212.934L121.504 215.27L151.942 194.118L146.362 186.758Z" fill="#263238"/>
<path d="M142.522 177.76L150.144 178.746L160.051 176.73C160.051 176.73 165.402 164.877 168.038 159.878C170.675 154.88 190.848 147.603 190.848 147.603L209.869 150.88L215.322 153.44L208.384 175.725L190.72 200.582L173.658 219.782C173.658 219.782 143.488 191.232 142.381 186.675C141.44 182.803 143.021 180.794 140.384 179.456C139.462 178.989 138.17 179.859 137.696 180.57C136.646 182.125 135.571 182.97 136.038 187.232C135.481 186.059 135.285 184.747 135.475 183.462C135.782 182.3 136.32 181.212 137.056 180.262C137.678 179.414 138.507 178.738 139.463 178.3C140.42 177.862 141.473 177.676 142.522 177.76Z" fill="#FFFC47"/>
<g opacity="0.3">
<path opacity="0.3" d="M178.56 163.84C176.41 166.298 174.355 169.805 174.266 173.069C174.323 174.449 174.31 175.831 174.227 177.21C174.042 178.643 173.485 180.013 173.286 181.453C173.145 183.234 173.283 185.026 173.696 186.765C173.846 188.022 174.191 189.249 174.72 190.4C175.368 191.402 176.075 192.363 176.838 193.28C178.336 195.373 179.014 197.92 180.038 200.275C181.062 202.63 182.65 204.979 185.082 205.811C186.272 204.851 187.552 203.75 187.789 202.234C187.861 201.21 187.676 200.185 187.251 199.251C185.1 193.409 182.33 187.813 178.989 182.56C177.944 180.818 177.127 178.949 176.557 176.998C175.2 172.691 176.96 167.808 178.477 163.821" fill="black"/>
</g>
<path d="M178.246 182.79C178.019 182.664 177.814 182.502 177.638 182.31C177.135 181.817 176.704 181.254 176.358 180.64C175.234 178.574 174.77 176.213 175.027 173.875C175.307 171.573 175.935 169.327 176.89 167.213C177.242 166.394 177.53 165.747 177.76 165.293C177.855 165.052 177.98 164.824 178.131 164.614C177.849 165.525 177.52 166.42 177.146 167.296C176.278 169.411 175.695 171.632 175.411 173.901C175.165 176.166 175.576 178.455 176.595 180.493C177.062 181.315 177.616 182.085 178.246 182.79Z" fill="#263238"/>
<path d="M199.68 175.674L194.176 191.277L191.411 188.39L185.357 191.251L188.186 204.723C188.186 204.723 191.648 209.843 195.866 209.664C200.083 209.485 200.934 206.899 202.355 203.789C203.776 200.678 211.648 181.261 211.648 181.261C211.648 181.261 201.536 175.578 199.68 175.674Z" fill="#AB726C"/>
<path d="M185.734 170.691L176.093 170.403C175.242 170.378 174.531 171.047 174.506 171.899L173.887 192.632C173.861 193.483 174.531 194.194 175.382 194.22L185.023 194.507C185.874 194.533 186.585 193.863 186.61 193.012L187.229 172.279C187.255 171.427 186.585 170.716 185.734 170.691Z" fill="#263238"/>
<path d="M201.888 200.058C201.888 200.058 201.715 199.936 201.44 199.674C201.165 199.411 200.8 199.034 200.339 198.502C199.43 197.491 198.266 196.032 196.877 194.509C195.488 192.986 194.266 191.565 193.382 190.541C192.879 189.995 192.417 189.413 192 188.8C192.559 189.274 193.077 189.794 193.549 190.355C194.477 191.341 195.718 192.73 197.114 194.259C198.509 195.789 199.674 197.28 200.512 198.323C201 198.878 201.459 199.456 201.888 200.058Z" fill="#794742"/>
<path d="M214.816 153.184C214.816 153.184 220.365 158.08 219.52 164.48C218.675 170.88 215.04 184.454 215.04 184.454L197.05 175.43L200.672 162.963C200.672 162.963 209.958 152.038 214.816 153.184Z" fill="#FFFC47"/>
<path d="M184.166 150.72C184.061 150.784 183.95 150.838 183.834 150.88L182.854 151.283C182.01 151.622 180.768 152.09 179.264 152.717C177.503 153.435 175.792 154.271 174.144 155.219C173.216 155.757 172.262 156.365 171.302 157.03C170.3 157.687 169.396 158.485 168.621 159.398C167.191 161.24 165.999 163.255 165.075 165.395C164.166 167.347 163.443 169.158 162.816 170.669C162.189 172.179 161.67 173.395 161.254 174.214C161.056 174.63 160.877 174.938 160.755 175.149C160.699 175.257 160.633 175.36 160.557 175.456C160.721 175.02 160.909 174.592 161.12 174.176C161.491 173.344 161.971 172.115 162.566 170.592C163.162 169.069 163.846 167.251 164.749 165.274C165.671 163.096 166.874 161.048 168.326 159.181C169.12 158.238 170.05 157.418 171.085 156.749C172.058 156.109 173.005 155.469 173.971 154.938C175.646 153.994 177.39 153.177 179.187 152.493C180.717 151.898 181.965 151.462 182.829 151.168L183.834 150.835C183.939 150.782 184.051 150.743 184.166 150.72Z" fill="#263238"/>
<path d="M215.04 184.467C214.625 184.328 214.223 184.155 213.837 183.949L210.637 182.406C207.936 181.088 204.237 179.245 200.109 177.184L196.979 175.61L196.845 175.539L196.883 175.398C197.792 171.757 198.63 168.582 199.27 166.33C199.59 165.203 199.866 164.307 200.064 163.693C200.146 163.37 200.262 163.057 200.41 162.758C200.358 163.088 200.283 163.413 200.186 163.731C200.013 164.416 199.782 165.306 199.507 166.394C198.925 168.73 198.144 171.885 197.248 175.488L197.152 175.27L200.282 176.845C204.384 178.899 208.09 180.781 210.758 182.163L213.92 183.814C214.308 184.006 214.682 184.224 215.04 184.467Z" fill="#263238"/>
<path d="M215.187 153.37C215.187 153.434 214.515 153.299 213.453 153.274C212.069 153.244 210.69 153.441 209.37 153.856C208.049 154.289 206.81 154.937 205.702 155.776C204.851 156.416 204.422 156.902 204.346 156.858C204.661 156.362 205.064 155.928 205.536 155.578C207.741 153.716 210.589 152.797 213.466 153.018C214.056 153.027 214.64 153.146 215.187 153.37Z" fill="#263238"/>
<path d="M151.712 198.048C151.712 198.144 146.125 196.448 139.296 194.266C132.467 192.083 126.95 190.234 126.982 190.138C127.014 190.042 132.576 191.731 139.405 193.92C146.234 196.109 151.744 197.952 151.712 198.048Z" fill="#455A64"/>
<path d="M41.2224 234.765C41.3115 234.8 41.3954 234.848 41.472 234.906C41.6512 235.008 41.888 235.155 42.1888 235.341L44.928 237.056L54.9632 243.418H54.8032C61.7728 236.102 71.4432 225.939 81.8176 214.438C85.6576 210.157 89.3376 205.99 92.5376 202.01L92.6208 201.901L92.7424 201.958C97.9904 204.269 102.714 206.746 106.925 208.998C111.136 211.251 114.842 213.248 117.946 214.861C121.05 216.474 123.546 217.709 125.267 218.522L127.251 219.45L127.757 219.693L127.93 219.789L127.744 219.725L127.226 219.507C126.771 219.309 126.086 219.027 125.222 218.63C123.475 217.85 120.966 216.64 117.85 215.053C114.733 213.466 111.008 211.482 106.79 209.293C102.573 207.104 97.8304 204.614 92.608 202.323L92.8 202.24C89.6 206.24 85.9264 210.413 82.08 214.701C71.6928 226.221 61.9968 236.339 54.976 243.61L54.9056 243.686L54.816 243.629L44.8384 237.165L42.1376 235.398L41.44 234.925C41.3634 234.877 41.2906 234.824 41.2224 234.765Z" fill="#455A64"/>
<path d="M92.6976 202.163C92.3708 201.266 92.1099 200.346 91.9168 199.411C91.6087 198.509 91.3712 197.585 91.2064 196.646C92.1283 198.343 92.6391 200.233 92.6976 202.163Z" fill="#455A64"/>
<path d="M176.768 180.55C176.768 180.55 184.589 177.619 185.382 177.894L191.898 180.109C192.187 180.431 192.369 180.835 192.417 181.266C192.466 181.696 192.378 182.131 192.166 182.509C192.166 182.509 193.133 185.152 192.531 186.618L191.936 188.09C192.058 188.459 192.106 188.849 192.076 189.236C192.046 189.624 191.94 190.002 191.763 190.349C190.79 192.096 190.906 192.55 190.138 192.787C189.37 193.024 185.203 191.987 185.203 191.987C185.203 191.987 179.853 190.656 179.565 190.067C179.277 189.478 179.955 188.922 179.955 188.922L184.435 189.069L183.738 188.237L181.12 187.52C181.12 187.52 178.387 188.288 177.037 187.213C176.916 187.104 176.841 186.954 176.827 186.793C176.812 186.631 176.86 186.47 176.96 186.342L177.677 185.523C177.142 185.405 176.665 185.105 176.326 184.674C175.988 184.244 175.809 183.709 175.821 183.162L178.003 182.522C178.003 182.522 175.36 181.837 176.768 180.55Z" fill="#AB726C"/>
<path d="M188.704 181.99C186.98 181.682 185.233 181.53 183.482 181.536C181.735 181.658 180.004 181.943 178.31 182.387C178.759 182.119 179.247 181.925 179.757 181.811C180.964 181.454 182.211 181.25 183.469 181.203C184.728 181.157 185.987 181.266 187.219 181.53C187.735 181.607 188.235 181.762 188.704 181.99Z" fill="#794742"/>
<path d="M189.062 186.112C188.5 186.024 187.945 185.9 187.398 185.741C186.066 185.442 184.711 185.26 183.347 185.197C181.985 185.143 180.621 185.209 179.27 185.395C178.712 185.505 178.148 185.58 177.581 185.619C178.108 185.392 178.663 185.237 179.232 185.158C180.595 184.908 181.982 184.809 183.366 184.864C184.749 184.923 186.121 185.138 187.456 185.504C188.016 185.634 188.557 185.838 189.062 186.112Z" fill="#794742"/>
<path d="M189.05 190.214C188.182 190.187 187.321 190.047 186.49 189.798C185.638 189.657 184.808 189.408 184.019 189.056C185.735 189.223 187.422 189.612 189.037 190.214H189.05Z" fill="#794742"/>
<path d="M191.718 187.712C191.932 187.936 192.061 188.228 192.083 188.538C192.15 188.933 192.119 189.338 191.993 189.719C191.866 190.099 191.649 190.443 191.36 190.72L191.398 190.541C191.547 190.879 191.559 191.261 191.433 191.608C191.306 191.955 191.051 192.24 190.72 192.403C190.385 192.551 190.024 192.63 189.658 192.634C189.318 192.634 189.018 192.634 188.685 192.634C188.138 192.612 187.594 192.561 187.053 192.48C186.548 192.432 186.054 192.307 185.587 192.109C186.087 192.12 186.585 192.165 187.078 192.243C187.539 192.288 188.083 192.32 188.691 192.326C189.327 192.377 189.966 192.3 190.573 192.102C190.828 191.975 191.026 191.756 191.127 191.489C191.228 191.222 191.224 190.927 191.117 190.662L191.072 190.56L191.155 190.483C191.42 190.243 191.627 189.944 191.759 189.612C191.891 189.279 191.945 188.92 191.917 188.563C191.853 188.019 191.674 187.731 191.718 187.712Z" fill="#794742"/>
<path d="M181.76 173.472C181.751 173.596 181.706 173.715 181.631 173.815C181.556 173.914 181.453 173.989 181.335 174.03C181.218 174.072 181.091 174.079 180.97 174.049C180.849 174.019 180.739 173.955 180.654 173.864C180.569 173.773 180.512 173.659 180.491 173.537C180.47 173.414 180.485 173.287 180.534 173.173C180.584 173.059 180.665 172.961 180.77 172.893C180.874 172.824 180.995 172.788 181.12 172.787C181.208 172.787 181.295 172.805 181.376 172.84C181.456 172.875 181.529 172.926 181.589 172.99C181.649 173.054 181.695 173.13 181.725 173.213C181.754 173.296 181.766 173.384 181.76 173.472Z" fill="white"/>
</svg>
