<svg width="320" height="320" viewBox="0 0 320 320" fill="none" xmlns="http://www.w3.org/2000/svg">
<path d="M257.242 122.688C246.298 112.794 230.029 111.558 215.373 113.306C200.717 115.053 189.562 120.141 174.835 119.168C164.16 118.464 152.294 113.28 144.531 104.448C140.541 99.7941 137.959 94.0999 137.088 88.032C134.79 73.0944 131.053 63.3664 119.2 55.5072C106.125 46.8288 88.6848 46.048 74.0544 51.7184C59.424 57.3888 47.5264 68.9216 39.4944 82.4384C23.7568 108.973 22.8544 143.136 34.9504 171.507C47.0464 199.878 71.456 222.24 99.84 234.24C128.224 246.24 160.422 248.32 190.72 242.355C212.557 238.074 234.368 229.222 249.171 212.602C260.218 200.205 266.682 184.134 269.075 167.699C271.392 151.68 269.229 133.53 257.242 122.688Z" fill="white"/>
<path d="M296.96 306.438C296.96 306.534 235.635 306.605 160 306.605C84.3648 306.605 23.04 306.56 23.04 306.438C23.04 306.317 84.352 306.272 160 306.272C235.648 306.272 296.96 306.349 296.96 306.438Z" fill="#263238"/>
<path d="M239.667 153.152H53.9327V159.098H239.667V153.152Z" fill="#E0E0E0"/>
<path d="M70.7839 306.746L64.7551 306.72V158.317H70.7839V306.746Z" fill="#E0E0E0"/>
<path d="M230.835 306.733H224.749L224.806 158.317H230.835V306.733Z" fill="#E0E0E0"/>
<path d="M125.907 98.4705C125.907 98.4705 159.059 133.203 158.477 140.915C157.894 148.627 150.47 150.291 148.051 149.99C145.632 149.69 127.398 129.395 127.398 129.395L125.907 98.4705Z" fill="#FFFC47"/>
<g opacity="0.4">
<path opacity="0.4" d="M125.907 98.4705C125.907 98.4705 159.059 133.203 158.477 140.915C157.894 148.627 150.47 150.291 148.051 149.99C145.632 149.69 127.398 129.395 127.398 129.395L125.907 98.4705Z" fill="black"/>
</g>
<path d="M143.571 270.067L152.563 300.141L162.662 294.656L156.922 267.123L143.571 270.067Z" fill="#AB726C"/>
<path d="M161.427 281.421L164.518 295.68C164.518 295.68 180.032 297.318 180.858 299.891L153.472 306.861L147.712 284.877L161.427 281.421Z" fill="#FFFC47"/>
<path d="M155.75 296.634C155.507 296.781 155.327 297.012 155.245 297.284C155.162 297.556 155.183 297.848 155.302 298.106C155.439 298.354 155.667 298.54 155.938 298.624C156.208 298.709 156.501 298.686 156.755 298.56C157.013 298.404 157.203 298.158 157.289 297.869C157.375 297.581 157.352 297.27 157.222 296.998C157.051 296.754 156.793 296.586 156.5 296.529C156.208 296.472 155.905 296.53 155.654 296.691" fill="#E0E0E0"/>
<g opacity="0.4">
<path opacity="0.4" d="M153.472 306.861L152.96 304.64L179.405 298.771C179.405 298.771 180.755 298.995 180.838 299.885L153.472 306.861Z" fill="black"/>
</g>
<path d="M164.928 295.405C164.96 295.539 164.288 295.77 163.757 296.371C163.226 296.973 163.002 297.619 162.867 297.594C162.733 297.568 162.733 296.749 163.405 296.038C164.077 295.328 164.928 295.277 164.928 295.405Z" fill="#263238"/>
<path d="M168.102 295.859C168.166 295.981 167.648 296.358 167.334 297.037C167.021 297.715 167.046 298.349 166.912 298.381C166.778 298.413 166.502 297.67 166.912 296.832C167.322 295.994 168.07 295.731 168.102 295.859Z" fill="#263238"/>
<path d="M170.611 298.88C170.496 298.938 170.144 298.317 170.298 297.498C170.451 296.678 171.008 296.218 171.091 296.326C171.174 296.435 170.886 296.915 170.771 297.606C170.656 298.298 170.746 298.835 170.611 298.88Z" fill="#263238"/>
<path d="M163.84 292.237C163.84 292.378 163.149 292.346 162.406 292.589C161.664 292.832 161.126 293.229 161.037 293.126C160.947 293.024 161.382 292.41 162.266 292.134C163.149 291.859 163.904 292.115 163.84 292.237Z" fill="#263238"/>
<path d="M163.2 289.376C162.782 289.615 162.306 289.735 161.824 289.722C161.307 289.76 160.786 289.734 160.275 289.645C159.973 289.598 159.675 289.525 159.386 289.427C159.209 289.384 159.04 289.313 158.886 289.216C158.774 289.143 158.689 289.035 158.645 288.909C158.601 288.783 158.6 288.645 158.643 288.518C158.686 288.408 158.754 288.31 158.841 288.231C158.929 288.152 159.035 288.095 159.149 288.064C159.324 288.017 159.505 287.995 159.686 288C159.995 287.999 160.304 288.025 160.608 288.077C161.125 288.165 161.624 288.336 162.086 288.582C162.874 289.011 163.219 289.453 163.181 289.491C163.142 289.53 162.714 289.21 161.946 288.89C161.496 288.706 161.025 288.579 160.544 288.512C160.262 288.476 159.977 288.463 159.693 288.474C159.386 288.474 159.136 288.531 159.098 288.678C159.059 288.826 159.098 288.755 159.168 288.826C159.281 288.897 159.404 288.951 159.533 288.986C159.803 289.076 160.079 289.151 160.358 289.21C160.839 289.311 161.327 289.369 161.818 289.382C162.278 289.351 162.74 289.349 163.2 289.376Z" fill="#263238"/>
<path d="M163.059 289.613C163.021 289.645 162.63 289.235 162.362 288.384C162.207 287.883 162.14 287.359 162.163 286.835C162.178 286.522 162.223 286.212 162.298 285.907C162.328 285.708 162.408 285.519 162.531 285.359C162.654 285.198 162.816 285.072 163.002 284.992C163.12 284.967 163.243 284.976 163.356 285.018C163.469 285.06 163.568 285.133 163.642 285.229C163.753 285.371 163.844 285.528 163.91 285.696C164.04 285.99 164.12 286.304 164.147 286.624C164.204 287.155 164.127 287.692 163.923 288.186C163.571 289.037 163.053 289.338 163.034 289.293C163.247 288.899 163.438 288.493 163.603 288.077C163.74 287.623 163.777 287.145 163.712 286.675C163.672 286.403 163.594 286.139 163.482 285.888C163.366 285.606 163.194 285.402 163.098 285.459C163.002 285.517 162.784 285.773 162.733 286.029C162.655 286.301 162.604 286.579 162.579 286.861C162.539 287.34 162.567 287.823 162.662 288.294C162.854 289.114 163.13 289.574 163.059 289.613Z" fill="#263238"/>
<path d="M119.168 184.32C119.501 185.651 142.976 281.44 142.976 281.44L164.294 275.002L144.166 177.978L119.168 184.32Z" fill="#263238"/>
<path d="M116.026 61.9201L112.301 90.5409C112.151 91.6941 112.238 92.8656 112.555 93.9844C112.872 95.1032 113.412 96.146 114.144 97.0496C114.876 97.9532 115.784 98.6988 116.812 99.2412C117.841 99.7835 118.969 100.111 120.128 100.205C122.327 100.381 124.509 99.704 126.222 98.3147C127.936 96.9254 129.049 94.9302 129.331 92.7425C129.606 90.5857 129.843 88.7937 129.888 88.5697C129.888 88.5697 137.267 88.8385 138.726 81.6961C139.437 78.2401 140.314 71.0145 141.037 64.4673C141.408 61.0743 140.488 57.6658 138.46 54.9204C136.432 52.1749 133.445 50.2937 130.093 49.6513L129.402 49.5169C121.869 48.5185 116.819 54.3617 116.026 61.9201Z" fill="#AB726C"/>
<path d="M129.92 88.4736C126.599 87.8888 123.527 86.3294 121.094 83.9937C121.094 83.9937 122.31 89.568 129.581 90.2976L129.92 88.4736Z" fill="#794742"/>
<path d="M138.989 68.512C138.939 68.7781 138.787 69.0143 138.566 69.1707C138.345 69.3272 138.072 69.3916 137.805 69.3504C137.544 69.3124 137.308 69.1725 137.15 68.9615C136.992 68.7504 136.923 68.4853 136.96 68.224C137.008 67.9572 137.16 67.7199 137.381 67.5632C137.602 67.4065 137.876 67.3427 138.144 67.3856C138.405 67.4236 138.64 67.5635 138.799 67.7745C138.957 67.9856 139.025 68.2507 138.989 68.512Z" fill="#263238"/>
<path d="M139.046 67.2768C138.899 67.3856 138.234 66.6368 137.126 66.4576C136.019 66.2784 135.11 66.6432 135.021 66.4576C134.931 66.272 135.149 66.1696 135.546 65.984C136.087 65.7482 136.688 65.6834 137.267 65.7984C137.84 65.9032 138.363 66.1906 138.758 66.6176C139.053 66.9696 139.123 67.232 139.046 67.2768Z" fill="#263238"/>
<path d="M127.923 66.9376C127.873 67.2053 127.721 67.4431 127.499 67.6008C127.277 67.7584 127.002 67.8235 126.733 67.7824C126.601 67.7674 126.473 67.7262 126.357 67.6611C126.241 67.5961 126.139 67.5085 126.057 67.4036C125.976 67.2987 125.916 67.1785 125.881 67.0501C125.847 66.9217 125.838 66.7877 125.856 66.656C125.906 66.3899 126.057 66.1537 126.278 65.9973C126.499 65.8408 126.772 65.7764 127.04 65.8176C127.172 65.8318 127.3 65.8723 127.416 65.9366C127.532 66.0009 127.635 66.0877 127.717 66.192C127.799 66.2963 127.86 66.416 127.895 66.544C127.931 66.672 127.94 66.8058 127.923 66.9376Z" fill="#263238"/>
<path d="M128.045 65.5488C127.891 65.6576 127.226 64.9088 126.125 64.7296C125.024 64.5504 124.109 64.9152 124.013 64.7296C123.917 64.544 124.141 64.448 124.544 64.256C125.083 64.0199 125.682 63.9551 126.259 64.0704C126.832 64.1783 127.357 64.4651 127.757 64.8896C128.051 65.2416 128.122 65.504 128.045 65.5488Z" fill="#263238"/>
<path d="M130.394 74.7393C131.008 74.6616 131.629 74.6616 132.243 74.7393C132.525 74.7393 132.806 74.7393 132.883 74.5729C132.969 74.2912 132.969 73.9905 132.883 73.7089L132.461 71.4049C131.891 68.1409 131.539 65.4721 131.667 65.4529C131.795 65.4337 132.371 68.0641 132.947 71.3281C133.075 72.1345 133.203 72.9025 133.325 73.6385C133.437 74.0097 133.414 74.4087 133.261 74.7649C133.201 74.8567 133.12 74.9338 133.026 74.9903C132.932 75.0468 132.826 75.0813 132.717 75.0913C132.555 75.1084 132.392 75.1084 132.23 75.0913C131.606 75.0459 130.99 74.9278 130.394 74.7393Z" fill="#263238"/>
<path d="M128.8 63.3088C128.634 63.5904 127.565 63.2384 126.24 63.1424C124.915 63.0464 123.808 63.2 123.68 62.8992C123.622 62.7584 123.859 62.5088 124.32 62.304C124.948 62.0477 125.629 61.9468 126.304 62.0096C126.983 62.0543 127.641 62.2605 128.224 62.6112C128.678 62.8992 128.877 63.1744 128.8 63.3088Z" fill="#263238"/>
<path d="M139.558 63.2769C139.315 63.4881 138.605 63.0785 137.696 62.8929C136.787 62.7073 135.981 62.7393 135.853 62.4449C135.802 62.3041 135.968 62.0737 136.352 61.9009C136.857 61.7024 137.409 61.6573 137.94 61.7711C138.47 61.885 138.955 62.1527 139.334 62.5409C139.61 62.8929 139.667 63.1681 139.558 63.2769Z" fill="#263238"/>
<path d="M115.597 67.3344C115.481 67.2576 110.957 64.9344 110.169 69.856C109.382 74.7776 114.49 74.5536 114.521 74.4128C114.553 74.272 115.597 67.3344 115.597 67.3344Z" fill="#AB726C"/>
<path d="M113.312 72.32C113.312 72.32 113.222 72.3648 113.062 72.4096C112.955 72.4381 112.843 72.4449 112.733 72.4295C112.623 72.4141 112.518 72.3769 112.422 72.32C111.929 72.0512 111.622 71.1552 111.744 70.2592C111.798 69.8348 111.947 69.428 112.179 69.0688C112.249 68.9226 112.354 68.7958 112.485 68.6998C112.615 68.6038 112.767 68.5415 112.928 68.5184C113.03 68.5082 113.133 68.5339 113.218 68.5912C113.303 68.6484 113.366 68.7336 113.395 68.832C113.44 68.9792 113.395 69.0752 113.395 69.088C113.395 69.1008 113.51 69.0176 113.504 68.8128C113.495 68.6844 113.443 68.5627 113.357 68.4672C113.235 68.3477 113.073 68.2771 112.902 68.2688C112.692 68.2794 112.488 68.3438 112.31 68.4559C112.132 68.5679 111.985 68.7239 111.885 68.9088C111.608 69.3019 111.432 69.7568 111.373 70.2336C111.245 71.232 111.603 72.2432 112.281 72.5632C112.408 72.6217 112.545 72.652 112.685 72.652C112.824 72.652 112.962 72.6217 113.088 72.5632C113.28 72.4288 113.331 72.32 113.312 72.32Z" fill="#794742"/>
<path d="M112.902 66.6432C113.374 66.7021 113.821 66.888 114.195 67.1811C114.569 67.4742 114.857 67.8634 115.027 68.3072C115.213 69.0624 115.13 69.8688 115.309 70.6304C115.488 71.392 116.09 72.16 116.87 72.128C117.139 72.0962 117.395 71.9943 117.611 71.8326C117.828 71.6708 117.999 71.4549 118.106 71.2064C118.311 70.7068 118.42 70.1724 118.426 69.632C118.573 67.2896 118.528 64.928 118.88 62.592C119.137 60.2362 120.085 58.0092 121.606 56.192C123.194 54.464 125.69 53.4528 127.949 54.08C129.446 54.4896 130.688 55.552 132.16 56.0576C133.037 56.3493 133.968 56.4374 134.884 56.3155C135.8 56.1935 136.676 55.8646 137.446 55.3536C137.531 55.2985 137.621 55.2513 137.715 55.2128C137.983 55.0901 138.203 54.8825 138.34 54.6221C138.478 54.3618 138.526 54.0632 138.477 53.7728C138.452 53.5849 138.384 53.4053 138.278 53.248C135.814 49.92 130.56 48.128 126.413 48.3648C122.266 48.6016 118.01 50.6816 115.59 54.0672C113.171 57.4528 112.685 62.7072 112.902 66.6432Z" fill="#263238"/>
<path d="M132.608 78.08C131.539 77.924 130.515 77.5469 129.6 76.9728C130.142 76.9948 130.674 77.13 131.162 77.3696C131.687 77.5043 132.18 77.7461 132.608 78.08Z" fill="#263238"/>
<path d="M137.958 83.5969C137.864 84.0824 137.655 84.5386 137.35 84.9281C136.656 85.8988 135.738 86.6889 134.675 87.2321C133.623 87.766 132.5 88.1495 131.341 88.3713C130.87 88.5024 130.383 88.5649 129.894 88.5569C130.345 88.3797 130.809 88.2406 131.283 88.1409C132.402 87.8554 133.488 87.452 134.522 86.9377C135.541 86.4133 136.44 85.6807 137.158 84.7873C137.702 84.0897 137.907 83.5713 137.958 83.5969Z" fill="#794742"/>
<path d="M134.489 87.2512C132.755 88.1152 131.481 90.4512 130.381 92C130.007 92.4433 129.739 92.9666 129.6 93.5296C129.548 94.1419 129.656 94.7571 129.913 95.3152C130.227 96.1664 130.553 97.0048 130.937 97.8368C131.04 98.08 131.174 98.3424 131.43 98.4C131.686 98.4576 132.019 98.1568 132.153 97.856C132.398 97.0763 132.534 96.2665 132.557 95.4496C132.578 95.0419 132.699 94.6456 132.909 94.2953C133.118 93.9451 133.411 93.6514 133.76 93.44" fill="#794742"/>
<path d="M137.229 93.6385L135.546 92.3585C135.444 92.2743 135.313 92.2332 135.182 92.244C135.05 92.2547 134.928 92.3165 134.842 92.4161L133.946 93.4529L134.419 96.0705C134.97 99.4305 132.499 98.9057 132.499 98.9057L132.301 98.2657L131.206 94.1697C130.989 92.2113 131.142 91.9809 132.096 90.5665L134.182 87.5841C134.392 87.2705 134.701 87.0368 135.06 86.9207C135.419 86.8046 135.806 86.8128 136.16 86.9441C139.155 88.0513 145.613 90.0481 146.342 92.5889C147.667 97.2097 148.736 109.005 148.755 109.229L139.61 110.08L139.654 102.214C138.85 101.713 138.244 100.949 137.939 100.051C137.555 98.6625 137.229 93.6513 137.229 93.6513" fill="#AB726C"/>
<path d="M143.546 95.1808C143.546 95.1808 143.45 95.3408 143.2 95.552C142.844 95.8625 142.418 96.0821 141.958 96.192C141.632 96.2655 141.293 96.2655 140.966 96.192C140.579 96.0943 140.236 95.8688 139.994 95.552C139.456 94.912 139.354 94.0032 138.906 93.344C138.63 93.0423 138.314 92.7816 137.965 92.5696C137.636 92.3579 137.294 92.1677 136.941 92C136.658 91.8306 136.336 91.74 136.006 91.7376C135.729 91.8265 135.475 91.9775 135.264 92.1792C134.438 92.9408 133.984 93.5168 133.939 93.4592C133.894 93.4016 134.022 93.2992 134.214 93.0368C134.485 92.6675 134.782 92.3188 135.104 91.9936C135.338 91.7506 135.628 91.5683 135.949 91.4624C136.05 91.4429 136.154 91.4429 136.256 91.4624C136.351 91.4791 136.445 91.5026 136.538 91.5328C136.72 91.5859 136.898 91.6545 137.069 91.7376C137.44 91.8984 137.797 92.0889 138.138 92.3072C138.526 92.5342 138.876 92.8215 139.174 93.1584C139.712 93.9392 139.776 94.8288 140.23 95.3728C140.434 95.6108 140.697 95.7897 140.993 95.8911C141.289 95.9924 141.607 96.0123 141.914 95.9488C142.347 95.8675 142.759 95.6975 143.123 95.4496C143.36 95.2704 143.526 95.1616 143.546 95.1808Z" fill="#794742"/>
<path d="M142.534 97.9584C140.786 97.8556 139.083 97.3636 137.549 96.5184C138.403 96.6736 139.242 96.9005 140.058 97.1968C140.903 97.3822 141.731 97.6369 142.534 97.9584Z" fill="#794742"/>
<path d="M139.29 93.6768C136.896 93.6768 136.614 93.568 133.907 93.7152C133.503 93.7176 133.101 93.7823 132.717 93.9072C132.524 93.971 132.349 94.0797 132.207 94.2243C132.064 94.369 131.958 94.5455 131.898 94.7392C131.712 95.4816 132.461 96.1536 133.178 96.3264C133.894 96.4992 134.714 96.3648 135.456 96.5376C136.635 96.7464 137.7 97.3708 138.458 98.2976C140.019 100.506 141.658 99.4432 142.72 100.218L145.51 98.4512L144.525 94.3296L139.264 93.6896" fill="#AB726C"/>
<path d="M142.989 100.237C142.746 100.125 142.49 100.045 142.227 100C141.473 99.9906 140.725 99.8587 140.013 99.6096C139.538 99.3695 139.122 99.0262 138.797 98.6048C138.47 98.1316 138.05 97.7307 137.561 97.4272C137.016 97.1056 136.425 96.8682 135.808 96.7232C135.124 96.6172 134.433 96.5573 133.741 96.544C133.357 96.5213 132.988 96.3885 132.678 96.1615C132.369 95.9344 132.131 95.6228 131.994 95.264C131.942 95.0768 131.939 94.8794 131.987 94.691C132.034 94.5027 132.129 94.3296 132.262 94.1888C132.501 93.9315 132.81 93.751 133.152 93.6704C133.744 93.5744 134.344 93.5252 134.944 93.5232C135.494 93.5232 136.013 93.5232 136.486 93.5232C137.433 93.5232 138.189 93.5872 138.714 93.6128C138.988 93.6077 139.262 93.6291 139.533 93.6768C139.263 93.7326 138.988 93.7541 138.714 93.7408C138.189 93.7408 137.433 93.7408 136.486 93.7408C136.019 93.7408 135.507 93.7408 134.957 93.7984C134.377 93.8071 133.799 93.8628 133.229 93.9648C132.685 94.08 132.128 94.6048 132.307 95.168C132.431 95.461 132.636 95.7127 132.898 95.894C133.16 96.0752 133.467 96.1786 133.785 96.192C134.489 96.2057 135.19 96.2699 135.885 96.384C136.536 96.542 137.157 96.8011 137.728 97.152C138.241 97.483 138.677 97.9193 139.008 98.432C139.302 98.8314 139.68 99.1614 140.115 99.3984C140.8 99.6538 141.517 99.8131 142.246 99.872C142.453 99.9093 142.65 99.9853 142.829 100.096C142.944 100.179 142.995 100.224 142.989 100.237Z" fill="#794742"/>
<path d="M139.021 91.808C139.021 91.7696 139.194 91.7376 139.443 91.8464C139.605 91.9245 139.745 92.0412 139.85 92.1861C139.956 92.331 140.025 92.4997 140.05 92.6774C140.075 92.8551 140.057 93.0362 139.995 93.2049C139.934 93.3736 139.832 93.5247 139.699 93.6448C139.494 93.824 139.322 93.8368 139.302 93.7984C139.283 93.76 139.405 93.6704 139.526 93.4912C139.681 93.2668 139.752 92.9946 139.725 92.7232C139.671 92.4685 139.528 92.2414 139.322 92.0832C139.155 91.9104 139.014 91.8592 139.021 91.808Z" fill="#794742"/>
<path d="M144.378 199.091L132.704 228.23L144.032 230.221L156.666 205.088L144.378 199.091Z" fill="#AB726C"/>
<path d="M151.289 219.085L144.889 232.16C144.889 232.16 156.013 243.085 155.059 245.6L129.267 234.035L138.451 213.261L151.289 219.085Z" fill="#FFFC47"/>
<path d="M137.389 227.469C137.105 227.428 136.817 227.494 136.58 227.655C136.343 227.816 136.175 228.06 136.109 228.339C136.057 228.621 136.117 228.912 136.276 229.151C136.435 229.39 136.68 229.558 136.96 229.619C137.259 229.657 137.562 229.582 137.809 229.41C138.056 229.237 138.23 228.979 138.298 228.685C138.317 228.387 138.22 228.093 138.026 227.866C137.833 227.639 137.558 227.497 137.261 227.469" fill="#E0E0E0"/>
<g opacity="0.4">
<path opacity="0.4" d="M129.242 234.054L130.17 231.962L154.605 243.84C154.605 243.84 155.526 244.851 155.034 245.606L129.242 234.054Z" fill="black"/>
</g>
<path d="M145.338 232.211C145.28 232.339 144.621 232.115 143.821 232.243C143.021 232.371 142.451 232.749 142.362 232.646C142.272 232.544 142.778 231.904 143.75 231.763C144.723 231.622 145.414 232.109 145.338 232.211Z" fill="#263238"/>
<path d="M147.539 234.547C147.539 234.682 146.899 234.65 146.208 234.989C145.517 235.328 145.165 235.84 145.043 235.776C144.922 235.712 145.158 234.97 145.997 234.56C146.835 234.15 147.59 234.426 147.539 234.547Z" fill="#263238"/>
<path d="M147.629 238.47C147.501 238.47 147.629 237.741 148.269 237.19C148.909 236.64 149.619 236.634 149.626 236.762C149.632 236.89 149.101 237.094 148.589 237.549C148.077 238.003 147.757 238.515 147.629 238.47Z" fill="#263238"/>
<path d="M146.47 229.075C146.368 229.165 145.869 228.73 145.133 228.435C144.397 228.141 143.744 228.141 143.731 228C143.718 227.859 144.448 227.654 145.306 228C146.163 228.346 146.56 228.998 146.47 229.075Z" fill="#263238"/>
<path d="M147.725 226.413C147.254 226.333 146.812 226.13 146.445 225.824C146.016 225.534 145.624 225.193 145.28 224.806C145.074 224.578 144.886 224.334 144.717 224.077C144.605 223.933 144.518 223.77 144.461 223.597C144.417 223.471 144.418 223.334 144.462 223.209C144.506 223.083 144.591 222.976 144.704 222.906C144.806 222.846 144.92 222.81 145.038 222.803C145.156 222.795 145.274 222.815 145.382 222.861C145.546 222.936 145.699 223.033 145.837 223.149C146.083 223.342 146.312 223.556 146.522 223.789C146.868 224.182 147.151 224.627 147.36 225.107C147.6 225.528 147.701 226.014 147.648 226.496C147.571 226.496 147.456 225.984 147.053 225.254C146.82 224.829 146.532 224.438 146.195 224.09C145.995 223.887 145.781 223.699 145.555 223.526C145.312 223.334 145.082 223.226 144.96 223.322C144.838 223.418 144.902 223.373 144.922 223.475C144.966 223.601 145.028 223.72 145.107 223.827C145.264 224.068 145.433 224.301 145.613 224.525C145.927 224.9 146.274 225.247 146.65 225.562C147.283 226.093 147.757 226.342 147.725 226.413Z" fill="#263238"/>
<path d="M147.475 226.515C147.396 226.039 147.472 225.55 147.693 225.12C147.884 224.631 148.159 224.178 148.506 223.782C148.71 223.547 148.937 223.332 149.184 223.142C149.331 223.004 149.511 222.905 149.707 222.856C149.903 222.807 150.109 222.808 150.304 222.861C150.416 222.917 150.51 223.003 150.577 223.109C150.643 223.215 150.68 223.337 150.682 223.462C150.68 223.645 150.652 223.826 150.598 224C150.515 224.308 150.386 224.601 150.214 224.87C149.922 225.319 149.527 225.692 149.062 225.958C148.863 226.099 148.637 226.199 148.399 226.252C148.16 226.305 147.914 226.309 147.674 226.266C148.087 226.089 148.491 225.891 148.883 225.67C149.271 225.396 149.596 225.043 149.837 224.634C149.972 224.397 150.076 224.143 150.144 223.878C150.227 223.59 150.221 223.322 150.106 223.302C149.99 223.292 149.873 223.306 149.763 223.344C149.653 223.381 149.551 223.441 149.466 223.52C149.237 223.687 149.023 223.873 148.826 224.077C148.497 224.429 148.219 224.825 148 225.254C147.629 225.997 147.552 226.56 147.475 226.515Z" fill="#263238"/>
<path d="M122.035 164.147L157.978 146.56C161.058 145.051 164.543 144.576 167.915 145.207C171.287 145.838 174.365 147.54 176.691 150.061C178.864 152.417 180.276 155.373 180.743 158.543C181.21 161.714 180.71 164.951 179.309 167.834L155.462 216.87L135.514 210.56L153.056 173.184L133.318 188.224C127.989 192.281 121.489 194.504 114.79 194.56L109.619 194.605C105.361 194.428 101.221 193.157 97.597 190.915C93.973 188.673 90.9874 185.536 88.928 181.805L122.035 164.147Z" fill="#263238"/>
<path d="M155.462 216.858C155.462 216.858 155.334 216.858 155.091 216.762L154.035 216.448L150.009 215.219L135.469 210.694L135.328 210.65L135.392 210.509C138.912 202.982 143.302 193.606 148.045 183.462C149.728 179.891 151.36 176.422 152.909 173.12L153.152 173.318C144.102 180.064 136 185.664 130.022 189.35C127.701 190.826 125.285 192.147 122.79 193.306C122.115 193.611 121.412 193.849 120.691 194.016C120.504 194.06 120.313 194.085 120.121 194.093H119.929C119.929 194.093 120.192 194.093 120.678 193.952C121.388 193.761 122.08 193.508 122.745 193.197C125.215 192.001 127.609 190.654 129.913 189.165C135.853 185.434 143.923 179.802 152.953 173.056L153.478 172.666L153.203 173.254C151.654 176.55 150.003 180.026 148.352 183.597C143.584 193.734 139.174 203.098 135.635 210.618L135.552 210.432L150.054 215.066L154.061 216.346L155.104 216.698L155.462 216.858Z" fill="#455A64"/>
<path d="M159.814 165.069C158.285 166.072 156.893 167.27 155.674 168.634C154.542 170.072 153.606 171.653 152.89 173.338C152.967 172.798 153.127 172.274 153.363 171.782C154.398 169.339 156.138 167.26 158.362 165.811C158.804 165.489 159.294 165.239 159.814 165.069Z" fill="#455A64"/>
<path d="M83.6159 234.458H135.315C135.66 234.456 135.992 234.588 136.241 234.827C136.489 235.066 136.635 235.393 136.646 235.738C136.651 235.915 136.619 236.092 136.554 236.258C136.49 236.423 136.392 236.574 136.268 236.702C136.144 236.829 135.996 236.931 135.833 237.001C135.669 237.07 135.493 237.106 135.315 237.107H83.6159C83.264 237.106 82.927 236.965 82.6788 236.715C82.4305 236.466 82.2911 236.128 82.2911 235.776C82.2928 235.426 82.4332 235.09 82.6814 234.843C82.9297 234.596 83.2657 234.458 83.6159 234.458Z" fill="#E0E0E0"/>
<path d="M128.518 201.542H88.0768C88.0768 200.514 88.2794 199.495 88.6731 198.545C89.0668 197.594 89.6438 196.731 90.3712 196.003C91.0986 195.276 91.9622 194.699 92.9126 194.305C93.863 193.911 94.8817 193.709 95.9104 193.709H120.678C121.708 193.708 122.727 193.91 123.678 194.303C124.629 194.697 125.494 195.273 126.222 196.001C126.95 196.728 127.527 197.592 127.921 198.543C128.316 199.494 128.518 200.513 128.518 201.542Z" fill="#455A64"/>
<path d="M129.786 201.542H87.1232V203.917H129.786V201.542Z" fill="#E0E0E0"/>
<path d="M90.9183 203.923L80.4863 306.746H82.9439L95.6735 203.923H90.9183Z" fill="#E0E0E0"/>
<path d="M125.67 203.923L136.096 306.694L133.645 306.707L120.922 203.962L125.67 203.923Z" fill="#E0E0E0"/>
<path d="M111.142 203.014L109.382 306.739H106.867L105.766 202.733L111.142 203.014Z" fill="#E0E0E0"/>
<path d="M110.323 90.2848L112.858 82.592L129.581 90.3296L128.813 98.4704L120.48 100.838L112.301 95.8272L110.323 90.2848Z" fill="#FFFC47"/>
<path d="M88.96 181.824C88.2171 181.298 87.615 180.597 87.2065 179.784C86.7981 178.97 86.5958 178.068 86.6175 177.158C86.6175 174.074 89.3696 173.818 89.4592 172.109C90.3744 154.477 92.3712 117.952 93.6896 106.426C95.3472 91.8976 112.371 88.832 112.371 88.832L126.419 92.2816V93.344C131.283 99.5968 133.389 109.024 133.395 116.947L132.755 158.918L88.96 181.824Z" fill="#FFFC47"/>
<path d="M104.723 158.317C104.571 158.571 104.395 158.811 104.198 159.034C103.853 159.482 103.322 160.115 102.656 160.883C101.325 162.426 99.4112 164.493 97.1584 166.643C94.9056 168.794 92.7552 170.611 91.1552 171.866C90.3488 172.506 89.696 172.992 89.2352 173.325C89.0058 173.513 88.757 173.676 88.4928 173.811C88.6859 173.594 88.9003 173.397 89.1328 173.222L90.9824 171.686C92.544 170.406 94.6688 168.544 96.9088 166.4C99.1488 164.256 101.088 162.227 102.464 160.73L104.083 158.944C104.274 158.713 104.488 158.503 104.723 158.317Z" fill="#263238"/>
<g opacity="0.2">
<path opacity="0.2" d="M90.88 172.051C90.9312 169.395 92.9216 167.206 94.8928 165.421C97.1962 163.327 99.6473 161.402 102.227 159.661C102.355 160.941 101.472 162.112 100.614 163.098C97.7315 166.389 94.5428 169.4 91.0912 172.09" fill="black"/>
</g>
<path d="M115.475 89.0113C115.537 88.2453 115.712 87.4927 115.994 86.7777C116.166 86.0308 116.447 85.3129 116.826 84.6465C116.764 85.4125 116.589 86.1651 116.307 86.8801C116.131 87.626 115.851 88.3434 115.475 89.0113Z" fill="#263238"/>
<path d="M121.997 86.8289C121.996 87.582 121.882 88.3307 121.657 89.0497C121.549 89.7916 121.334 90.5138 121.017 91.1937C121.019 90.4406 121.133 89.6919 121.357 88.9729C121.465 88.2309 121.68 87.5087 121.997 86.8289Z" fill="#263238"/>
<path d="M126.854 89.2544C126.875 89.9308 126.817 90.6073 126.682 91.2704C126.66 91.9493 126.561 92.6234 126.387 93.28C126.242 92.605 126.242 91.907 126.387 91.232C126.405 90.5476 126.564 89.8743 126.854 89.2544Z" fill="#263238"/>
<path d="M109.971 130.33C109.74 130.376 109.503 130.393 109.267 130.381C108.806 130.381 108.147 130.381 107.347 130.381C105.715 130.381 103.462 130.381 100.947 130.31C98.4319 130.24 96.1983 130.202 94.5471 130.138C93.7279 130.138 93.0687 130.08 92.6271 130.048C92.388 130.054 92.1491 130.028 91.9167 129.971C92.1511 129.929 92.3892 129.912 92.6271 129.92C93.0879 129.92 93.7471 129.92 94.5471 129.92C96.1791 129.92 98.4319 129.92 100.947 129.99C103.462 130.061 105.696 130.093 107.347 130.157L109.267 130.246C109.504 130.242 109.741 130.27 109.971 130.33Z" fill="#FAFAFA"/>
<path d="M106.406 124.96C106.406 125.056 103.206 125.056 99.2383 124.96C95.2703 124.864 92.0831 124.736 92.0831 124.64C92.0831 124.544 95.2831 124.544 99.2447 124.64C103.206 124.736 106.406 124.87 106.406 124.96Z" fill="#FAFAFA"/>
<g opacity="0.2">
<path opacity="0.2" d="M100.32 116.685C105.44 127.834 111.699 137.843 118.976 147.712C120.851 150.272 122.861 152.832 125.568 154.426C128.275 156.019 130.048 155.597 132.781 153.965C129.754 152.998 128.941 152.685 126.381 150.835C123.885 148.885 121.706 146.56 119.923 143.942C113.523 135.136 107.277 126.067 100.864 117.261" fill="black"/>
</g>
<path d="M153.549 132.538C153.618 131.797 153.82 131.076 154.144 130.406C154.308 130.072 154.558 129.786 154.869 129.58C155.179 129.373 155.538 129.252 155.91 129.229C156.094 129.227 156.276 129.265 156.444 129.34C156.611 129.415 156.761 129.525 156.883 129.663C157.004 129.8 157.094 129.963 157.147 130.139C157.201 130.314 157.215 130.5 157.19 130.682C157.031 131.089 156.789 131.459 156.48 131.77C155.667 132.883 155.744 134.387 155.75 135.763C155.757 137.139 155.584 138.714 154.47 139.539" fill="#AB726C"/>
<path d="M102.771 100.41C101.488 101.306 100.4 102.452 99.5705 103.78C98.7414 105.107 98.189 106.588 97.9463 108.135C97.7037 109.681 97.7758 111.26 98.1584 112.778C98.541 114.295 99.2261 115.72 100.173 116.966L123.558 147.763C126.023 150.969 129.519 153.223 133.456 154.146C137.392 155.069 141.526 154.602 145.158 152.826C148.247 151.311 150.822 148.922 152.563 145.956C154.304 142.989 155.135 139.576 154.95 136.141L149.798 103.757L137.216 104.538L138.406 130.912L118.938 103.245C117.166 100.73 114.47 99.0197 111.44 98.4883C108.41 97.957 105.293 98.6478 102.771 100.41Z" fill="#FFFC47"/>
<path d="M153.177 145.325C150.08 144.602 149.555 144.045 146.464 143.347C145.542 143.13 144.358 142.534 144.768 141.555C144.882 141.307 145.069 141.1 145.305 140.962C145.541 140.825 145.814 140.764 146.086 140.787C147.289 140.89 149.229 141.606 150.393 141.715C150.681 141.715 150.675 141.453 150.547 141.254C148.664 140.686 146.737 140.271 144.787 140.013C144.512 139.976 144.255 139.86 144.045 139.678C143.836 139.497 143.684 139.258 143.608 138.992C143.533 138.725 143.537 138.442 143.62 138.178C143.703 137.913 143.862 137.679 144.077 137.504C144.334 137.372 144.614 137.292 144.902 137.267C146.144 137.446 146.144 137.446 147.462 137.677C151.168 138.317 150.662 137.587 150.662 137.587C150.662 137.306 146.445 136.896 144.262 136.634C143.79 136.638 143.333 136.464 142.982 136.147C142.826 135.912 142.755 135.631 142.782 135.35C142.809 135.069 142.932 134.806 143.13 134.605C143.316 134.388 143.544 134.209 143.8 134.081C144.056 133.952 144.335 133.876 144.621 133.856C147.034 133.811 154.957 134.694 154.957 134.694C154.957 134.694 155.993 136.102 155.673 138.989C155.347 142.15 153.177 145.325 153.177 145.325Z" fill="#AB726C"/>
<path d="M141.971 153.965C141.971 153.965 141.856 153.965 141.638 154.016L140.653 154.118C139.782 154.195 138.502 154.317 136.813 154.336C134.793 154.388 132.778 154.109 130.848 153.51C128.326 152.566 126.067 151.03 124.262 149.03C122.068 146.663 120.006 144.176 118.086 141.581C115.981 138.81 113.779 135.821 111.488 132.653C109.197 129.485 106.829 126.138 104.39 122.65L100.698 117.318C100.384 116.864 100.058 116.41 99.7632 115.949L99.3152 115.238C99.1646 115 99.0299 114.752 98.912 114.496C98.4015 113.478 98.0476 112.388 97.8624 111.264C97.6653 110.141 97.6437 108.995 97.7984 107.866C97.8698 107.307 97.9767 106.753 98.1184 106.208C98.2757 105.672 98.4659 105.146 98.688 104.634C98.9106 104.126 99.1672 103.635 99.456 103.162C99.7511 102.696 100.078 102.251 100.435 101.83C101.132 100.994 101.944 100.261 102.848 99.6544C103.738 99.0604 104.702 98.585 105.715 98.24C106.714 97.9192 107.752 97.732 108.8 97.6832C110.839 97.5905 112.866 98.0317 114.682 98.9632C116.399 99.8596 117.873 101.16 118.976 102.752C120.034 104.271 121.056 105.747 122.042 107.181L127.546 115.13L135.494 126.65L137.645 129.792C137.882 130.144 138.061 130.432 138.195 130.611L138.374 130.899C138.299 130.813 138.229 130.724 138.163 130.63L137.587 129.83L135.424 126.72L127.36 115.27L121.824 107.341L118.739 102.925C117.66 101.378 116.221 100.115 114.547 99.2448C111.839 97.8855 108.702 97.6554 105.824 98.6048C104.84 98.9432 103.904 99.4079 103.04 99.9872C102.158 100.573 101.367 101.284 100.691 102.099C100.347 102.504 100.03 102.932 99.744 103.379C99.4625 103.839 99.2144 104.318 99.0016 104.813C98.781 105.309 98.5949 105.82 98.4448 106.342C98.3046 106.873 98.1999 107.411 98.1312 107.955C97.8609 110.149 98.2392 112.374 99.2192 114.355C99.7375 115.323 100.324 116.254 100.973 117.139L104.666 122.477C107.098 125.965 109.466 129.312 111.744 132.48C114.022 135.648 116.224 138.65 118.31 141.44C120.218 144.034 122.265 146.523 124.442 148.896C126.212 150.882 128.43 152.417 130.912 153.376C132.821 153.982 134.816 154.276 136.819 154.246C138.47 154.246 139.75 154.144 140.621 154.086L141.606 154.022C141.856 153.965 141.971 153.965 141.971 153.965Z" fill="#263238"/>
<path d="M139.744 140.576C140.548 137.12 139.97 133.486 138.131 130.451C138.503 130.823 138.808 131.256 139.034 131.731C139.646 132.844 140.06 134.054 140.256 135.309C140.456 136.561 140.439 137.838 140.205 139.085C140.137 139.604 139.981 140.109 139.744 140.576Z" fill="#263238"/>
<path d="M140.058 107.974C139.759 107.448 139.604 106.852 139.61 106.246C139.505 105.65 139.558 105.037 139.763 104.467C139.888 105.043 139.948 105.632 139.942 106.221C140.047 106.799 140.085 107.387 140.058 107.974Z" fill="#263238"/>
<path d="M143.526 107.654C142.988 106.594 142.83 105.381 143.078 104.218C143.23 104.778 143.316 105.353 143.334 105.933C143.463 106.498 143.527 107.075 143.526 107.654Z" fill="#263238"/>
<path d="M146.963 106.88C146.771 106.437 146.688 105.954 146.72 105.472C146.64 104.996 146.671 104.507 146.81 104.045C146.998 104.489 147.081 104.971 147.053 105.453C147.129 105.929 147.098 106.417 146.963 106.88Z" fill="#263238"/>
<path d="M125.773 114.042C125.824 114.112 121.856 116.954 116.909 120.384C111.962 123.814 107.91 126.534 107.853 126.458C107.795 126.381 111.77 123.539 116.717 120.109C121.664 116.678 125.722 113.965 125.773 114.042Z" fill="#FAFAFA"/>
<path d="M122.675 109.395C122.461 109.598 122.228 109.778 121.978 109.933L120.026 111.302C118.368 112.454 116.096 114.067 113.626 115.891C111.155 117.715 108.954 119.43 107.366 120.672C106.611 121.267 105.984 121.76 105.485 122.144C105.264 122.339 105.024 122.511 104.768 122.656C104.958 122.42 105.172 122.206 105.408 122.016C105.83 121.638 106.451 121.107 107.226 120.461C108.774 119.181 110.957 117.427 113.434 115.597C115.91 113.766 118.208 112.179 119.898 111.072C120.742 110.522 121.427 110.08 121.914 109.792C122.154 109.635 122.409 109.502 122.675 109.395Z" fill="#FAFAFA"/>
<path d="M276.358 269.856H232.813V275.84H276.358V269.856Z" fill="#263238"/>
<path d="M276.429 275.91H232.736V269.779H276.429V275.91ZM232.909 275.763H276.307V269.927H232.883L232.909 275.763Z" fill="#263238"/>
<path d="M236.845 273.843L243.117 304.768H266.31L272.365 275.84L236.845 273.843Z" fill="#263238"/>
<path d="M236.845 301.843L240.192 306.438H268.384L272.365 301.843H236.845Z" fill="#455A64"/>
<path d="M252.947 274.752C252.864 274.752 252.755 260.422 252.704 242.752C252.653 225.082 252.704 210.752 252.768 210.752C252.832 210.752 252.966 225.075 253.011 242.752C253.056 260.429 253.037 274.746 252.947 274.752Z" fill="#263238"/>
<path d="M262.649 238.899C262.621 239.013 262.582 239.125 262.534 239.232L262.144 240.16C262.054 240.365 261.958 240.582 261.856 240.8L261.568 241.613C261.465 241.907 261.35 242.221 261.235 242.547C261.12 242.874 261.024 243.238 260.909 243.61C260.393 245.36 259.987 247.14 259.693 248.941C259.364 251.151 259.151 253.377 259.053 255.61C258.895 259.666 259.008 263.728 259.392 267.77C259.533 269.325 259.673 270.579 259.782 271.45C259.827 271.853 259.859 272.186 259.891 272.448C259.907 272.565 259.907 272.683 259.891 272.8C259.858 272.689 259.832 272.575 259.814 272.461C259.769 272.198 259.718 271.866 259.648 271.462C259.507 270.598 259.334 269.344 259.161 267.789C258.709 263.735 258.563 259.653 258.726 255.578C258.838 253.333 259.073 251.096 259.43 248.877C259.736 247.066 260.163 245.279 260.71 243.526C260.832 243.155 260.928 242.797 261.056 242.464C261.184 242.131 261.299 241.824 261.414 241.536L261.728 240.723C261.837 240.48 261.945 240.262 262.041 240.083L262.483 239.181C262.526 239.08 262.582 238.986 262.649 238.899Z" fill="#263238"/>
<path d="M261.536 227.309C261.501 227.47 261.454 227.628 261.395 227.782L260.941 229.114C260.845 229.408 260.73 229.754 260.608 230.074C260.486 230.394 260.384 230.816 260.262 231.232C260.006 232.064 259.712 233.005 259.45 234.061L259.008 235.718C258.88 236.301 258.746 236.902 258.605 237.53C258.298 238.778 258.08 240.134 257.798 241.549C257.318 244.39 256.896 247.539 256.602 250.854C256.307 254.17 256.211 257.35 256.166 260.237C256.122 263.123 256.166 265.722 256.314 267.917C256.352 269.011 256.422 269.997 256.48 270.861C256.538 271.725 256.582 272.474 256.64 273.082C256.698 273.69 256.717 274.131 256.742 274.483C256.759 274.647 256.759 274.812 256.742 274.976C256.701 274.817 256.675 274.654 256.666 274.49C256.621 274.144 256.57 273.677 256.499 273.094C256.429 272.512 256.352 271.738 256.288 270.874C256.224 270.01 256.128 269.024 256.077 267.93C255.93 265.747 255.872 263.142 255.859 260.25C255.846 257.357 256 254.17 256.275 250.842C256.55 247.514 256.998 244.358 257.498 241.51C257.786 240.09 258.016 238.733 258.33 237.485C258.477 236.845 258.624 236.256 258.758 235.674L259.219 234.016C259.494 232.96 259.802 232.019 260.077 231.194C260.211 230.784 260.333 230.4 260.448 230.042L260.813 229.088L261.318 227.776C261.378 227.614 261.45 227.458 261.536 227.309Z" fill="#263238"/>
<path d="M250.195 277.286C250.188 277.229 250.188 277.171 250.195 277.114C250.195 276.986 250.195 276.826 250.15 276.621C250.15 276.166 250.08 275.533 250.022 274.701C249.92 273.03 249.773 270.65 249.587 267.725C249.21 261.83 248.666 253.69 247.667 244.742C247.162 240.262 246.573 236.019 245.965 232.166C245.638 230.246 245.325 228.41 245.011 226.707C244.698 225.005 244.371 223.418 244.07 221.978C243.77 220.538 243.462 219.232 243.206 218.086C242.95 216.941 242.707 215.962 242.509 215.162L242.054 213.318C242.01 213.12 241.971 212.96 241.946 212.838C241.931 212.782 241.92 212.724 241.914 212.666C241.94 212.717 241.961 212.77 241.978 212.826C242.01 212.954 242.054 213.107 242.112 213.299L242.624 215.136C242.848 215.93 243.104 216.909 243.373 218.048C243.642 219.187 243.981 220.48 244.282 221.926C244.582 223.373 244.922 224.954 245.261 226.662C245.6 228.371 245.901 230.195 246.246 232.122C246.886 235.962 247.469 240.23 247.974 244.71C248.966 253.67 249.478 261.811 249.798 267.712C249.958 270.656 250.074 273.043 250.138 274.694C250.17 275.501 250.195 276.134 250.208 276.614V277.107C250.211 277.167 250.207 277.227 250.195 277.286Z" fill="#263238"/>
<path d="M252.595 217.645C252.403 215.616 250.355 214.08 248.313 214.061C247.293 214.107 246.295 214.384 245.397 214.872C244.499 215.36 243.724 216.045 243.13 216.877C241.956 218.55 241.109 220.431 240.633 222.419C239.257 227.2 238.509 232.224 239.097 237.139C239.686 242.054 241.689 246.938 245.235 250.432C245.811 250.995 246.554 251.565 247.347 251.398C247.772 251.269 248.156 251.03 248.461 250.707C251.935 247.536 254.691 243.659 256.543 239.335C258.395 235.011 259.301 230.341 259.2 225.638C259.149 223.763 258.899 221.798 257.862 220.243C256.826 218.688 254.394 217.043 252.627 217.645" fill="#FFFC47"/>
<path d="M237.37 201.389L234.502 206.586C234.432 206.707 234.349 206.842 234.208 206.854C234.067 206.867 233.946 206.726 233.862 206.598L226.272 194.95L228.019 193.958L237.37 201.389Z" fill="#FFFC47"/>
<g opacity="0.2">
<path opacity="0.2" d="M237.37 201.389L234.502 206.586C234.432 206.707 234.349 206.842 234.208 206.854C234.067 206.867 233.946 206.726 233.862 206.598L226.272 194.95L228.019 193.958L237.37 201.389Z" fill="black"/>
</g>
<path d="M252.8 210.758L226.88 195.482C226.593 195.357 226.365 195.128 226.24 194.842C226.138 194.458 226.426 194.093 226.701 193.805C228.481 191.957 230.638 190.516 233.026 189.578C235.414 188.64 237.976 188.229 240.538 188.371C243.097 188.555 245.573 189.359 247.752 190.713C249.93 192.068 251.747 193.933 253.043 196.147C255.546 200.627 255.603 206.515 252.762 210.758" fill="#FFFC47"/>
<path d="M230.611 190.605C230.722 190.575 230.836 190.56 230.95 190.56C231.174 190.56 231.501 190.509 231.93 190.515C233.133 190.496 234.335 190.59 235.52 190.797C239.468 191.462 243.144 193.243 246.112 195.93C249.081 198.616 251.22 202.096 252.275 205.958C252.6 207.12 252.814 208.309 252.915 209.51C252.944 209.759 252.959 210.009 252.96 210.259C252.937 210.462 252.867 210.657 252.755 210.829C252.836 210.407 252.851 209.975 252.8 209.549C252.649 208.364 252.403 207.193 252.064 206.048C250.982 202.245 248.854 198.822 245.922 196.169C242.991 193.516 239.373 191.739 235.481 191.04C234.307 190.818 233.118 190.689 231.923 190.656C231.078 190.618 230.611 190.63 230.611 190.605Z" fill="#263238"/>
<path d="M249.261 200.211C248.858 200.458 248.429 200.658 247.981 200.806C247.155 201.133 246.003 201.549 244.71 201.958C243.417 202.368 242.24 202.694 241.382 202.906C240.922 203.045 240.448 203.135 239.968 203.174C240.402 202.966 240.857 202.803 241.325 202.688L244.621 201.664L247.904 200.602C248.342 200.427 248.797 200.296 249.261 200.211Z" fill="#263238"/>
<path d="M245.184 189.261C245.541 191.161 245.591 193.105 245.331 195.021C245.206 194.062 245.157 193.095 245.184 192.128C245.112 191.174 245.112 190.215 245.184 189.261Z" fill="#263238"/>
<path d="M226.65 195.2C227.258 194.936 227.888 194.722 228.531 194.56C229.709 194.195 231.347 193.741 233.171 193.28C234.995 192.819 236.666 192.499 237.882 192.288C238.53 192.145 239.189 192.055 239.853 192.019C239.226 192.23 238.584 192.392 237.933 192.506C236.736 192.768 235.078 193.146 233.261 193.581C231.443 194.016 229.792 194.445 228.608 194.752C227.967 194.951 227.313 195.1 226.65 195.2Z" fill="#263238"/>
<path d="M241.85 213.242C239.622 211.552 237.267 211.219 234.47 211.322C231.676 211.509 228.941 212.217 226.406 213.408C222.035 215.328 217.933 218.138 215.328 222.125C212.723 226.112 211.84 231.398 213.76 235.75C213.913 236.205 214.23 236.587 214.65 236.819C215.133 236.959 215.651 236.92 216.109 236.71C221.075 235.091 226.074 233.453 230.637 230.918C235.2 228.384 239.36 224.858 241.811 220.243C242.443 219.155 242.844 217.948 242.989 216.698C243.057 216.074 242.99 215.442 242.793 214.846C242.597 214.25 242.275 213.703 241.85 213.242Z" fill="#FFFC47"/>
<path d="M241.92 212.717C241.809 212.78 241.691 212.829 241.568 212.864L240.525 213.216L239.769 213.472C239.501 213.568 239.206 213.69 238.893 213.811C238.253 214.067 237.536 214.323 236.768 214.694L235.545 215.251C235.129 215.443 234.707 215.68 234.265 215.891C233.363 216.333 232.454 216.896 231.488 217.472C227.322 220.049 223.618 223.307 220.531 227.11C219.84 228 219.161 228.826 218.611 229.67C218.329 230.086 218.035 230.47 217.792 230.867C217.549 231.264 217.312 231.642 217.081 232C216.614 232.717 216.269 233.408 215.942 233.997C215.776 234.298 215.622 234.573 215.488 234.829L215.142 235.546L214.656 236.531C214.607 236.65 214.543 236.762 214.464 236.864C214.499 236.741 214.544 236.621 214.598 236.506L215.033 235.494L215.353 234.765C215.481 234.502 215.629 234.221 215.789 233.92C216.102 233.318 216.429 232.64 216.896 231.891C217.113 231.52 217.35 231.136 217.587 230.739C217.824 230.342 218.118 229.946 218.4 229.523C218.944 228.678 219.616 227.834 220.32 226.963C221.883 225.056 223.595 223.275 225.44 221.638C227.297 220.024 229.281 218.562 231.373 217.267C232.352 216.698 233.293 216.134 234.182 215.699C234.637 215.475 235.065 215.245 235.462 215.059L236.697 214.522C237.478 214.157 238.214 213.914 238.848 213.677C239.168 213.562 239.488 213.446 239.744 213.357L240.505 213.133L241.568 212.826C241.681 212.776 241.799 212.74 241.92 212.717Z" fill="#263238"/>
<path d="M224.493 222.138C222.722 222.818 220.914 223.399 219.078 223.878C217.27 224.459 215.433 224.944 213.574 225.331C215.346 224.65 217.153 224.067 218.989 223.584C220.796 223.002 222.633 222.519 224.493 222.138Z" fill="#263238"/>
<path d="M224.275 234.086C224.175 233.531 224.134 232.967 224.154 232.403C224.122 231.36 224.122 229.914 224.154 228.32C224.186 226.726 224.282 225.293 224.371 224.25C224.383 223.685 224.454 223.123 224.582 222.573C224.634 223.135 224.634 223.7 224.582 224.262C224.544 225.408 224.505 226.822 224.454 228.333C224.403 229.843 224.384 231.258 224.352 232.403C224.372 232.965 224.346 233.528 224.275 234.086Z" fill="#263238"/>
<path d="M234.509 228.87C234.426 228.87 234.15 225.946 233.901 222.33C233.651 218.714 233.517 215.763 233.606 215.757C233.696 215.75 233.965 218.682 234.214 222.304C234.464 225.926 234.598 228.864 234.509 228.87Z" fill="#263238"/>
<path d="M221.766 215.475C222.342 215.406 222.922 215.389 223.501 215.424C224.57 215.424 226.061 215.462 227.68 215.514C229.299 215.565 230.79 215.635 231.859 215.699C232.439 215.702 233.017 215.758 233.587 215.866C233.012 215.935 232.431 215.953 231.853 215.917C230.784 215.917 229.293 215.878 227.674 215.827C226.054 215.776 224.563 215.706 223.494 215.642C222.914 215.639 222.336 215.583 221.766 215.475Z" fill="#263238"/>
<path d="M246.342 251.136C246.317 251.023 246.304 250.907 246.304 250.79C246.304 250.528 246.304 250.202 246.259 249.792C246.221 248.928 246.214 247.674 246.259 246.125C246.304 244.576 246.394 242.739 246.579 240.698C246.765 238.656 247.072 236.422 247.488 234.093C247.904 231.763 248.435 229.568 248.96 227.59C249.485 225.613 250.061 223.846 250.579 222.381C251.098 220.915 251.546 219.744 251.859 218.95L252.256 218.029C252.296 217.919 252.348 217.814 252.41 217.715C252.392 217.832 252.36 217.946 252.314 218.054C252.224 218.298 252.109 218.605 251.974 218.989C251.667 219.802 251.251 220.986 250.758 222.451C250.266 223.917 249.741 225.683 249.216 227.661C248.691 229.638 248.198 231.827 247.77 234.15C247.341 236.474 247.04 238.72 246.848 240.723C246.656 242.726 246.522 244.563 246.464 246.138C246.406 247.712 246.4 248.96 246.4 249.792C246.4 250.195 246.4 250.528 246.4 250.79C246.396 250.908 246.377 251.024 246.342 251.136Z" fill="#263238"/>
<path d="M247.712 234.182C247.407 234.597 247.06 234.979 246.675 235.322C246.003 235.962 245.056 236.883 243.968 237.837C242.88 238.79 241.869 239.61 241.12 240.192C240.729 240.531 240.299 240.823 239.84 241.062C240.182 240.682 240.557 240.333 240.96 240.019L243.744 237.6L246.509 235.162C246.879 234.799 247.281 234.471 247.712 234.182Z" fill="#263238"/>
<path d="M255.904 240.787C255.497 240.31 255.129 239.8 254.803 239.264C254.099 238.227 253.216 236.947 252.243 235.526L249.632 231.834C249.243 231.342 248.894 230.82 248.589 230.272C249.038 230.711 249.447 231.188 249.811 231.699C250.528 232.614 251.488 233.901 252.499 235.354C253.51 236.806 254.381 238.157 254.989 239.142C255.346 239.66 255.652 240.211 255.904 240.787Z" fill="#263238"/>
<path d="M251.61 220.026C251.654 220.096 248.934 221.946 245.53 224.122C242.125 226.298 239.328 228.026 239.283 227.962C239.238 227.898 241.958 226.042 245.363 223.872C248.768 221.702 251.565 219.955 251.61 220.026Z" fill="#263238"/>
<path d="M259.289 228.314C256.473 225.853 253.796 223.238 251.27 220.48C254.087 222.94 256.764 225.555 259.289 228.314Z" fill="#263238"/>
<path d="M261.216 228.147L263.552 227.949C265.211 227.813 266.822 227.322 268.275 226.509C268.982 226.093 269.716 225.723 270.47 225.402C273.363 224.243 276.582 224.448 279.693 224.294C284.797 224.04 289.798 222.765 294.4 220.544C294.668 220.42 294.892 220.217 295.04 219.962C295.526 219.085 294.63 218.31 293.862 217.837C289.926 215.411 285.92 212.954 281.453 211.75C276.986 210.547 271.923 210.746 268.115 213.37C263.635 216.448 262.01 222.771 261.254 228.147" fill="#FFFC47"/>
<path d="M295.04 219.674C294.9 219.629 294.767 219.566 294.643 219.488L293.536 218.912C292.576 218.406 291.193 217.632 289.446 216.819C287.409 215.824 285.289 215.008 283.11 214.381C280.445 213.626 277.656 213.409 274.906 213.741C272.149 214.047 269.544 215.16 267.418 216.941C265.762 218.481 264.438 220.343 263.526 222.413C262.887 223.803 262.321 225.226 261.83 226.675L261.414 227.853C261.376 227.994 261.32 228.129 261.248 228.256C261.272 228.112 261.309 227.971 261.357 227.834C261.446 227.533 261.568 227.136 261.715 226.637C262.166 225.168 262.704 223.727 263.328 222.323C264.223 220.206 265.553 218.3 267.232 216.73C269.388 214.89 272.044 213.738 274.861 213.421C277.653 213.09 280.483 213.328 283.181 214.118C285.373 214.76 287.5 215.604 289.536 216.64C291.277 217.504 292.64 218.278 293.587 218.816L294.669 219.456C294.798 219.519 294.922 219.591 295.04 219.674Z" fill="#263238"/>
<path d="M289.446 222.72C289.395 222.79 286.342 220.8 282.618 218.304C278.893 215.808 275.917 213.702 275.968 213.632C276.019 213.562 279.072 215.552 282.79 218.048C286.509 220.544 289.491 222.618 289.446 222.72Z" fill="#263238"/>
<path d="M286.182 213.44C285.468 213.689 284.718 213.825 283.962 213.843C283.207 213.947 282.441 213.936 281.69 213.811C282.431 213.674 283.182 213.597 283.936 213.581C284.68 213.48 285.431 213.433 286.182 213.44Z" fill="#263238"/>
<path d="M272.806 211.699C272.554 212.268 272.215 212.795 271.802 213.261C271.444 213.8 271.014 214.287 270.522 214.707C270.769 214.134 271.109 213.604 271.526 213.139C271.878 212.597 272.31 212.112 272.806 211.699Z" fill="#263238"/>
<path d="M275.546 224.493C275.03 224.276 274.536 224.008 274.074 223.693C273.19 223.155 272 222.374 270.72 221.446C269.44 220.518 268.326 219.642 267.52 219.002C267.059 218.682 266.63 218.317 266.24 217.914C266.734 218.175 267.203 218.482 267.642 218.829L270.899 221.197C272.179 222.118 273.338 222.925 274.189 223.507C274.666 223.799 275.12 224.129 275.546 224.493Z" fill="#263238"/>
<path d="M264.659 238.08C262.432 237.491 259.77 239.661 259.315 241.92C258.861 244.179 259.699 246.49 260.691 248.57C262.813 253.233 265.964 257.356 269.907 260.627C273.881 263.896 278.843 265.725 283.987 265.818C283.04 261.44 284.237 256.858 283.706 252.422C283.242 248.505 281.464 244.86 278.661 242.085C275.858 239.309 272.197 237.565 268.275 237.139C266.854 236.986 265.21 236.768 264.64 238.08" fill="#FFFC47"/>
<path d="M284.006 265.811C283.896 265.772 283.789 265.722 283.686 265.664C283.393 265.502 283.114 265.313 282.854 265.101C281.919 264.29 281.168 263.289 280.653 262.163C280.294 261.472 279.898 260.723 279.514 259.891L278.31 257.242C277.881 256.266 277.389 255.319 276.838 254.406C276.234 253.436 275.556 252.514 274.81 251.648C273.286 249.856 271.648 248.307 270.227 246.822C268.942 245.53 267.773 244.127 266.733 242.63C266.033 241.613 265.46 240.515 265.024 239.36C264.883 238.944 264.781 238.624 264.73 238.4C264.69 238.291 264.667 238.177 264.659 238.061C264.659 238.061 264.813 238.515 265.139 239.341C265.612 240.469 266.206 241.542 266.912 242.541C267.971 244.006 269.149 245.382 270.432 246.656C271.859 248.122 273.504 249.67 275.046 251.482C275.802 252.36 276.489 253.295 277.101 254.278C277.649 255.206 278.141 256.165 278.573 257.152C278.982 258.093 279.379 258.982 279.744 259.814C280.109 260.646 280.506 261.395 280.845 262.093C281.334 263.207 282.043 264.211 282.931 265.043C283.584 265.6 284.019 265.779 284.006 265.811Z" fill="#263238"/>
<path d="M272.48 262.176C272.486 261.668 272.554 261.163 272.685 260.672C272.858 259.757 273.146 258.496 273.53 257.12C273.914 255.744 274.33 254.528 274.662 253.651C274.81 253.166 275.014 252.7 275.27 252.262C275.179 252.76 275.044 253.248 274.867 253.722C274.592 254.611 274.227 255.84 273.83 257.21C273.434 258.579 273.126 259.821 272.896 260.723C272.798 261.218 272.658 261.704 272.48 262.176Z" fill="#263238"/>
<path d="M283.584 251.43C283.049 251.359 282.522 251.239 282.01 251.072C281.05 250.816 279.725 250.477 278.246 250.144C276.768 249.811 275.43 249.549 274.451 249.37C273.917 249.3 273.39 249.182 272.877 249.018C273.418 249.005 273.958 249.05 274.49 249.152C275.475 249.28 276.832 249.504 278.33 249.837C279.827 250.17 281.139 250.554 282.086 250.861C282.605 250.996 283.107 251.187 283.584 251.43Z" fill="#263238"/>
<path d="M264.205 254.554C264.23 253.967 264.312 253.384 264.448 252.813C264.646 251.75 264.954 250.291 265.37 248.691C265.786 247.091 266.234 245.664 266.579 244.64C266.741 244.077 266.955 243.531 267.219 243.008C267.124 243.584 266.981 244.152 266.79 244.704C266.496 245.741 266.086 247.174 265.67 248.768C265.254 250.362 264.915 251.808 264.659 252.858C264.555 253.435 264.403 254.002 264.205 254.554Z" fill="#263238"/>
<path d="M278.47 242.067C278.47 242.15 275.674 241.926 272.256 241.562C268.838 241.197 266.061 240.838 266.074 240.755C268.152 240.818 270.226 240.984 272.288 241.254C275.712 241.619 278.477 241.984 278.47 242.067Z" fill="#263238"/>
<path d="M276.429 275.84C276.429 275.923 266.649 275.994 254.585 275.994C242.521 275.994 232.736 275.923 232.736 275.84C232.736 275.757 242.515 275.68 254.585 275.68C266.656 275.68 276.429 275.725 276.429 275.84Z" fill="#455A64"/>
<path d="M269.626 288.397C269.626 288.486 263.034 288.557 254.906 288.557C246.778 288.557 240.186 288.486 240.186 288.397C240.186 288.307 246.778 288.243 254.906 288.243C263.034 288.243 269.626 288.314 269.626 288.397Z" fill="#455A64"/>
<path d="M269.37 290.202C269.37 290.285 262.893 290.355 254.906 290.355C246.918 290.355 240.442 290.285 240.442 290.202C240.442 290.118 246.918 290.042 254.906 290.042C262.893 290.042 269.37 290.112 269.37 290.202Z" fill="#455A64"/>
<path d="M269.882 286.918C269.882 287.002 263.066 287.072 254.656 287.072C246.246 287.072 239.43 287.002 239.43 286.918C239.43 286.835 246.246 286.758 254.656 286.758C263.066 286.758 269.882 286.829 269.882 286.918Z" fill="#455A64"/>
<path d="M182.4 30.208C176.691 28.928 169.363 32.896 167.392 38.2336C165.421 43.5712 167.558 50.176 171.872 53.9072C168.518 58.2208 168.378 64.6336 171.232 69.3056C174.086 73.9776 179.552 76.7808 185.024 76.7488C187.762 76.6744 190.454 76.0212 192.921 74.8321C195.389 73.6429 197.577 71.9449 199.341 69.8496C201.67 70.997 204.272 71.474 206.856 71.2274C209.441 70.9808 211.906 70.0202 213.976 68.453C216.046 66.8858 217.639 64.7738 218.577 62.3531C219.516 59.9324 219.762 57.2984 219.29 54.7456C225.741 52.384 229.299 44.1088 226.56 37.76C223.821 31.4112 215.347 28.3712 209.197 31.4816C209.331 24.5888 203.322 18.1568 196.435 17.824C189.549 17.4912 182.944 23.3344 182.4 30.208Z" fill="#FAFAFA"/>
<path d="M182.4 30.208H182.304C182.304 30.176 182.304 30.208 182.304 30.208H182.342H182.432H182.534C182.534 30.2592 182.464 30.208 182.426 30.2528C182.516 28.8712 182.839 27.5147 183.379 26.24C183.886 25.0905 184.545 24.0142 185.338 23.04C186.351 21.7792 187.569 20.6975 188.941 19.84C190.587 18.7905 192.444 18.1174 194.381 17.8688L195.168 17.7792H195.981C196.535 17.7822 197.089 17.8228 197.638 17.9008C198.784 18.0685 199.902 18.3914 200.96 18.8608C201.241 18.9722 201.512 19.1049 201.773 19.2576C202.035 19.4048 202.31 19.5456 202.573 19.7056C203.1 20.0415 203.607 20.4091 204.09 20.8064C204.586 21.2076 205.06 21.6349 205.51 22.0864C205.952 22.5757 206.366 23.0884 206.752 23.6224C208.419 25.9009 209.316 28.6519 209.312 31.4752L209.12 31.3536C211.972 30.01 215.219 29.7661 218.24 30.6688C221.528 31.5451 224.35 33.6567 226.118 36.5632C226.983 38.1391 227.496 39.884 227.621 41.6773C227.746 43.4707 227.48 45.2698 226.842 46.9504C226.219 48.708 225.253 50.3243 224 51.7056C222.719 53.1284 221.118 54.2254 219.328 54.9056L219.437 54.72C219.909 57.4392 219.587 60.2368 218.509 62.7776C217.421 65.4038 215.56 67.6363 213.171 69.1776C211.104 70.4669 208.746 71.2159 206.313 71.3557C203.881 71.4955 201.453 71.0216 199.251 69.9776L199.45 69.9392C196.446 73.4606 192.313 75.8311 187.757 76.6464C183.447 77.3731 179.023 76.3929 175.424 73.9136C173.735 72.7566 172.298 71.2696 171.2 69.5424C170.168 67.8759 169.497 66.012 169.229 64.0704C168.96 62.225 169.051 60.345 169.498 58.5344C169.928 56.8226 170.701 55.2158 171.77 53.8112V53.984C169.803 52.2257 168.311 50.0005 167.43 47.5136C167.019 46.378 166.75 45.1956 166.63 43.9936C166.498 42.8632 166.518 41.7204 166.688 40.5952C166.957 38.5539 167.818 36.6361 169.165 35.0784C170.29 33.7765 171.635 32.6825 173.139 31.8464C174.337 31.1728 175.617 30.6586 176.947 30.3168C177.923 30.0709 178.924 29.9378 179.93 29.92C180.549 29.9102 181.169 29.9594 181.779 30.0672C182.189 30.1376 182.419 30.1888 182.419 30.1888L181.779 30.1056C181.169 30.0146 180.552 29.9782 179.936 29.9968C178.937 30.0276 177.945 30.1714 176.979 30.4256C175.664 30.7855 174.401 31.3148 173.222 32C171.743 32.8312 170.42 33.9141 169.312 35.2C167.997 36.7378 167.161 38.6265 166.906 40.6336C166.741 41.74 166.724 42.8634 166.854 43.9744C166.988 45.164 167.265 46.3331 167.68 47.456C168.552 49.9014 170.027 52.0872 171.968 53.8112L172.058 53.888L171.987 53.984C170.944 55.363 170.19 56.9393 169.773 58.6176C169.34 60.3957 169.253 62.2403 169.517 64.0512C169.779 65.9506 170.432 67.7748 171.437 69.408C172.517 71.0979 173.928 72.552 175.584 73.6832C179.121 76.1095 183.463 77.0664 187.693 76.352C192.182 75.5483 196.254 73.2117 199.213 69.7408L199.296 69.6448L199.411 69.7024C201.562 70.7186 203.933 71.179 206.308 71.0415C208.683 70.904 210.986 70.1729 213.005 68.9152C215.339 67.4008 217.157 65.2106 218.214 62.6368C219.273 60.1584 219.589 57.4257 219.123 54.7712V54.6368L219.258 54.592C220.96 53.9028 222.494 52.8541 223.755 51.5176C225.015 50.1811 225.972 48.5883 226.56 46.848C227.187 45.2117 227.451 43.4585 227.333 41.7102C227.214 39.9618 226.717 38.2601 225.875 36.7232C224.15 33.8877 221.4 31.8251 218.195 30.9632C215.244 30.0751 212.069 30.3099 209.28 31.6224L209.082 31.7184V31.5008C209.083 28.7412 208.209 26.0523 206.586 23.8208C206.206 23.2933 205.798 22.7869 205.363 22.304C204.925 21.8509 204.462 21.4235 203.974 21.024C203.5 20.6311 203.002 20.2677 202.483 19.936C202.221 19.776 201.958 19.6352 201.696 19.488C201.439 19.3367 201.172 19.204 200.896 19.0912C199.855 18.6149 198.755 18.2812 197.626 18.0992C197.087 18.0244 196.544 17.9838 196 17.9776H195.2L194.419 18.0608C192.509 18.2954 190.675 18.9512 189.05 19.9808C186.608 21.4655 184.665 23.6448 183.469 26.24C182.905 27.4979 182.544 28.8371 182.4 30.208C182.445 30.208 182.502 30.1632 182.522 30.208H182.413H182.33H182.285H182.4Z" fill="#263238"/>
<path d="M193.158 58.4448C194.489 59.2022 196.029 59.5119 197.549 59.328C198.459 59.1841 199.332 58.8591 200.115 58.3721C200.897 57.8851 201.574 57.2461 202.106 56.4928C202.623 55.7975 202.995 55.0051 203.2 54.1628C203.404 53.3205 203.437 52.4456 203.296 51.5904C203.121 50.7396 202.774 49.9337 202.275 49.2225C201.777 48.5114 201.137 47.9101 200.397 47.456C199.203 46.6889 197.802 46.309 196.384 46.368L196.499 40.608C196.485 40.3502 196.375 40.1072 196.189 39.9277C196.004 39.7481 195.757 39.6452 195.499 39.6395C195.241 39.6339 194.99 39.7259 194.797 39.8971C194.604 40.0684 194.483 40.3063 194.458 40.5632L194.31 47.552C194.308 47.7103 194.342 47.867 194.41 48.0101C194.478 48.1532 194.577 48.2789 194.701 48.3776C194.824 48.4758 194.969 48.5437 195.124 48.5759C195.278 48.6082 195.438 48.6038 195.59 48.5632C196.22 48.4087 196.875 48.3859 197.513 48.496C198.152 48.6061 198.761 48.8469 199.302 49.2032C199.805 49.5068 200.24 49.9098 200.581 50.3874C200.922 50.865 201.162 51.4072 201.286 51.9808C201.378 52.5648 201.35 53.1613 201.205 53.7343C201.06 54.3073 200.8 54.8451 200.442 55.3152C200.072 55.8483 199.597 56.3007 199.047 56.6451C198.497 56.9894 197.883 57.2185 197.242 57.3184C194.81 57.6576 192.122 55.8528 191.405 53.3824C191.328 53.1218 191.15 52.9026 190.911 52.773C190.672 52.6434 190.392 52.6139 190.131 52.6912C189.871 52.7684 189.652 52.946 189.522 53.1848C189.392 53.4237 189.363 53.7042 189.44 53.9648C190.053 55.8833 191.386 57.4893 193.158 58.4448Z" fill="#333318"/>
<path d="M196.89 36.3904C196.901 36.1627 196.844 35.9367 196.727 35.7412C196.61 35.5457 196.437 35.3894 196.231 35.2922C196.024 35.1949 195.794 35.1609 195.568 35.1947C195.343 35.2285 195.133 35.3284 194.964 35.4818C194.795 35.6352 194.676 35.8352 194.621 36.0565C194.566 36.2778 194.578 36.5104 194.655 36.7249C194.733 36.9394 194.872 37.1261 195.056 37.2614C195.239 37.3966 195.459 37.4744 195.686 37.4848C195.991 37.4987 196.289 37.3913 196.514 37.1862C196.74 36.9811 196.875 36.6949 196.89 36.3904Z" fill="#333318"/>
<path d="M158.874 62.2208C157.775 62.0991 156.665 62.3056 155.684 62.8141C154.703 63.3226 153.894 64.1104 153.36 65.0781C152.826 66.0457 152.591 67.1499 152.684 68.2512C152.777 69.3524 153.194 70.4015 153.883 71.2659C154.572 72.1303 155.501 72.7713 156.553 73.108C157.606 73.4448 158.735 73.4621 159.797 73.1579C160.86 72.8537 161.808 72.2416 162.523 71.3988C163.238 70.556 163.688 69.5203 163.814 68.4224C163.928 66.9555 163.481 65.5002 162.564 64.3495C161.647 63.1988 160.329 62.4381 158.874 62.2208Z" fill="#FAFAFA"/>
<path d="M158.906 62.2272C159.367 62.2431 159.822 62.3406 160.25 62.5152C161.248 62.9203 162.119 63.586 162.772 64.4427C163.425 65.2995 163.836 66.3158 163.962 67.3856C164.053 68.4018 163.847 69.4228 163.366 70.3232C163.111 70.8082 162.788 71.2543 162.406 71.648C162.015 72.0652 161.564 72.4231 161.069 72.7104C160.039 73.3624 158.817 73.6424 157.607 73.5039C156.396 73.3653 155.269 72.8166 154.413 71.9488C153.992 71.5603 153.634 71.1091 153.35 70.6112C153.063 70.145 152.847 69.6379 152.71 69.1072C152.441 68.1225 152.47 67.0802 152.794 66.112C153.155 65.0972 153.783 64.1985 154.612 63.5104C155.441 62.8223 156.44 62.3702 157.504 62.2016C157.957 62.1187 158.421 62.1187 158.874 62.2016C158.874 62.2464 158.381 62.1632 157.523 62.3104C156.312 62.5436 155.204 63.1501 154.355 64.0448C153.774 64.6503 153.337 65.3787 153.075 66.176C152.782 67.0936 152.764 68.0771 153.024 69.0048C153.312 70.0331 153.877 70.9627 154.656 71.6928C155.463 72.5066 156.524 73.021 157.663 73.1513C158.802 73.2816 159.951 73.02 160.922 72.4096C161.396 72.1406 161.828 71.8019 162.202 71.4048C162.566 71.0353 162.874 70.6149 163.117 70.1568C163.584 69.3142 163.791 68.3521 163.712 67.392C163.627 66.5524 163.358 65.7418 162.925 65.0176C162.297 63.9578 161.356 63.1192 160.23 62.6176C159.797 62.4605 159.355 62.3301 158.906 62.2272Z" fill="#263238"/>
<path d="M147.981 74.3936C147.507 74.3411 147.028 74.4301 146.605 74.6495C146.182 74.8688 145.833 75.2087 145.603 75.626C145.372 76.0434 145.271 76.5197 145.311 76.9947C145.351 77.4698 145.531 77.9223 145.828 78.2951C146.125 78.668 146.526 78.9445 146.98 79.0898C147.434 79.235 147.921 79.2425 148.379 79.1114C148.838 78.9802 149.247 78.7161 149.555 78.3526C149.863 77.9891 150.057 77.5423 150.112 77.0688C150.161 76.436 149.968 75.8081 149.573 75.3117C149.177 74.8153 148.609 74.4872 147.981 74.3936Z" fill="#FAFAFA"/>
<path d="M147.994 74.3999C148.197 74.371 148.403 74.4022 148.589 74.4895C149.033 74.6586 149.423 74.9458 149.717 75.3203C150.01 75.6947 150.195 76.1422 150.253 76.6143C150.297 77.07 150.206 77.5286 149.99 77.9327C149.752 78.394 149.379 78.7719 148.921 79.0162C148.463 79.2606 147.941 79.3598 147.425 79.3008C146.909 79.2418 146.424 79.0273 146.032 78.6858C145.641 78.3443 145.363 77.8919 145.235 77.3887C145.118 76.9461 145.133 76.4786 145.28 76.0447C145.418 75.6768 145.637 75.3444 145.92 75.0719C146.318 74.676 146.835 74.4218 147.392 74.3487C147.593 74.3109 147.8 74.3263 147.994 74.3935C147.994 74.4255 147.776 74.3935 147.418 74.4767C146.91 74.5928 146.449 74.858 146.093 75.2383C145.828 75.5041 145.637 75.8354 145.542 76.1985C145.446 76.5617 145.449 76.9436 145.549 77.3055C145.652 77.7561 145.892 78.1637 146.237 78.472C146.581 78.7802 147.013 78.9741 147.472 79.0267C147.931 79.0794 148.395 78.9883 148.8 78.766C149.206 78.5437 149.532 78.2011 149.734 77.7855C149.914 77.4554 150.002 77.0836 149.991 76.7081C149.98 76.3326 149.869 75.9668 149.67 75.6479C149.415 75.1933 149.023 74.8306 148.55 74.6111C148.205 74.4511 147.987 74.4255 147.994 74.3999Z" fill="#263238"/>
</svg>
