<svg width="374" height="374" viewBox="0 0 374 374" fill="none" xmlns="http://www.w3.org/2000/svg">
<path d="M327.691 235.209L326.876 233.892C320.144 222.814 308.011 216.172 295.198 216.92C293.548 217.025 291.908 217.25 290.291 217.593C284.433 218.925 278.994 221.684 274.459 225.625C269.925 229.567 266.434 234.567 264.298 240.183C261.83 246.818 261.134 254.462 256.444 259.728C250.341 266.587 239.988 266.797 230.87 266.512C221.752 266.228 211.422 266.512 205.311 273.357C201.511 277.665 200.299 283.829 200.606 289.573C201.421 304.855 212.073 318.521 225.612 325.313C239.151 332.105 255.105 332.71 269.931 329.726C290.695 325.537 310.442 314.018 322.291 296.29C334.139 278.563 337.183 254.372 327.691 235.209Z" fill="#FFFC47"/>
<path d="M121.715 76.7374L122.051 77.8668C123.385 82.5381 125.973 86.7552 129.533 90.0608C133.093 93.3664 137.49 95.6345 142.247 96.6192C143.481 96.8659 144.731 97.0209 145.987 97.083C150.587 97.2415 155.155 96.2613 159.285 94.2296C163.415 92.1978 166.98 89.1774 169.661 85.4366C172.788 81.001 174.8 75.4807 179.303 72.4962C185.167 68.6141 192.887 70.4766 199.574 72.4962C206.261 74.5158 213.995 76.3409 219.845 72.4289C223.502 69.9829 225.597 65.6969 226.502 61.3435C228.888 49.8393 223.652 37.6319 214.96 29.92C206.268 22.2081 194.562 18.7 182.998 17.952C166.804 17.0469 149.922 21.692 137.632 32.5231C125.342 43.3541 118.431 60.6853 121.715 76.7374Z" fill="#FFFC47"/>
<path d="M95.1231 314.235C113.593 314.235 128.566 299.262 128.566 280.792C128.566 262.322 113.593 247.349 95.1231 247.349C76.653 247.349 61.6801 262.322 61.6801 280.792C61.6801 299.262 76.653 314.235 95.1231 314.235Z" fill="#FFFC47"/>
<path d="M348.089 348.201C348.089 348.306 274.284 348.396 183.268 348.396C92.2508 348.396 18.4307 348.306 18.4307 348.201C18.4307 348.097 92.2209 348.007 183.268 348.007C274.314 348.007 348.089 348.089 348.089 348.201Z" fill="#263238"/>
<path d="M260.85 149.907C272.545 149.907 282.026 140.426 282.026 128.731C282.026 117.036 272.545 107.555 260.85 107.555C249.155 107.555 239.674 117.036 239.674 128.731C239.674 140.426 249.155 149.907 260.85 149.907Z" fill="#333318"/>
<g opacity="0.8">
<path opacity="0.8" d="M260.85 149.907C272.545 149.907 282.026 140.426 282.026 128.731C282.026 117.036 272.545 107.555 260.85 107.555C249.155 107.555 239.674 117.036 239.674 128.731C239.674 140.426 249.155 149.907 260.85 149.907Z" fill="white"/>
</g>
<path d="M299.118 123.966C299.042 123.783 298.984 123.592 298.946 123.398C298.848 122.986 298.714 122.448 298.542 121.759C298.452 121.408 298.362 121.011 298.258 120.585C298.153 120.159 297.966 119.702 297.809 119.209C297.652 118.715 297.457 118.192 297.27 117.638C297.173 117.361 297.068 117.077 296.971 116.785C296.874 116.494 296.709 116.209 296.567 115.918C296.018 114.608 295.378 113.338 294.652 112.118C294.248 111.459 293.904 110.749 293.425 110.083C292.947 109.417 292.453 108.744 291.929 108.041C287.371 102.046 281.073 97.6049 273.895 95.3251L271.472 94.6295C270.724 94.3976 269.893 94.3153 269.145 94.1583C267.751 93.8815 266.339 93.7065 264.919 93.6347L263.969 93.5524H263.064H261.404C260.888 93.5524 260.401 93.5524 259.96 93.5973L258.748 93.7244L257.08 93.8965C256.884 93.9131 256.686 93.9131 256.489 93.8965C256.677 93.8393 256.87 93.8017 257.065 93.7843L258.733 93.5449L259.945 93.3803C260.427 93.3309 260.911 93.3059 261.396 93.3055L263.064 93.2532H263.977L264.934 93.3205C266.368 93.3768 267.795 93.5368 269.205 93.7992C269.953 93.9488 270.761 94.0311 271.554 94.2555L274 94.9437C281.263 97.2066 287.633 101.691 292.214 107.764L293.71 109.836C294.188 110.51 294.533 111.235 294.929 111.893C295.654 113.131 296.287 114.421 296.821 115.753L297.21 116.628C297.308 116.927 297.405 117.212 297.502 117.496C297.682 118.057 297.854 118.588 298.018 119.082C298.183 119.575 298.355 120.032 298.437 120.473C298.519 120.914 298.609 121.303 298.691 121.67C298.834 122.358 298.938 122.911 299.028 123.323C299.077 123.534 299.107 123.749 299.118 123.966Z" fill="#333318"/>
<path d="M281.996 128.731C281.996 128.731 281.996 128.619 281.996 128.387L281.929 127.384C281.929 127.16 281.914 126.911 281.884 126.636C281.884 126.367 281.794 126.075 281.742 125.754C281.65 125.016 281.503 124.285 281.3 123.57C280.804 121.595 280.012 119.706 278.952 117.967C277.564 115.647 275.743 113.615 273.589 111.983C270.987 110 267.956 108.658 264.74 108.064C261.048 107.383 257.242 107.7 253.714 108.984C252.775 109.321 251.86 109.724 250.976 110.188C250.528 110.427 250.109 110.711 249.667 110.973C249.225 111.23 248.802 111.52 248.403 111.841C247.568 112.465 246.773 113.142 246.025 113.868C245.284 114.63 244.596 115.442 243.968 116.299C242.666 118.053 241.656 120.005 240.976 122.081C239.529 126.376 239.529 131.026 240.976 135.321C241.656 137.396 242.666 139.349 243.968 141.103C244.594 141.959 245.279 142.772 246.017 143.534C246.766 144.262 247.563 144.939 248.403 145.561C248.804 145.881 249.227 146.173 249.667 146.436C250.109 146.698 250.528 146.974 250.976 147.184C251.859 147.651 252.774 148.054 253.714 148.388C257.242 149.671 261.048 149.989 264.74 149.308C267.671 148.756 270.453 147.59 272.902 145.887C275.351 144.184 277.413 141.983 278.952 139.427C280.012 137.688 280.804 135.8 281.3 133.825C281.501 133.108 281.651 132.378 281.749 131.64C281.794 131.319 281.854 131.027 281.884 130.758C281.914 130.489 281.884 130.242 281.929 130.01L281.996 129.008C281.996 128.783 281.996 128.663 281.996 128.663C281.996 128.663 281.996 128.783 281.996 129.008C281.996 129.232 281.996 129.583 281.959 130.017C281.959 130.242 281.959 130.491 281.959 130.765C281.959 131.042 281.884 131.334 281.839 131.655C281.755 132.4 281.618 133.137 281.428 133.862C280.95 135.861 280.171 137.776 279.116 139.539C277.588 142.153 275.52 144.41 273.05 146.16C270.579 147.911 267.764 149.114 264.792 149.69C261.038 150.395 257.164 150.083 253.572 148.785C252.617 148.444 251.687 148.036 250.789 147.565C250.333 147.326 249.899 147.042 249.458 146.773C249.006 146.51 248.573 146.215 248.164 145.89C247.312 145.258 246.502 144.571 245.74 143.833C244.983 143.058 244.28 142.231 243.639 141.357C242.312 139.57 241.279 137.583 240.579 135.47C239.113 131.102 239.113 126.375 240.579 122.006C241.274 119.894 242.307 117.908 243.639 116.127C244.876 114.38 246.392 112.848 248.127 111.594C248.549 111.267 248.994 110.97 249.458 110.704C249.899 110.442 250.333 110.158 250.789 109.911C251.689 109.443 252.618 109.036 253.572 108.692C258.234 107.001 263.34 106.994 268.006 108.671C272.673 110.349 276.605 113.606 279.124 117.877C280.18 119.643 280.96 121.56 281.435 123.562C281.626 124.284 281.763 125.019 281.846 125.761C281.891 126.083 281.944 126.382 281.966 126.651C281.989 126.921 281.966 127.175 281.966 127.399C281.966 127.833 281.966 128.147 282.004 128.409C282.041 128.671 281.996 128.731 281.996 128.731Z" fill="#333318"/>
<path d="M285.25 128.731C285.25 128.731 285.25 128.596 285.205 128.334C285.16 128.073 285.16 127.676 285.13 127.182C285.13 126.921 285.13 126.636 285.078 126.33C285.025 126.023 284.981 125.679 284.921 125.305C284.812 124.456 284.642 123.616 284.412 122.792C283.84 120.513 282.927 118.334 281.704 116.329C279.933 113.38 277.558 110.838 274.734 108.872C271.911 106.906 268.704 105.56 265.323 104.922C264.31 104.736 263.285 104.618 262.256 104.57C261.733 104.57 261.209 104.503 260.678 104.511L259.077 104.593C258.808 104.593 258.531 104.593 258.262 104.645L257.454 104.772C256.916 104.862 256.37 104.922 255.824 105.034C254.729 105.28 253.652 105.597 252.6 105.984C251.515 106.37 250.46 106.835 249.443 107.375C248.927 107.652 248.441 107.974 247.947 108.273C247.437 108.573 246.949 108.911 246.488 109.283C245.52 109.998 244.6 110.778 243.736 111.617C242.884 112.498 242.092 113.435 241.365 114.422C239.865 116.447 238.698 118.7 237.909 121.094C236.248 126.05 236.248 131.412 237.909 136.368C238.697 138.763 239.867 141.016 241.372 143.04C242.098 144.028 242.89 144.965 243.743 145.845C244.607 146.682 245.524 147.461 246.488 148.179C246.961 148.553 247.461 148.89 247.984 149.189C248.493 149.488 248.979 149.817 249.48 150.094C250.502 150.627 251.559 151.09 252.645 151.477C253.7 151.865 254.779 152.182 255.876 152.427C256.414 152.54 256.96 152.607 257.499 152.697L258.307 152.816C258.576 152.816 258.853 152.816 259.122 152.869L260.723 152.951C261.254 152.951 261.778 152.951 262.301 152.891C263.331 152.847 264.355 152.73 265.368 152.54C268.749 151.901 271.956 150.555 274.779 148.589C277.603 146.623 279.978 144.082 281.749 141.133C282.972 139.127 283.885 136.948 284.457 134.67C284.687 133.845 284.857 133.006 284.966 132.157C285.025 131.79 285.093 131.409 285.123 131.139C285.153 130.87 285.16 130.541 285.175 130.287C285.175 129.785 285.235 129.404 285.25 129.127C285.265 128.85 285.295 128.731 285.295 128.731C285.295 128.731 285.295 128.865 285.295 129.127C285.295 129.389 285.295 129.793 285.257 130.287L285.22 131.147C285.22 131.461 285.13 131.798 285.078 132.172C284.983 133.027 284.826 133.875 284.607 134.707C284.059 137.011 283.158 139.216 281.936 141.245C280.168 144.243 277.781 146.829 274.934 148.832C272.088 150.835 268.847 152.209 265.428 152.861C264.402 153.052 263.365 153.175 262.324 153.228C261.793 153.228 261.261 153.303 260.723 153.295L259.092 153.213C258.823 153.213 258.546 153.213 258.277 153.16L257.454 153.041C256.908 152.951 256.347 152.884 255.801 152.772C254.686 152.527 253.589 152.207 252.517 151.814C251.418 151.42 250.346 150.953 249.308 150.415C248.792 150.131 248.291 149.809 247.775 149.503C247.252 149.198 246.752 148.856 246.279 148.478C245.296 147.755 244.364 146.965 243.489 146.114C242.621 145.22 241.813 144.268 241.073 143.264C239.541 141.21 238.351 138.922 237.55 136.488C235.859 131.452 235.859 126.002 237.55 120.967C238.347 118.534 239.534 116.248 241.065 114.197C241.806 113.194 242.613 112.242 243.482 111.347C244.357 110.497 245.289 109.707 246.272 108.984C246.745 108.606 247.245 108.264 247.768 107.959C248.276 107.66 248.777 107.331 249.264 107.054C250.299 106.511 251.371 106.041 252.472 105.648C253.545 105.258 254.642 104.938 255.756 104.69C256.302 104.578 256.863 104.518 257.409 104.428L258.225 104.301C258.501 104.264 258.778 104.301 259.047 104.249L260.678 104.174C261.209 104.174 261.748 104.219 262.279 104.234C263.321 104.289 264.358 104.414 265.383 104.608C268.801 105.261 272.041 106.633 274.887 108.635C277.733 110.637 280.121 113.221 281.891 116.217C283.11 118.247 284.011 120.452 284.562 122.754C284.781 123.587 284.938 124.434 285.033 125.29C285.085 125.664 285.145 126.001 285.175 126.315C285.205 126.629 285.175 126.921 285.212 127.175C285.212 127.676 285.212 128.058 285.25 128.334C285.287 128.611 285.25 128.731 285.25 128.731Z" fill="#333318"/>
<path d="M298.901 132.688C298.94 132.983 298.94 133.282 298.901 133.578C298.901 134.154 298.774 134.984 298.617 136.001C297.772 141.323 295.801 146.403 292.834 150.901C292.266 151.762 291.78 152.397 291.413 152.884C291.244 153.128 291.048 153.354 290.83 153.557C290.777 153.557 291.533 152.495 292.603 150.759C293.991 148.489 295.172 146.098 296.133 143.616C297.087 141.132 297.821 138.569 298.325 135.956C298.706 133.944 298.833 132.68 298.901 132.688Z" fill="#333318"/>
<path d="M248.523 33.4954H245.352V36.4351H248.523V33.4954Z" fill="#333318"/>
<path d="M277.942 39.9955H274.77V42.9352H277.942V39.9955Z" fill="#333318"/>
<path d="M251.979 33.4954H249.735V42.5088H251.979V33.4954Z" fill="#333318"/>
<path d="M255.113 33.4954H252.869V42.5088H255.113V33.4954Z" fill="#333318"/>
<path d="M258.247 33.4954H256.003V42.5088H258.247V33.4954Z" fill="#333318"/>
<path d="M261.381 33.4954H259.137V42.5088H261.381V33.4954Z" fill="#333318"/>
<path d="M277.366 36.8764H263.057V39.0157H277.366V36.8764Z" fill="#333318"/>
<path d="M260.304 47.9169C260.409 47.9169 260.498 58.172 260.498 70.8206C260.498 83.4693 260.409 93.7169 260.304 93.7169C260.199 93.7169 260.102 83.4693 260.102 70.8206C260.102 58.172 260.192 47.9169 260.304 47.9169Z" fill="#333318"/>
<path d="M304.436 171.576C304.361 171.651 299.552 167.215 293.695 161.658C287.838 156.1 283.148 151.537 283.223 151.455C283.298 151.373 288.107 155.823 293.964 161.373C299.821 166.924 304.503 171.494 304.436 171.576Z" fill="#333318"/>
<path d="M322.306 169.489H308.909V179.153H322.306V169.489Z" fill="#333318"/>
<path d="M338.687 169.489H325.29V179.153H338.687V169.489Z" fill="#333318"/>
<path d="M303.478 175.907H273.656V207.884H303.478V175.907Z" fill="#333318"/>
<g opacity="0.8">
<path opacity="0.8" d="M303.478 175.907H273.656V207.884H303.478V175.907Z" fill="white"/>
</g>
<path d="M284.973 179.879H276.326V181.502H284.973V179.879Z" fill="#333318"/>
<path d="M288.571 179.879H286.11V181.502H288.571V179.879Z" fill="#333318"/>
<path d="M298.287 179.812H289.566V181.435H298.287V179.812Z" fill="#333318"/>
<path d="M282.407 182.692H276.326V184.315H282.407V182.692Z" fill="#333318"/>
<path d="M284.973 186.282H276.326V187.905H284.973V186.282Z" fill="#333318"/>
<path d="M288.571 186.282H286.11V187.905H288.571V186.282Z" fill="#333318"/>
<path d="M295.46 189.042H292.999V190.665H295.46V189.042Z" fill="#333318"/>
<path d="M299.993 189.042H297.532V190.665H299.993V189.042Z" fill="#333318"/>
<path d="M292.042 189.094H283.32V190.717H292.042V189.094Z" fill="#333318"/>
<path d="M282.407 189.094H276.326V190.717H282.407V189.094Z" fill="#333318"/>
<path d="M284.973 193.066H276.326V194.689H284.973V193.066Z" fill="#333318"/>
<path d="M288.571 193.066H286.11V194.689H288.571V193.066Z" fill="#333318"/>
<path d="M298.287 192.999H289.566V194.622H298.287V192.999Z" fill="#333318"/>
<path d="M282.407 195.879H276.326V197.502H282.407V195.879Z" fill="#333318"/>
<path d="M284.973 199.469H276.326V201.092H284.973V199.469Z" fill="#333318"/>
<path d="M288.571 199.469H286.11V201.092H288.571V199.469Z" fill="#333318"/>
<path d="M295.46 202.229H292.999V203.852H295.46V202.229Z" fill="#333318"/>
<path d="M299.993 202.229H297.532V203.852H299.993V202.229Z" fill="#333318"/>
<path d="M292.042 202.282H283.32V203.905H292.042V202.282Z" fill="#333318"/>
<path d="M282.407 202.282H276.326V203.905H282.407V202.282Z" fill="#333318"/>
<path d="M330.923 151.455H308.191V163.64H330.923V151.455Z" fill="#333318"/>
<g opacity="0.8">
<path opacity="0.8" d="M330.923 151.455H308.191V163.64H330.923V151.455Z" fill="white"/>
</g>
<path d="M316.815 153.235H310.226V154.469H316.815V153.235Z" fill="#333318"/>
<path d="M319.561 153.235H317.683V154.469H319.561V153.235Z" fill="#333318"/>
<path d="M326.966 153.183H320.316V154.417H326.966V153.183Z" fill="#333318"/>
<path d="M314.863 155.382H310.226V156.616H314.863V155.382Z" fill="#333318"/>
<path d="M316.815 158.112H310.226V159.346H316.815V158.112Z" fill="#333318"/>
<path d="M319.561 158.112H317.683V159.346H319.561V158.112Z" fill="#333318"/>
<path d="M322.201 160.259H315.551V161.493H322.201V160.259Z" fill="#333318"/>
<path d="M314.863 160.259H310.226V161.493H314.863V160.259Z" fill="#333318"/>
<path d="M315.604 104.877C315.497 104.888 315.389 104.888 315.282 104.877H314.347L310.884 104.937L299.118 104.997L299.305 104.855C298.983 106.066 298.646 107.323 298.31 108.595C297.696 110.839 297.113 113.083 296.574 115.057V115.147H296.492L287.337 118.73L284.689 119.732C284.374 119.86 284.052 119.967 283.724 120.054C284.017 119.883 284.325 119.738 284.644 119.62L287.254 118.521L296.358 114.781L296.245 114.908C296.776 112.896 297.352 110.712 297.951 108.43C298.295 107.151 298.631 105.894 298.953 104.69L298.991 104.548H299.14L310.906 104.615L314.369 104.675H315.304C315.414 104.726 315.515 104.794 315.604 104.877Z" fill="#333318"/>
<path d="M315.716 105.999C316.356 105.999 316.875 105.48 316.875 104.84C316.875 104.199 316.356 103.68 315.716 103.68C315.075 103.68 314.556 104.199 314.556 104.84C314.556 105.48 315.075 105.999 315.716 105.999Z" fill="#333318"/>
<path d="M261.396 203.037C261.396 203.266 261.328 203.491 261.201 203.681C261.073 203.872 260.892 204.02 260.68 204.108C260.468 204.196 260.235 204.219 260.01 204.174C259.785 204.129 259.579 204.019 259.417 203.857C259.255 203.695 259.144 203.488 259.099 203.263C259.055 203.038 259.078 202.805 259.165 202.593C259.253 202.382 259.402 202.2 259.592 202.073C259.783 201.946 260.007 201.878 260.237 201.878C260.544 201.878 260.839 202 261.056 202.217C261.274 202.435 261.396 202.73 261.396 203.037Z" fill="#333318"/>
<path d="M260.476 167.597C260.588 167.597 260.67 175.503 260.67 185.257C260.67 195.011 260.588 202.917 260.476 202.917C260.364 202.917 260.281 195.011 260.281 185.257C260.281 175.503 260.371 167.597 260.476 167.597Z" fill="#333318"/>
<path d="M341.043 102.88C341.043 102.992 337.206 103.074 332.478 103.074C327.751 103.074 323.921 102.992 323.921 102.88C323.921 102.768 327.751 102.685 332.478 102.685C337.206 102.685 341.043 102.775 341.043 102.88Z" fill="#333318"/>
<path d="M339.988 105.214C339.988 105.318 336.391 105.408 331.955 105.408C327.519 105.408 323.921 105.318 323.921 105.214C323.921 105.109 327.512 105.019 331.955 105.019C336.398 105.019 339.988 105.101 339.988 105.214Z" fill="#333318"/>
<path d="M339.083 107.712C336.563 107.909 334.034 107.974 331.506 107.906C328.976 107.974 326.444 107.909 323.921 107.712C326.445 107.519 328.976 107.454 331.506 107.518C334.034 107.454 336.563 107.519 339.083 107.712Z" fill="#333318"/>
<path d="M341.716 110.016C341.716 110.128 337.729 110.21 332.815 110.21C327.901 110.21 323.921 110.128 323.921 110.016C323.921 109.904 327.901 109.821 332.815 109.821C337.729 109.821 341.716 109.911 341.716 110.016Z" fill="#333318"/>
<path d="M341.043 112.26C341.043 112.364 337.206 112.454 332.478 112.454C327.751 112.454 323.921 112.364 323.921 112.26C323.921 112.155 327.751 112.065 332.478 112.065C337.206 112.065 341.043 112.155 341.043 112.26Z" fill="#333318"/>
<path d="M339.988 114.586C339.988 114.698 336.391 114.781 331.955 114.781C327.519 114.781 323.921 114.698 323.921 114.586C323.921 114.474 327.512 114.392 331.955 114.392C336.398 114.392 339.988 114.481 339.988 114.586Z" fill="#333318"/>
<path d="M339.083 117.084C336.563 117.277 334.034 117.342 331.506 117.279C328.976 117.342 326.445 117.277 323.921 117.084C326.445 116.892 328.976 116.827 331.506 116.89C334.034 116.827 336.563 116.892 339.083 117.084Z" fill="#333318"/>
<path d="M341.716 119.396C341.716 119.508 337.729 119.59 332.815 119.59C327.901 119.59 323.921 119.508 323.921 119.396C323.921 119.284 327.901 119.201 332.815 119.201C337.729 119.201 341.716 119.291 341.716 119.396Z" fill="#333318"/>
<path d="M351.38 104.72C351.314 104.53 351.262 104.335 351.223 104.137C351.07 103.631 350.754 103.189 350.326 102.88C350.015 102.656 349.654 102.511 349.275 102.459C348.895 102.407 348.509 102.449 348.149 102.581C347.844 102.697 347.567 102.878 347.338 103.11C347.108 103.343 346.931 103.622 346.818 103.928C346.705 104.235 346.659 104.562 346.684 104.888C346.708 105.214 346.801 105.531 346.958 105.817C347.115 106.104 347.331 106.354 347.592 106.55C347.854 106.746 348.154 106.884 348.473 106.954C348.792 107.024 349.123 107.026 349.442 106.958C349.762 106.89 350.063 106.754 350.326 106.56C350.754 106.251 351.07 105.809 351.223 105.303C351.262 105.105 351.314 104.91 351.38 104.72C351.435 104.923 351.435 105.138 351.38 105.341C351.269 105.912 350.956 106.425 350.498 106.784C350.154 107.055 349.748 107.235 349.317 107.307C348.885 107.379 348.442 107.341 348.029 107.196C347.517 107.015 347.074 106.68 346.76 106.236C346.446 105.793 346.278 105.263 346.278 104.72C346.278 104.177 346.446 103.647 346.76 103.203C347.074 102.76 347.517 102.425 348.029 102.244C348.443 102.098 348.886 102.06 349.318 102.133C349.75 102.206 350.156 102.389 350.498 102.663C350.959 103.02 351.273 103.534 351.38 104.107C351.436 104.307 351.436 104.519 351.38 104.72Z" fill="#333318"/>
<path d="M351.171 118.244C351.139 118.051 351.124 117.856 351.126 117.66C351.126 117.227 351.126 116.718 351.081 116.105C351.044 114.788 351.007 112.963 350.992 110.824L351.171 111.003H346.683L346.878 110.809V112.858C346.878 113.531 346.878 114.182 346.878 114.81C346.878 116.045 346.878 117.197 346.878 118.214L346.728 118.064C348.067 118.064 349.174 118.117 349.959 118.139C350.382 118.14 350.804 118.165 351.223 118.214C350.837 118.268 350.447 118.293 350.057 118.289C349.309 118.289 348.134 118.349 346.728 118.363H346.571V118.206C346.571 117.189 346.571 116.037 346.571 114.803C346.571 114.175 346.571 113.524 346.571 112.851V110.801C346.399 110.973 346.81 110.562 346.773 110.607H351.261H351.44V110.786C351.44 113.03 351.388 114.885 351.351 116.187C351.351 116.778 351.351 117.279 351.306 117.683C351.288 117.875 351.243 118.064 351.171 118.244Z" fill="#333318"/>
<path d="M225.941 136.577C225.971 136.637 225.993 136.699 226.008 136.764L226.15 137.325C226.278 137.841 226.457 138.559 226.674 139.472C227.396 142.08 228.368 144.613 229.576 147.034C231.469 150.574 233.899 153.799 236.779 156.594C240.319 160.001 244.502 162.668 249.084 164.44C253.67 166.216 258.568 167.046 263.483 166.879C264.051 166.879 264.612 166.879 265.159 166.811L266.774 166.617L268.345 166.43C268.861 166.348 269.362 166.25 269.841 166.153C271.669 165.769 273.466 165.251 275.219 164.605C277.756 163.659 280.183 162.443 282.46 160.977C283.268 160.461 283.873 160.027 284.285 159.735L284.756 159.399L284.988 159.324C284.944 159.375 284.894 159.421 284.838 159.459L284.397 159.825C284.001 160.139 283.402 160.573 282.602 161.134C280.342 162.65 277.918 163.904 275.376 164.874C273.616 165.541 271.808 166.076 269.968 166.475C269.474 166.58 268.966 166.684 268.472 166.767L266.886 166.961L265.248 167.163C264.689 167.221 264.127 167.248 263.565 167.245C258.598 167.434 253.645 166.606 249.009 164.814C244.378 163.021 240.154 160.317 236.585 156.863C231.654 152.163 228.184 146.14 226.592 139.517C226.397 138.597 226.248 137.871 226.135 137.348C226.091 137.116 226.053 136.929 226.031 136.779C226.008 136.63 225.941 136.577 225.941 136.577Z" fill="#333318"/>
<path d="M108.617 146.593C120.312 146.593 129.793 137.112 129.793 125.417C129.793 113.722 120.312 104.241 108.617 104.241C96.9219 104.241 87.4412 113.722 87.4412 125.417C87.4412 137.112 96.9219 146.593 108.617 146.593Z" fill="#333318"/>
<g opacity="0.8">
<path opacity="0.8" d="M108.617 146.593C120.312 146.593 129.793 137.112 129.793 125.417C129.793 113.722 120.312 104.241 108.617 104.241C96.9219 104.241 87.4412 113.722 87.4412 125.417C87.4412 137.112 96.9219 146.593 108.617 146.593Z" fill="white"/>
</g>
<path d="M144.745 131.409C144.755 131.473 144.755 131.539 144.745 131.603L144.641 132.172C144.529 132.695 144.379 133.421 144.184 134.341C143.516 136.982 142.573 139.547 141.372 141.993C139.502 145.592 137.077 148.874 134.184 151.717C130.614 155.172 126.386 157.876 121.752 159.668C117.119 161.461 112.168 162.288 107.203 162.099C106.639 162.102 106.074 162.074 105.513 162.017L103.882 161.815L102.296 161.62C101.78 161.538 101.272 161.433 100.8 161.329C98.9607 160.929 97.1531 160.394 95.3924 159.728C92.849 158.761 90.4246 157.506 88.1668 155.988C87.3664 155.449 86.768 154.993 86.3716 154.679L85.9228 154.312L85.7806 154.185C85.7806 154.185 85.8405 154.185 85.9527 154.282L86.4164 154.619C86.8278 154.911 87.4412 155.367 88.249 155.861C92.1008 158.348 96.3788 160.103 100.868 161.037C101.361 161.134 101.863 161.239 102.364 161.314L103.942 161.501L105.558 161.695C106.104 161.777 106.665 161.732 107.233 161.762C112.148 161.929 117.046 161.1 121.632 159.324C126.203 157.531 130.37 154.846 133.892 151.425C136.773 148.632 139.201 145.407 141.088 141.866C142.3 139.446 143.272 136.913 143.99 134.303C144.214 133.391 144.394 132.673 144.514 132.157C144.573 131.932 144.626 131.745 144.663 131.596L144.745 131.409Z" fill="#333318"/>
<path d="M72.1447 118.797C72.1644 118.601 72.1968 118.406 72.2419 118.214C72.3242 117.802 72.4364 117.249 72.5785 116.561C72.6533 116.194 72.7356 115.813 72.8328 115.364C72.9301 114.915 73.1021 114.474 73.2517 113.973C73.4013 113.472 73.5808 112.948 73.7678 112.387L74.0521 111.519L74.441 110.644C74.9785 109.314 75.6109 108.024 76.3335 106.784C76.7299 106.126 77.0815 105.401 77.5527 104.727L79.0487 102.655C83.6234 96.5856 89.9853 92.1019 97.2401 89.8348L99.686 89.1466C100.479 88.9222 101.279 88.8399 102.042 88.6903C103.45 88.4275 104.875 88.2675 106.306 88.2116L107.263 88.1443H108.176L109.851 88.1967C110.367 88.1967 110.854 88.1967 111.295 88.2715L112.507 88.436L114.182 88.6754C114.377 88.6952 114.57 88.7327 114.758 88.7876C114.562 88.8043 114.364 88.8043 114.167 88.7876L112.492 88.6155L111.28 88.4884C110.846 88.4285 110.36 88.4884 109.836 88.4435H108.183H107.271L106.321 88.5258C104.901 88.5985 103.489 88.7735 102.095 89.0494C101.347 89.2065 100.554 89.2887 99.7683 89.5206L97.3522 90.2162C90.1746 92.5003 83.8749 96.9404 79.3105 102.932L77.8145 104.974C77.3358 105.64 76.9842 106.351 76.5803 107.009C75.8548 108.23 75.215 109.499 74.6654 110.809L74.269 111.676L73.9698 112.529L73.4237 114.1C73.2667 114.594 73.0722 115.035 72.9749 115.476C72.8777 115.918 72.7805 116.299 72.6907 116.658C72.5261 117.339 72.3915 117.877 72.2868 118.289C72.2542 118.462 72.2066 118.632 72.1447 118.797Z" fill="#333318"/>
<path d="M87.4412 125.417C87.4412 125.417 87.4412 125.305 87.4412 125.081C87.4412 124.856 87.4412 124.497 87.4412 124.071C87.4412 123.846 87.4412 123.6 87.4412 123.323C87.4412 123.046 87.516 122.754 87.5608 122.433C87.6445 121.691 87.782 120.956 87.9722 120.234C88.4465 118.234 89.2261 116.319 90.2836 114.556C91.8302 111.941 93.9187 109.688 96.4088 107.947C98.8989 106.207 101.733 105.02 104.72 104.466C108.473 103.76 112.347 104.07 115.94 105.363C116.896 105.707 117.828 106.115 118.73 106.583C119.179 106.829 119.613 107.114 120.061 107.375C120.513 107.638 120.943 107.936 121.348 108.266C122.204 108.895 123.017 109.582 123.779 110.323C124.53 111.099 125.23 111.923 125.873 112.791C127.203 114.576 128.236 116.564 128.933 118.678C130.404 123.045 130.404 127.774 128.933 132.142C128.235 134.255 127.202 136.243 125.873 138.028C125.23 138.896 124.53 139.721 123.779 140.497C123.019 141.237 122.209 141.924 121.355 142.554C120.946 142.882 120.514 143.179 120.061 143.444C119.613 143.706 119.179 143.99 118.73 144.237C117.828 144.705 116.896 145.112 115.94 145.456C112.346 146.748 108.473 147.058 104.72 146.354C101.752 145.785 98.9385 144.592 96.4674 142.852C93.9963 141.112 91.924 138.866 90.3883 136.263C89.3308 134.501 88.5512 132.586 88.077 130.586C87.8831 129.865 87.7455 129.129 87.6656 128.387C87.6207 128.065 87.5683 127.766 87.5459 127.497C87.5234 127.227 87.5459 126.973 87.5459 126.749C87.5459 126.322 87.5459 126.001 87.5459 125.739C87.5459 125.477 87.5459 125.395 87.5459 125.395C87.552 125.509 87.552 125.624 87.5459 125.739L87.6207 126.749C87.6207 126.966 87.6207 127.212 87.6656 127.497C87.7104 127.781 87.7553 128.065 87.8002 128.379C87.8967 129.117 88.0467 129.847 88.249 130.563C88.7423 132.54 89.5343 134.429 90.5977 136.166C93.3938 140.781 97.8466 144.154 103.046 145.595C108.246 147.037 113.8 146.439 118.573 143.923C119.014 143.683 119.441 143.407 119.882 143.175C120.323 142.913 120.746 142.621 121.146 142.3C121.983 141.68 122.778 141.006 123.525 140.28C124.266 139.516 124.953 138.701 125.582 137.841C126.885 136.089 127.896 134.136 128.574 132.059C130.02 127.765 130.02 123.115 128.574 118.82C127.893 116.744 126.883 114.792 125.582 113.038C124.949 112.184 124.262 111.372 123.525 110.607C122.778 109.881 121.983 109.206 121.146 108.587C120.746 108.266 120.323 107.974 119.882 107.712C119.441 107.45 119.014 107.173 118.573 106.927C117.687 106.467 116.773 106.065 115.835 105.722C111.241 104.057 106.21 104.042 101.605 105.68C97.0006 107.318 93.1091 110.506 90.5977 114.698C89.5354 116.439 88.7435 118.33 88.249 120.308C88.0475 121.022 87.8975 121.75 87.8002 122.485C87.7553 122.807 87.6955 123.098 87.6656 123.375C87.6356 123.652 87.6656 123.891 87.6207 124.123L87.5459 125.133C87.5159 125.229 87.481 125.324 87.4412 125.417Z" fill="#333318"/>
<path d="M84.2173 125.417C84.2173 125.417 84.2173 125.29 84.2173 125.028C84.2173 124.766 84.2173 124.362 84.2173 123.861V123.009C84.2173 122.694 84.3071 122.35 84.3519 121.984C84.4493 121.128 84.6093 120.28 84.8307 119.448C85.3787 117.143 86.2768 114.936 87.4935 112.903C89.2666 109.908 91.656 107.324 94.5034 105.323C97.3507 103.322 100.591 101.948 104.009 101.294C105.034 101.099 106.072 100.977 107.114 100.928C107.645 100.928 108.176 100.853 108.714 100.86L110.337 100.943C110.614 100.943 110.891 100.943 111.16 100.995L111.983 101.115C112.529 101.204 113.083 101.264 113.636 101.384C114.748 101.629 115.842 101.947 116.912 102.334C118.013 102.728 119.085 103.198 120.121 103.74C120.645 104.017 121.139 104.346 121.655 104.653C122.176 104.957 122.676 105.297 123.151 105.67C124.13 106.4 125.062 107.192 125.941 108.041C126.809 108.931 127.614 109.881 128.349 110.883C129.879 112.939 131.068 115.227 131.872 117.66C133.568 122.695 133.568 128.147 131.872 133.181C131.072 135.601 129.885 137.874 128.357 139.913C126.91 141.934 125.141 143.702 123.121 145.149C122.646 145.523 122.146 145.862 121.625 146.167C121.109 146.473 120.615 146.802 120.091 147.079C119.056 147.622 117.983 148.091 116.882 148.485C115.812 148.873 114.718 149.19 113.606 149.435C113.053 149.548 112.499 149.615 111.953 149.705L111.13 149.824C110.861 149.824 110.584 149.824 110.308 149.877L108.684 149.959C108.146 149.959 107.615 149.914 107.084 149.892C106.042 149.843 105.004 149.72 103.979 149.525C100.561 148.871 97.3208 147.498 94.4734 145.496C91.6261 143.495 89.2367 140.911 87.4636 137.916C86.2477 135.883 85.3497 133.676 84.8007 131.371C84.5794 130.539 84.4194 129.691 84.322 128.835C84.2771 128.469 84.2098 128.087 84.1874 127.811V126.958C84.1874 126.457 84.1874 126.068 84.1874 125.791C84.1874 125.514 84.1874 125.395 84.1874 125.395C84.1874 125.395 84.1874 125.529 84.1874 125.791L84.2697 126.951C84.2697 127.205 84.2697 127.489 84.322 127.803C84.3744 128.117 84.4193 128.454 84.4716 128.821C84.5835 129.67 84.756 130.509 84.9877 131.334C85.5547 133.615 86.4652 135.797 87.688 137.804C89.2894 140.471 91.3866 142.807 93.8665 144.686C96.8717 146.96 100.369 148.497 104.077 149.174C105.087 149.362 106.109 149.482 107.136 149.533C107.66 149.533 108.191 149.6 108.722 149.592L110.322 149.51C110.592 149.51 110.861 149.51 111.13 149.458L111.938 149.331C112.477 149.241 113.03 149.181 113.569 149.069C114.666 148.823 115.745 148.506 116.8 148.119C117.882 147.725 118.936 147.26 119.957 146.728C120.473 146.451 120.959 146.129 121.453 145.823C121.976 145.526 122.476 145.191 122.949 144.82C124.927 143.397 126.658 141.659 128.073 139.674C129.574 137.649 130.741 135.396 131.528 133.002C133.196 128.047 133.196 122.682 131.528 117.728C130.74 115.332 129.57 113.079 128.065 111.056C127.336 110.07 126.544 109.133 125.694 108.251C124.834 107.41 123.917 106.63 122.949 105.917C122.474 105.546 121.974 105.208 121.453 104.907C120.944 104.608 120.45 104.286 119.957 104.009C118.936 103.477 117.882 103.012 116.8 102.618C115.745 102.231 114.666 101.914 113.569 101.668C113.03 101.556 112.477 101.496 111.938 101.406L111.13 101.279C110.861 101.279 110.592 101.279 110.322 101.227L108.722 101.145C108.191 101.145 107.66 101.189 107.143 101.204C103.189 101.429 99.3487 102.618 95.9588 104.668C92.5689 106.717 89.732 109.565 87.6955 112.963C86.4725 114.968 85.562 117.147 84.9952 119.426C84.7611 120.252 84.5911 121.094 84.4866 121.946C84.4267 122.313 84.3594 122.65 84.3295 122.964C84.2996 123.278 84.3295 123.562 84.2771 123.816L84.1949 124.976C84.211 125.122 84.2185 125.27 84.2173 125.417Z" fill="#333318"/>
<path d="M72.3616 127.519C72.4289 127.519 72.5561 128.776 72.9375 130.788C73.9315 136.032 75.8786 141.049 78.6822 145.591C79.7593 147.326 80.5148 148.351 80.4624 148.388C80.2403 148.187 80.0421 147.961 79.8715 147.715C79.5125 147.266 79.0188 146.593 78.4503 145.733C76.9703 143.491 75.7364 141.096 74.7701 138.589C73.7987 136.085 73.0942 133.485 72.6683 130.833C72.5112 129.815 72.4139 128.985 72.384 128.409C72.3471 128.114 72.3395 127.816 72.3616 127.519Z" fill="#333318"/>
<path d="M123.001 211.968H126.173V209.029H123.001V211.968Z" fill="#333318"/>
<path d="M93.5748 218.461H96.7463V215.521H93.5748V218.461Z" fill="#333318"/>
<path d="M119.538 218.042H121.782V209.029H119.538V218.042Z" fill="#333318"/>
<path d="M116.404 218.042H118.648V209.029H116.404V218.042Z" fill="#333318"/>
<path d="M113.277 218.042H115.521V209.029H113.277V218.042Z" fill="#333318"/>
<path d="M110.136 218.042H112.38V209.029H110.136V218.042Z" fill="#333318"/>
<path d="M94.1507 214.549H108.46V212.41H94.1507V214.549Z" fill="#333318"/>
<path d="M110.966 75.4583C111.158 77.6343 111.223 79.8197 111.16 82.0032C111.223 84.1868 111.158 86.3722 110.966 88.5482C110.773 86.3722 110.708 84.1868 110.771 82.0032C110.708 79.8197 110.773 77.6343 110.966 75.4583Z" fill="#333318"/>
<path d="M66.8338 166.408C66.759 166.333 71.4489 161.762 77.3058 156.205C83.1626 150.647 87.9797 146.212 88.0545 146.294C88.1293 146.376 83.4394 150.931 77.5825 156.489C71.7257 162.047 66.9086 166.482 66.8338 166.408Z" fill="#333318"/>
<path d="M48.9642 173.992H62.3608V164.328H48.9642V173.992Z" fill="#333318"/>
<path d="M48.8444 187.643H62.2411V177.979H48.8444V187.643Z" fill="#333318"/>
<path d="M48.8444 201.893H62.2411V192.228H48.8444V201.893Z" fill="#333318"/>
<path d="M125.701 35.515H95.8787V67.492H125.701V35.515Z" fill="#333318"/>
<g opacity="0.8">
<path opacity="0.8" d="M125.701 35.515H95.8787V67.492H125.701V35.515Z" fill="white"/>
</g>
<path d="M107.188 61.8895H98.5415V63.5127H107.188V61.8895Z" fill="#333318"/>
<path d="M110.786 61.8895H108.325V63.5127H110.786V61.8895Z" fill="#333318"/>
<path d="M120.503 61.9568H111.781V63.58H120.503V61.9568Z" fill="#333318"/>
<path d="M104.623 59.077H98.5415V60.7002H104.623V59.077Z" fill="#333318"/>
<path d="M107.188 55.4866H98.5415V57.1098H107.188V55.4866Z" fill="#333318"/>
<path d="M110.786 55.4866H108.325V57.1098H110.786V55.4866Z" fill="#333318"/>
<path d="M117.675 52.7265H115.214V54.3497H117.675V52.7265Z" fill="#333318"/>
<path d="M122.216 52.7265H119.755V54.3497H122.216V52.7265Z" fill="#333318"/>
<path d="M114.257 52.6741H105.535V54.2973H114.257V52.6741Z" fill="#333318"/>
<path d="M104.623 52.6741H98.5415V54.2973H104.623V52.6741Z" fill="#333318"/>
<path d="M107.188 48.7023H98.5415V50.3254H107.188V48.7023Z" fill="#333318"/>
<path d="M110.786 48.7023H108.325V50.3254H110.786V48.7023Z" fill="#333318"/>
<path d="M120.503 48.7696H111.781V50.3928H120.503V48.7696Z" fill="#333318"/>
<path d="M104.623 45.8898H98.5415V47.5129H104.623V45.8898Z" fill="#333318"/>
<path d="M107.188 42.2994H98.5415V43.9225H107.188V42.2994Z" fill="#333318"/>
<path d="M110.786 42.2994H108.325V43.9225H110.786V42.2994Z" fill="#333318"/>
<path d="M117.675 39.5392H115.214V41.1624H117.675V39.5392Z" fill="#333318"/>
<path d="M122.216 39.5392H119.755V41.1624H122.216V39.5392Z" fill="#333318"/>
<path d="M114.257 39.4869H105.535V41.11H114.257V39.4869Z" fill="#333318"/>
<path d="M104.623 39.4869H98.5415V41.11H104.623V39.4869Z" fill="#333318"/>
<path d="M55.6587 99.7084C55.766 99.6801 55.8769 99.6674 55.9878 99.671H56.9153L60.3861 99.6112L72.1446 99.484H72.2942V99.6261L73.2965 103.366C73.8949 105.61 74.4784 107.854 75.0095 109.836L74.8972 109.709L84.0004 113.449L86.6035 114.549C86.9221 114.666 87.23 114.812 87.5235 114.983C87.1953 114.896 86.873 114.789 86.5586 114.661L83.9481 113.696L74.8 110.098L74.7102 110.061V109.971C74.1717 107.966 73.5883 105.782 72.9824 103.508C72.6383 102.222 72.3092 100.965 71.9875 99.7683L72.1671 99.9104L60.4085 99.843L56.9378 99.7832H56.0102C55.8899 99.7769 55.7712 99.7517 55.6587 99.7084Z" fill="#333318"/>
<path d="M55.5465 100.83C56.1869 100.83 56.7059 100.311 56.7059 99.671C56.7059 99.0307 56.1869 98.5116 55.5465 98.5116C54.9062 98.5116 54.3871 99.0307 54.3871 99.671C54.3871 100.311 54.9062 100.83 55.5465 100.83Z" fill="#333318"/>
<path d="M109.874 197.868C109.874 198.098 109.942 198.322 110.069 198.513C110.197 198.703 110.378 198.852 110.59 198.94C110.801 199.027 111.034 199.05 111.259 199.006C111.484 198.961 111.691 198.85 111.853 198.688C112.015 198.526 112.126 198.319 112.17 198.095C112.215 197.87 112.192 197.637 112.104 197.425C112.017 197.213 111.868 197.032 111.677 196.904C111.487 196.777 111.262 196.709 111.033 196.709C110.881 196.708 110.729 196.737 110.588 196.795C110.447 196.853 110.319 196.939 110.211 197.046C110.103 197.154 110.018 197.282 109.96 197.424C109.902 197.565 109.873 197.716 109.874 197.868Z" fill="#333318"/>
<path d="M110.786 162.428C110.891 162.428 110.981 170.342 110.981 180.088C110.981 189.835 110.891 197.749 110.786 197.749C110.682 197.749 110.592 189.85 110.592 180.088C110.592 170.327 110.704 162.428 110.786 162.428Z" fill="#333318"/>
<path d="M39.1803 98.6462H37.602V127.639H39.1803V98.6462Z" fill="#333318"/>
<path d="M42.262 98.6462H40.3995V106.373H42.262V98.6462Z" fill="#333318"/>
<path d="M44.8576 100.352H42.9951V102.139H44.8576V100.352Z" fill="#333318"/>
<path d="M62.5029 112.492C62.5029 112.566 58.8377 112.626 54.3273 112.626C49.8168 112.626 46.1516 112.566 46.1516 112.492C46.1516 112.417 49.8093 112.357 54.3273 112.357C58.8452 112.357 62.5029 112.417 62.5029 112.492Z" fill="#333318"/>
<path d="M62.5029 114.444C62.5029 114.519 58.8377 114.579 54.3273 114.579C49.8168 114.579 46.1516 114.541 46.1516 114.444C46.1516 114.347 49.8093 114.309 54.3273 114.309C58.8452 114.309 62.5029 114.392 62.5029 114.444Z" fill="#333318"/>
<path d="M62.4356 110.599C62.4356 110.674 58.7704 110.726 54.2599 110.726C49.7495 110.726 46.0843 110.674 46.0843 110.599C46.0843 110.524 49.742 110.465 54.2599 110.465C58.7778 110.465 62.4356 110.524 62.4356 110.599Z" fill="#333318"/>
<path d="M117.743 89.4084C117.744 89.6084 117.686 89.8044 117.576 89.9714C117.466 90.1384 117.309 90.269 117.125 90.3466C116.94 90.4242 116.737 90.4453 116.541 90.4071C116.344 90.369 116.164 90.2735 116.022 90.1325C115.88 89.9916 115.783 89.8117 115.743 89.6156C115.704 89.4195 115.723 89.2161 115.799 89.0311C115.875 88.8462 116.005 88.688 116.171 88.5767C116.337 88.4655 116.533 88.406 116.733 88.406C116.865 88.405 116.996 88.4302 117.119 88.4802C117.241 88.5301 117.353 88.6038 117.446 88.697C117.54 88.7901 117.615 88.901 117.666 89.023C117.717 89.1451 117.743 89.2761 117.743 89.4084Z" fill="#333318"/>
<path d="M112.2 351.56L123.929 327.377H253.25L268.667 351.56C215.252 357.746 162.451 357.806 112.2 351.62" fill="#263238"/>
<path d="M188.937 331.147C224.518 331.147 253.363 329.369 253.363 327.175C253.363 324.982 224.518 323.203 188.937 323.203C153.356 323.203 124.512 324.982 124.512 327.175C124.512 329.369 153.356 331.147 188.937 331.147Z" fill="#455A64"/>
<path d="M190.029 329.988C218.377 329.988 241.357 328.729 241.357 327.175C241.357 325.622 218.377 324.363 190.029 324.363C161.682 324.363 138.702 325.622 138.702 327.175C138.702 328.729 161.682 329.988 190.029 329.988Z" fill="#FAFAFA"/>
<path d="M192.528 356.654C192.415 356.654 192.333 350.917 192.333 343.833C192.333 336.75 192.415 331.02 192.528 331.02C192.64 331.02 192.722 336.757 192.722 343.833C192.722 350.909 192.632 356.654 192.528 356.654Z" fill="#455A64"/>
<path d="M258.247 336.922C258.085 336.965 257.92 336.993 257.753 337.004L256.325 337.168L250.961 337.715L232.553 339.472L232.695 339.383L228.843 345.576L228.791 345.666H228.686H227.19L202.708 346.174L195.288 346.264H192.745C192.685 346.274 192.625 346.274 192.565 346.264H192.745H193.268L195.28 346.189L202.708 345.972L227.197 345.404H228.693L228.529 345.494L232.396 339.285L232.441 339.203H232.538L250.954 337.587L256.325 337.146L257.761 337.049C257.919 336.994 258.082 336.951 258.247 336.922Z" fill="#455A64"/>
<path d="M246.563 337.999C245.849 335.084 245.386 332.114 245.179 329.12C245.601 330.563 245.896 332.039 246.062 333.533C246.355 335.005 246.523 336.499 246.563 337.999Z" fill="#455A64"/>
<path d="M142.868 354.455C142.785 354.294 142.718 354.127 142.666 353.954L142.18 352.517L140.527 347.326L140.669 347.439L131.805 346.586C127.317 346.13 123.218 345.703 120.263 345.367L116.77 344.955C116.342 344.92 115.917 344.852 115.499 344.753C115.928 344.734 116.359 344.752 116.785 344.806L120.293 345.097C123.285 345.359 127.332 345.741 131.842 346.197L140.699 347.117H140.811V347.222C141.432 349.346 141.948 351.126 142.307 352.458C142.471 353.049 142.606 353.535 142.711 353.954C142.785 354.113 142.838 354.282 142.868 354.455Z" fill="#455A64"/>
<path d="M192.528 336.922H192.371H191.922H190.194L183.754 336.981L161.957 337.049H162.024L156.108 339.293L152.899 340.497H152.854H152.801L129.202 337.572L122.163 336.66L120.256 336.398L119.77 336.316C119.657 336.316 119.598 336.316 119.605 336.278H119.77L120.271 336.323L122.178 336.518L129.232 337.311L152.854 340.108H152.756L155.965 338.896L161.89 336.652H161.957L183.754 336.712L190.194 336.772L191.922 336.809H192.371L192.528 336.922Z" fill="#455A64"/>
<path d="M169.295 105.73C169.253 107.033 168.825 108.295 168.067 109.356C167.308 110.417 166.251 111.229 165.031 111.689C163.811 112.15 162.482 112.239 161.211 111.944C159.941 111.65 158.786 110.985 157.893 110.035C157 109.084 156.408 107.89 156.194 106.604C155.979 105.318 156.15 103.996 156.686 102.807C157.222 101.618 158.098 100.615 159.204 99.9232C160.31 99.2318 161.596 98.8838 162.899 98.923C163.767 98.9482 164.621 99.1444 165.412 99.5004C166.204 99.8565 166.917 100.365 167.511 100.998C168.105 101.63 168.569 102.374 168.875 103.186C169.181 103.998 169.324 104.862 169.295 105.73Z" fill="#263238"/>
<path d="M164.239 148.817C165.389 145.355 163.516 141.616 160.055 140.466C156.593 139.315 152.854 141.188 151.704 144.649C150.553 148.111 152.426 151.85 155.887 153.001C159.349 154.152 163.088 152.278 164.239 148.817Z" fill="#263238"/>
<path d="M152.345 184.95C152.32 185.752 152.057 186.527 151.591 187.18C151.125 187.832 150.475 188.331 149.725 188.614C148.975 188.897 148.158 188.952 147.377 188.771C146.596 188.59 145.887 188.181 145.338 187.597C144.789 187.012 144.426 186.279 144.294 185.488C144.162 184.697 144.268 183.885 144.598 183.154C144.927 182.423 145.466 181.807 146.146 181.382C146.826 180.958 147.617 180.744 148.418 180.769C149.493 180.804 150.51 181.264 151.246 182.048C151.982 182.832 152.377 183.876 152.345 184.95Z" fill="#263238"/>
<path d="M155.509 105.879L153.549 108.041C153.549 108.041 151.575 126.509 151.694 129.157C151.814 131.805 152.854 142.12 152.854 142.12C155.244 143.12 157.811 143.628 160.401 143.616L164.463 143.541L166.991 113.374L155.509 105.879Z" fill="white"/>
<path d="M155.509 105.879L155.704 105.992L156.295 106.358L158.583 107.817L167.066 113.277L167.133 113.322V113.404C166.497 121.191 165.637 131.79 164.665 143.571V143.743H164.493L162.024 143.788C161.216 143.788 160.424 143.788 159.616 143.788C158.821 143.759 158.029 143.676 157.245 143.541C155.718 143.29 154.226 142.858 152.801 142.255L152.697 142.21V142.12C152.345 138.141 152.009 134.348 151.694 130.81C151.589 129.944 151.546 129.072 151.567 128.2C151.567 127.34 151.664 126.509 151.724 125.694C151.851 124.071 151.994 122.515 152.136 121.049C152.697 115.185 153.205 110.652 153.519 108.026L155.015 106.418L155.389 106.029C155.472 105.947 155.509 105.902 155.517 105.909L155.397 106.059L155.038 106.485L153.609 108.116V108.079C153.362 110.764 152.936 115.282 152.39 121.116C152.27 122.582 152.146 124.128 152.016 125.754C151.956 126.569 151.896 127.399 151.866 128.245C151.851 129.11 151.899 129.975 152.009 130.833C152.33 134.363 152.674 138.148 153.041 142.12L152.929 141.963C154.325 142.553 155.786 142.975 157.282 143.22C158.049 143.349 158.823 143.429 159.601 143.459C160.349 143.459 161.179 143.459 161.987 143.459L164.455 143.414L164.261 143.594C165.271 131.813 166.183 121.213 166.849 113.434L166.909 113.561L158.576 107.966L156.332 106.47L155.741 106.059C155.657 106.009 155.579 105.949 155.509 105.879Z" fill="#263238"/>
<path d="M151.567 146.541L153.811 150.153L164.096 148.007C164.096 148.007 164.784 158.965 163.116 162.286C161.448 165.607 156.347 173.678 154.784 177.643C153.093 181.914 152.248 183.971 152.248 183.971L144.297 182.624C144.723 178.201 145.598 173.833 146.907 169.587C148.957 163.341 151.567 146.541 151.567 146.541Z" fill="white"/>
<path d="M144.364 185.953C144.282 186.155 139.936 196.986 139.532 198.444C139.128 199.903 139.913 209.627 139.891 209.896C139.868 210.166 141.738 215.97 141.738 215.97C141.738 215.97 142.801 217.085 143.526 214.975L143.676 213.285L144.543 214.998C144.543 214.998 146.039 215.26 146.174 213.434C146.309 211.609 145.426 208.198 145.426 208.198L144.955 205.775L145.852 204.092L147.835 210.173C147.835 210.173 148.807 209.919 148.942 208.37C149.076 206.822 147.887 202.566 147.887 202.566L148.089 200.277C148.089 200.277 151.021 193.186 151.388 192.131C151.754 191.077 151.851 186.806 151.851 186.806L144.364 185.953Z" fill="#FFBF9D"/>
<path d="M150.385 188.384C150.385 188.384 150.842 188.713 150.931 189.625C150.943 190.891 150.582 192.132 149.892 193.193C149.481 193.95 148.978 194.654 148.396 195.288C147.67 195.906 147.083 196.67 146.675 197.532C146.017 199.447 146.271 201.795 145.718 204.167C145.606 204.646 145.451 205.114 145.254 205.565C145.079 206.02 144.826 206.44 144.506 206.807C144.185 207.175 143.753 207.428 143.275 207.528C142.797 207.628 142.3 207.569 141.858 207.361L141.753 207.316V207.196C141.817 205.606 141.965 204.021 142.195 202.446C142.299 201.032 142.307 199.768 142.322 198.706C142.337 197.644 142.322 196.889 142.322 196.26C142.295 195.969 142.295 195.676 142.322 195.385C142.386 195.672 142.419 195.966 142.419 196.26C142.419 196.829 142.501 197.659 142.524 198.706C142.546 199.753 142.569 201.017 142.486 202.446C142.404 203.875 142.075 205.438 142.105 207.159L142 207.001C142.369 207.174 142.785 207.22 143.182 207.132C143.58 207.044 143.938 206.827 144.199 206.515C144.495 206.179 144.731 205.795 144.895 205.378C145.08 204.949 145.225 204.503 145.329 204.047C145.875 201.758 145.621 199.417 146.331 197.375C146.761 196.466 147.384 195.662 148.156 195.019C148.732 194.409 149.235 193.734 149.652 193.006C150.339 191.994 150.73 190.81 150.782 189.588C150.763 189.158 150.625 188.741 150.385 188.384Z" fill="#FF9A6C"/>
<path d="M143.235 207.428C143.519 208.442 143.746 209.471 143.915 210.51C144.218 211.526 144.364 212.583 144.349 213.644C143.989 212.65 143.718 211.626 143.541 210.584C143.244 209.56 143.14 208.49 143.235 207.428Z" fill="#FF9A6C"/>
<path d="M158.636 143.564C158.566 143.156 158.526 142.743 158.516 142.329C158.464 141.462 158.404 140.332 158.322 138.956C158.179 136.114 158 132.179 157.835 127.833C157.761 125.754 157.686 123.772 157.618 121.961V122.036L154.223 115.798C153.841 115.05 153.527 114.466 153.273 113.995C153.153 113.783 153.053 113.56 152.973 113.329C153.127 113.518 153.262 113.721 153.377 113.935L154.41 115.693L157.933 121.864V121.902V121.924C158.007 123.734 158.09 125.716 158.172 127.796C158.337 132.142 158.471 136.076 158.546 138.926C158.546 140.302 158.598 141.439 158.613 142.3C158.659 142.719 158.667 143.142 158.636 143.564Z" fill="#263238"/>
<path d="M156.983 150.288C157.008 150.517 157.008 150.748 156.983 150.976C156.983 151.478 156.983 152.113 156.983 152.899C156.945 154.619 156.9 156.953 156.841 159.713V159.765L154.253 167.133C152.667 171.621 151.208 175.668 150.139 178.6L148.852 182.056C148.71 182.43 148.583 182.736 148.485 182.991C148.388 183.245 148.343 183.312 148.328 183.305C148.342 183.187 148.37 183.072 148.411 182.961L148.71 182.003C149.009 181.121 149.405 179.939 149.884 178.503C150.894 175.556 152.308 171.487 153.893 166.999C154.843 164.343 155.741 161.837 156.519 159.646V159.698C156.631 156.945 156.728 154.612 156.803 152.891C156.841 152.143 156.878 151.47 156.908 150.969C156.911 150.74 156.936 150.512 156.983 150.288Z" fill="#263238"/>
<path d="M195.909 81.158L176.924 85.8629C176.924 85.8629 177.799 103.321 178.031 103.665V103.246L198.497 93.9562L195.909 81.158Z" fill="#263238"/>
<path d="M195.228 91.256L194.906 90.508C198.646 88.84 201.204 86.6783 202.476 84.0678C203.935 81.0758 204.443 77.7846 204.81 74.9347C205.131 72.4079 204.833 69.8408 203.942 67.4547C203.433 66.2623 202.606 65.2334 201.55 64.4812C200.494 63.7289 199.251 63.2825 197.958 63.1911L198.003 62.3832C199.448 62.4877 200.837 62.9873 202.018 63.8276C203.198 64.6679 204.125 65.8165 204.698 67.148C205.648 69.6708 205.964 72.3884 205.618 75.0618C205.244 77.9716 204.72 81.345 203.209 84.4492C201.84 87.2019 199.155 89.4982 195.228 91.256Z" fill="#263238"/>
<path d="M201.032 101.848L199.088 100.412C206.8 89.9396 209.739 79.6097 208.064 68.7412C207.764 66.759 206.627 62.8096 205.543 61.1416C205.092 60.3772 204.462 59.7337 203.708 59.266C202.954 58.7983 202.097 58.5205 201.212 58.4562V56.0327C202.5 56.0959 203.754 56.4739 204.862 57.1338C205.97 57.7936 206.9 58.7151 207.57 59.8176C208.901 61.8596 210.121 66.1756 210.457 68.3822C212.237 79.9164 209.148 90.8596 201.032 101.848Z" fill="#263238"/>
<path d="M209.088 63.4454C209.088 63.5501 208.595 63.767 208.011 64.0961C207.592 64.328 207.263 64.5599 207.054 64.6422L206.942 64.6945V64.6272C206.889 64.4028 207.084 64.4252 207.054 64.4626C207.024 64.5 207.054 64.5449 207.054 64.5374H206.942C207.176 64.2254 207.478 63.9698 207.824 63.7894C208.46 63.393 209.066 63.3406 209.088 63.4454Z" fill="#455A64"/>
<path d="M207.727 60.2739C207.764 60.3786 207.346 60.6105 206.859 60.9097C206.373 61.2089 205.977 61.4707 205.895 61.3959C205.812 61.3211 206.126 60.9022 206.642 60.5805C207.159 60.2589 207.697 60.1766 207.727 60.2739Z" fill="#455A64"/>
<path d="M205.341 57.4988C205.408 57.5885 205.072 57.9625 204.735 58.4637C204.398 58.9649 204.174 59.4137 204.069 59.3763C203.965 59.3389 204.032 58.8003 204.413 58.2393C204.795 57.6783 205.281 57.4165 205.341 57.4988Z" fill="#455A64"/>
<path d="M210.188 67.6417C210.188 67.7539 209.702 67.7314 209.148 67.7987C208.595 67.8661 208.153 67.9708 208.101 67.8661C208.049 67.7613 208.482 67.4771 209.111 67.4098C209.739 67.3424 210.225 67.5444 210.188 67.6417Z" fill="#455A64"/>
<path d="M210.622 71.9801C210.622 72.0848 210.173 72.0848 209.672 72.1148C209.171 72.1447 208.744 72.197 208.707 72.1148C208.67 72.0325 209.081 71.7856 209.649 71.7557C210.218 71.7258 210.644 71.8754 210.622 71.9801Z" fill="#455A64"/>
<path d="M210.457 77.4105C210.39 77.5003 210.023 77.3133 209.537 77.246C209.051 77.1786 208.647 77.246 208.61 77.1412C208.572 77.0365 208.999 76.7747 209.597 76.8645C210.195 76.9543 210.532 77.3357 210.457 77.4105Z" fill="#455A64"/>
<path d="M209.911 83.0281C209.821 83.1029 209.462 82.7812 208.931 82.6017C208.4 82.4222 207.929 82.4446 207.899 82.3399C207.869 82.2352 208.408 82.0033 209.058 82.2352C209.709 82.4671 210.001 83.0281 209.911 83.0281Z" fill="#455A64"/>
<path d="M208.797 87.5161C208.714 87.5909 208.325 87.2767 207.809 86.9775C207.293 86.6783 206.837 86.4913 206.859 86.3866C206.882 86.2818 207.435 86.3043 208.011 86.6484C208.587 86.9924 208.879 87.4562 208.797 87.5161Z" fill="#455A64"/>
<path d="M206.575 93.0212C206.463 93.0212 206.381 92.4154 205.879 91.9067C205.378 91.3981 204.795 91.2635 204.802 91.1587C204.81 91.054 204.974 91.0615 205.244 91.1139C205.596 91.1953 205.917 91.3802 206.164 91.6449C206.415 91.9024 206.58 92.2318 206.635 92.5874C206.672 92.8567 206.62 93.0212 206.575 93.0212Z" fill="#455A64"/>
<path d="M203.867 97.8683C203.77 97.9207 203.448 97.4943 203.007 97.0156C202.566 96.5369 202.184 96.1629 202.259 96.0731C202.334 95.9834 202.843 96.2302 203.314 96.7538C203.785 97.2774 203.965 97.8235 203.867 97.8683Z" fill="#455A64"/>
<path d="M202.828 63.3556C202.371 58.4562 201.885 54.9406 198.676 51.2081C194.188 45.9721 178.301 41.5589 172.96 52.2329L177.665 85.5563C181.188 87.9424 185.145 88.3313 189.349 87.6357C193.552 86.9401 197.921 83.3048 199.821 79.0711C201.728 74.7177 203.269 68.1054 202.828 63.3556Z" fill="#263238"/>
<path d="M184.3 47.4307H183.552C179.931 47.4442 176.453 48.8496 173.84 51.3559C171.226 53.8622 169.677 57.2775 169.512 60.8947C169.043 66.3332 168.99 71.7995 169.355 77.246C170.237 87.172 179.236 87.7853 179.236 87.7853C185.766 87.7105 191.204 83.245 194.308 75.6602L194.704 74.6878L194.353 73.8576C193.565 72.1716 193.287 70.2923 193.553 68.4506C193.819 66.6088 194.617 64.8848 195.849 63.4903C196.477 55.1426 192.333 47.8272 184.3 47.4307Z" fill="#FFBF9D"/>
<path d="M202.072 69.5192C201.593 72.5112 199.604 74.6205 197.622 74.2989C195.639 73.9772 194.42 71.3069 194.899 68.3598C195.378 65.4126 197.375 63.2584 199.387 63.58C201.399 63.9017 202.558 66.572 202.072 69.5192Z" fill="white"/>
<path d="M198.018 74.3512C197.884 74.3623 197.748 74.3623 197.614 74.3512C197.095 74.2369 196.612 73.9942 196.211 73.6453C195.81 73.2964 195.503 72.8524 195.318 72.354C194.815 71.0944 194.664 69.7218 194.882 68.3832C195.099 67.0446 195.677 65.7902 196.552 64.7544C196.865 64.3185 197.294 63.9788 197.79 63.7732C198.286 63.5676 198.83 63.5044 199.359 63.5907C199.889 63.6769 200.385 63.9092 200.79 64.2614C201.195 64.6137 201.494 65.0719 201.653 65.5846C202.184 66.8373 202.338 68.2178 202.095 69.5565C201.907 70.8872 201.341 72.136 200.464 73.1544C200.162 73.5133 199.789 73.8051 199.367 74.0112C198.946 74.2173 198.487 74.3331 198.018 74.3512ZM198.968 63.58C198.511 63.6032 198.063 63.7209 197.654 63.9256C197.245 64.1303 196.882 64.4175 196.589 64.7693C195.718 65.7986 195.144 67.0456 194.928 68.3765C194.712 69.7075 194.862 71.0721 195.363 72.3241C195.52 72.8318 195.816 73.2855 196.217 73.6343C196.617 73.9831 197.108 74.2131 197.632 74.2986C198.157 74.3841 198.695 74.3216 199.186 74.1181C199.677 73.9147 200.101 73.5784 200.412 73.1469C201.303 72.1289 201.88 70.8738 202.072 69.5341C202.314 68.2034 202.163 66.8311 201.638 65.5846C201.456 65.096 201.156 64.6601 200.764 64.3156C200.373 63.9711 199.902 63.7287 199.394 63.6099C199.253 63.591 199.111 63.581 198.968 63.58Z" fill="#263238"/>
<path d="M174.209 50.5798L178.51 50.9837L178.914 52.9809L181.562 53.0631L182.976 51.1183H190.71C191.311 51.1291 191.898 51.2971 192.414 51.6055C192.93 51.9139 193.356 52.352 193.65 52.8761L197.756 61.7624L197.629 52.6143L192.498 48.4779L186.514 46.5406L178.121 47.2886L174.209 50.5798Z" fill="#263238"/>
<path d="M171.591 68.1054C171.591 68.4039 171.707 68.6905 171.916 68.9043C172.124 69.1181 172.407 69.2421 172.706 69.2499C172.852 69.26 172.999 69.2408 173.137 69.1933C173.276 69.1459 173.404 69.0712 173.513 68.9736C173.623 68.876 173.712 68.7576 173.775 68.6252C173.837 68.4928 173.873 68.3491 173.88 68.2027C173.88 67.908 173.767 67.6246 173.563 67.4114C173.36 67.1982 173.082 67.0717 172.788 67.0582C172.64 67.0449 172.491 67.0618 172.349 67.1078C172.208 67.1538 172.077 67.228 171.966 67.3259C171.854 67.4238 171.763 67.5433 171.698 67.6773C171.634 67.8113 171.598 67.9569 171.591 68.1054Z" fill="#263238"/>
<path d="M171.03 64.4626C171.172 64.6048 172.04 63.954 173.274 63.9465C174.508 63.939 175.413 64.5449 175.518 64.3953C175.623 64.2457 175.436 64.0587 175.039 63.7745C174.503 63.4079 173.864 63.2194 173.214 63.2359C172.573 63.237 171.949 63.4441 171.434 63.8268C171.082 64.1186 170.963 64.3953 171.03 64.4626Z" fill="#263238"/>
<path d="M182.041 68.4869C182.041 68.786 182.157 69.0735 182.365 69.2885C182.573 69.5035 182.856 69.6291 183.155 69.6388C183.302 69.6489 183.448 69.6297 183.587 69.5823C183.726 69.5348 183.854 69.4601 183.963 69.3626C184.072 69.265 184.161 69.1465 184.224 69.0141C184.287 68.8817 184.323 68.7381 184.33 68.5916C184.33 68.2925 184.214 68.005 184.006 67.79C183.798 67.575 183.514 67.4494 183.215 67.4397C183.069 67.4296 182.922 67.4488 182.783 67.4962C182.645 67.5437 182.517 67.6184 182.407 67.716C182.298 67.8135 182.209 67.932 182.146 68.0644C182.083 68.1968 182.047 68.3404 182.041 68.4869Z" fill="#263238"/>
<path d="M183.125 64.6197C183.275 64.7693 184.135 64.1186 185.369 64.1111C186.603 64.1036 187.516 64.7095 187.613 64.5599C187.71 64.4103 187.531 64.2233 187.135 63.939C186.597 63.573 185.96 63.3822 185.309 63.393C184.668 63.4009 184.045 63.6102 183.529 63.9914C183.185 64.2831 183.058 64.5599 183.125 64.6197Z" fill="#263238"/>
<path d="M178.772 74.1493C178.117 73.9543 177.442 73.8388 176.76 73.8052C176.446 73.8052 176.146 73.7229 176.094 73.506C176.062 73.1808 176.132 72.8537 176.296 72.571C176.58 71.823 176.887 71.0002 177.201 70.1624C178.458 66.7291 179.37 63.9166 179.228 63.8643C179.086 63.8119 178.024 66.572 176.73 69.9829C176.423 70.8281 176.139 71.636 175.862 72.4064C175.663 72.7857 175.61 73.2248 175.713 73.6406C175.756 73.7525 175.825 73.8523 175.915 73.9317C176.005 74.0111 176.112 74.0678 176.229 74.0969C176.405 74.142 176.586 74.1646 176.767 74.1642C177.433 74.2428 178.107 74.2378 178.772 74.1493Z" fill="#263238"/>
<path d="M182.691 60.7675C182.863 61.0817 184.053 60.7675 185.511 60.6927C186.97 60.6179 188.189 60.8573 188.331 60.5356C188.391 60.3786 188.144 60.0943 187.628 59.8475C186.949 59.5388 186.204 59.4002 185.459 59.4436C184.714 59.4655 183.986 59.6655 183.335 60.027C182.841 60.3187 182.617 60.588 182.691 60.7675Z" fill="#263238"/>
<path d="M175.877 60.7302C175.974 60.588 175.817 60.3038 175.376 60.0345C174.759 59.7029 174.064 59.5427 173.364 59.5708C172.669 59.5691 171.988 59.7607 171.397 60.1243C170.97 60.4085 170.828 60.6928 170.94 60.8723" fill="#263238"/>
<path d="M182.647 75.0319C182.46 75.0319 182.407 76.2735 181.3 77.1338C180.193 77.994 178.854 77.7995 178.839 77.979C178.824 78.1585 179.124 78.2333 179.692 78.2707C180.431 78.3058 181.159 78.0808 181.749 77.6349C182.313 77.204 182.689 76.5713 182.796 75.8696C182.864 75.346 182.729 75.0319 182.647 75.0319Z" fill="#263238"/>
<path d="M203.037 66.1157C202.97 66.1157 202.872 65.5697 202.476 64.7918C201.97 63.7807 201.118 62.9846 200.075 62.5478C199.505 62.3231 198.889 62.2384 198.28 62.3009C197.78 62.3639 197.299 62.5295 196.866 62.7871C196.483 63.064 196.125 63.3744 195.796 63.7147C195.759 63.7147 195.946 63.1237 196.716 62.5627C197.158 62.2398 197.671 62.0293 198.212 61.9494C198.885 61.8497 199.572 61.9323 200.202 62.1887C200.763 62.4174 201.273 62.7545 201.703 63.1807C202.133 63.6068 202.474 64.1136 202.708 64.6721C202.94 65.1171 203.053 65.6143 203.037 66.1157Z" fill="#455A64"/>
<path d="M189.334 46.5406C188.088 47.1437 186.877 47.8154 185.706 48.5527C184.608 49.3969 183.559 50.3035 182.564 51.2679C183.28 50.0391 184.281 49.0001 185.482 48.2385C186.608 47.3675 187.931 46.7847 189.334 46.5406Z" fill="#455A64"/>
<path d="M178.203 46.8472C178.295 47.559 178.338 48.2763 178.331 48.994C178.455 49.7013 178.532 50.4159 178.562 51.1333C178.154 50.5058 177.938 49.7725 177.942 49.0239C177.818 48.2883 177.909 47.5326 178.203 46.8472Z" fill="#455A64"/>
<path d="M201.504 74.1268C201.329 74.4893 201.073 74.8067 200.756 75.0543C200.02 75.726 199.101 76.1634 198.115 76.3109C197.616 76.3753 197.109 76.3383 196.624 76.2021C196.14 76.0658 195.688 75.8332 195.295 75.5181C194.704 75.0094 194.547 74.5307 194.607 74.5157C194.667 74.5008 194.884 74.8972 195.467 75.2637C196.232 75.7782 197.156 75.9987 198.07 75.8846C198.987 75.7436 199.852 75.3702 200.584 74.8C201.137 74.411 201.459 74.052 201.504 74.1268Z" fill="#455A64"/>
<path d="M172.736 52.8013C172.85 52.7901 172.965 52.7901 173.08 52.8013H174.06L177.8 52.8986L190.62 53.3399H190.74V53.482C191.271 56.0552 191.854 58.8527 192.46 61.7699C192.879 63.782 193.283 65.7418 193.665 67.6118V67.7165L193.59 67.7838L189.85 71.5687L189.895 71.4864C188.72 75.7575 187.733 79.3778 187.022 81.9584C186.663 83.2001 186.387 84.2024 186.177 84.9504C186.08 85.272 186.005 85.5264 185.938 85.6984C185.916 85.7893 185.884 85.8773 185.841 85.9602C185.845 85.8666 185.86 85.7738 185.885 85.6834C185.93 85.474 185.998 85.2122 186.065 84.8906C186.252 84.1426 186.506 83.1477 186.813 81.8986L189.551 71.3742V71.3293L193.253 67.5295L193.208 67.7015C192.819 65.824 192.408 63.8717 191.989 61.8596C191.391 58.9424 190.815 56.1374 190.291 53.5643L190.463 53.7139L177.755 53.108L174.06 52.9135L173.072 52.8387C172.959 52.8456 172.845 52.833 172.736 52.8013Z" fill="#FF9A6C"/>
<path d="M183.484 86.9625C183.432 86.9625 183.238 86.3716 182.654 85.5339C182.337 85.0474 181.942 84.6155 181.487 84.2548C180.874 83.9044 180.181 83.7188 179.475 83.7162C177.979 83.7162 176.543 84.2548 176.154 85.2122C175.912 85.6966 175.702 86.1964 175.526 86.7082C175.487 86.134 175.62 85.5614 175.907 85.0626C176.028 84.7869 176.195 84.5339 176.401 84.3146C176.66 84.0869 176.956 83.9048 177.276 83.776C177.979 83.4556 178.748 83.3044 179.52 83.3347C180.313 83.3279 181.092 83.5485 181.764 83.9705C182.252 84.3644 182.658 84.8497 182.961 85.3992C183.273 85.8638 183.454 86.4038 183.484 86.9625Z" fill="#FF9A6C"/>
<path d="M202.768 65.5248C202.648 64.7401 202.588 63.9474 202.588 63.1537C202.527 61.2586 202.292 59.3732 201.885 57.5212C201.468 55.6773 200.682 53.9369 199.574 52.4049C198.699 51.2455 197.958 50.7069 198.003 50.6546C198.048 50.6022 198.212 50.7443 198.542 50.9987C198.998 51.3647 199.414 51.7785 199.783 52.2329C200.991 53.7546 201.839 55.529 202.267 57.424C202.681 59.3027 202.882 61.2223 202.865 63.1462C202.903 63.9404 202.871 64.7364 202.768 65.5248Z" fill="#455A64"/>
<path d="M197.973 82.0107C197.813 82.2814 197.623 82.5325 197.405 82.7587C196.852 83.3943 196.258 83.9916 195.624 84.5465C193.511 86.3809 191.059 87.7836 188.406 88.6754C186.955 89.174 185.447 89.4906 183.918 89.6179C183.576 89.6635 183.231 89.6835 182.886 89.6777C182.549 89.6777 182.228 89.6777 181.914 89.6777C181.328 89.6538 180.743 89.5989 180.163 89.5132C179.686 89.4503 179.213 89.3528 178.749 89.2214C178.395 89.1383 178.047 89.0282 177.71 88.8923C177.414 88.8014 177.131 88.6758 176.865 88.5183C177.959 88.8384 179.074 89.0882 180.201 89.2663C180.717 89.3561 181.3 89.3411 181.914 89.386C182.228 89.386 182.549 89.386 182.878 89.386C183.216 89.3854 183.553 89.363 183.888 89.3187C185.392 89.1736 186.874 88.8496 188.301 88.3538C190.911 87.4778 193.339 86.1344 195.467 84.3894C197.068 82.9682 197.913 81.9584 197.973 82.0107Z" fill="#455A64"/>
<path d="M208.931 174.187L166.939 171.846L169.018 145.591L208.041 146.81L208.931 174.187Z" fill="#263238"/>
<g opacity="0.3">
<path opacity="0.3" d="M168.45 152.727L168.255 155.217L208.348 156.1L208.243 152.876C208.243 152.876 206.687 147.408 206.396 147.326C206.104 147.244 183.095 145.583 183.095 145.583L168.45 152.727Z" fill="black"/>
</g>
<path d="M200.202 152.592L209.5 152.884L214.676 115.723L213.434 95.8563L198.153 92.7521L180.058 101.504L177.381 94.5024L164.665 98.5416C164.665 98.5416 162.555 110.367 161.388 118.64C160.356 126.001 165.039 132.374 165.039 132.374L167.5 152.697L172.362 152.854C176.494 150.31 181.237 148.931 186.089 148.861C190.941 148.791 195.721 150.034 199.925 152.457L200.202 152.592Z" fill="white"/>
<path d="M200.202 152.592L198.093 151.515C196.04 150.561 193.88 149.858 191.66 149.42C185.924 148.307 179.981 149.095 174.733 151.664C174.191 151.914 173.665 152.194 173.154 152.502L172.758 152.734L172.556 152.846L172.459 152.899H172.377H172.302H171.367L167.522 152.786H167.395V152.667C166.647 146.586 165.817 139.741 164.912 132.344V132.418C163.365 130.143 162.238 127.61 161.583 124.938C161.072 122.842 160.95 120.669 161.224 118.528C161.336 117.817 161.456 117.099 161.568 116.381C162.51 110.622 163.483 104.63 164.485 98.4293V98.3171L164.597 98.2797L177.313 94.233L177.493 94.1807L177.56 94.3527C177.957 95.3924 178.383 96.5219 178.817 97.6514C179.286 98.8931 179.757 100.14 180.231 101.391L179.961 101.287L198.063 92.55H198.123H198.183L213.427 95.6468H213.569V95.7814C214.003 102.82 214.414 109.477 214.796 115.648V115.686C212.507 131.917 210.682 144.858 209.56 152.861V152.936H209.485L202.573 152.682L200.793 152.607C200.397 152.607 200.195 152.57 200.195 152.57H200.808L202.588 152.607L209.492 152.779L209.41 152.846C210.502 144.85 212.267 131.902 214.481 115.648C214.085 109.47 213.659 102.82 213.21 95.7814L213.359 95.9534L198.108 92.8642H198.227L180.133 101.608L179.939 101.706L179.864 101.504C179.4 100.277 178.929 99.0427 178.45 97.801C178.024 96.6715 177.59 95.557 177.194 94.5098L177.433 94.622L164.717 98.6612L164.852 98.5116L161.92 116.419C161.8 117.167 161.688 117.855 161.568 118.565C161.48 119.268 161.432 119.975 161.426 120.682C161.421 122.083 161.584 123.479 161.912 124.841C162.552 127.471 163.653 129.965 165.166 132.209V132.246C166.048 139.652 166.871 146.496 167.597 152.577L167.462 152.45L171.307 152.577H172.242H172.317H172.257L172.354 152.517L172.556 152.405L172.96 152.181C173.476 151.867 174.011 151.585 174.561 151.335C178.22 149.547 182.239 148.618 186.312 148.618C190.385 148.618 194.404 149.547 198.063 151.335C198.759 151.679 199.275 151.979 199.626 152.166C199.827 152.295 200.02 152.437 200.202 152.592Z" fill="#263238"/>
<path d="M202.97 133.713C202.688 133.883 202.387 134.019 202.072 134.116C201.232 134.423 200.366 134.651 199.484 134.797C196.553 135.317 193.535 135.035 190.751 133.982C187.966 132.928 185.518 131.143 183.664 128.813C183.098 128.112 182.597 127.361 182.168 126.569C181.996 126.285 181.861 125.981 181.764 125.664C182.408 126.7 183.109 127.699 183.866 128.656C185.735 130.893 188.15 132.612 190.876 133.645C193.602 134.679 196.549 134.993 199.432 134.558C200.626 134.341 201.807 134.059 202.97 133.713Z" fill="#263238"/>
<g opacity="0.3">
<path opacity="0.3" d="M203.703 133.608C201.219 134.279 198.672 134.685 196.103 134.82C193.515 134.949 190.951 134.263 188.773 132.86C187.097 131.685 184.906 130.302 184.038 128.97C182.542 126.636 179.931 128.798 176.461 131.012C171.651 134.079 170.125 133.563 168.3 133.473C167.926 134.827 168.936 136.271 170.237 136.802C171.583 137.247 173.036 137.247 174.381 136.802C175.712 136.354 177.078 136.018 178.465 135.799C180.395 135.62 182.302 136.203 184.187 136.667C189.423 137.954 194.824 137.019 200.202 136.458C201.372 136.449 202.509 136.075 203.456 135.388C204.309 134.573 204.623 134.318 203.703 133.608Z" fill="black"/>
</g>
<path d="M204.204 93.9862C204.097 94.168 203.969 94.3363 203.822 94.4874C203.538 94.8314 203.164 95.2877 202.678 95.8637L198.414 100.883L184.202 117.339L182.594 119.194L182.534 119.261H182.512L177.59 119.104H177.463L177.418 118.992C175.069 112.724 173.02 107.271 171.546 103.344L169.833 98.736L169.392 97.5018C169.341 97.3598 169.299 97.215 169.265 97.068C169.346 97.197 169.411 97.3351 169.459 97.4794C169.579 97.7836 169.744 98.1875 169.953 98.6911C170.379 99.7907 170.985 101.324 171.741 103.231C173.237 107.151 175.331 112.589 177.725 118.835L177.553 118.708L182.475 118.857L182.317 118.925L183.926 117.069L198.22 100.703L202.581 95.7664L203.785 94.435C203.915 94.2771 204.055 94.1272 204.204 93.9862Z" fill="#263238"/>
<path d="M171.89 150.505C171.935 150.602 171.359 150.954 170.551 151.088C169.744 151.223 169.055 151.088 169.055 150.976C169.055 150.864 169.699 150.834 170.454 150.7C171.21 150.565 171.853 150.408 171.89 150.505Z" fill="white"/>
<path d="M201.302 150.842C201.257 150.916 199.985 150.094 197.711 149.099C197.143 148.867 196.522 148.613 195.826 148.403C195.131 148.194 194.398 147.977 193.582 147.767C191.862 147.365 190.11 147.115 188.346 147.019C186.596 146.964 184.843 147.064 183.11 147.319C182.31 147.461 181.547 147.58 180.866 147.767C180.186 147.954 179.513 148.126 178.929 148.313C176.588 149.061 175.249 149.809 175.189 149.757C175.477 149.541 175.788 149.358 176.117 149.211C176.487 149.009 176.869 148.829 177.261 148.672C177.769 148.439 178.288 148.232 178.817 148.052C179.454 147.818 180.103 147.619 180.762 147.453C181.465 147.251 182.258 147.117 183.043 146.96C184.809 146.681 186.597 146.571 188.384 146.63C190.168 146.715 191.941 146.965 193.68 147.378C194.473 147.603 195.228 147.797 195.924 148.059C196.568 148.273 197.2 148.523 197.816 148.807C198.392 149.039 198.878 149.323 199.312 149.555C199.69 149.742 200.055 149.955 200.404 150.191C200.724 150.378 201.025 150.596 201.302 150.842Z" fill="white"/>
<path d="M207.772 151.305C207.096 151.617 206.361 151.777 205.618 151.777C204.883 151.898 204.131 151.862 203.411 151.672C204.12 151.477 204.853 151.381 205.588 151.388C206.309 151.266 207.043 151.239 207.772 151.305Z" fill="white"/>
<path d="M201.489 132.867C201.489 132.867 201.287 132.957 200.905 133.047C200.366 133.173 199.819 133.263 199.267 133.316C195.591 133.691 191.887 132.951 188.638 131.192C188.146 130.933 187.673 130.637 187.224 130.309C186.91 130.085 186.738 129.943 186.753 129.92C186.768 129.898 187.501 130.339 188.758 130.945C192.01 132.534 195.616 133.258 199.23 133.047C200.629 132.964 201.474 132.807 201.489 132.867Z" fill="white"/>
<path d="M223.032 105.58C223.202 100.104 219.377 95.5427 214.488 95.3908C209.599 95.2389 205.498 99.5542 205.328 105.029C205.158 110.505 208.983 115.066 213.872 115.218C218.761 115.37 222.862 111.055 223.032 105.58Z" fill="#263238"/>
<path d="M209.477 110.023L227.025 126.988C228.193 124.591 229.767 122.415 231.678 120.555C233.318 119.063 235.445 118.218 237.662 118.177C237.662 118.177 222.702 100.973 221.206 99.4766C218.595 96.8511 207.996 98.6837 209.432 110.023" fill="white"/>
<path d="M209.477 110.023C209.453 109.956 209.441 109.885 209.44 109.814L209.358 109.178C209.282 108.365 209.282 107.546 209.358 106.732C209.45 105.432 209.793 104.162 210.367 102.992C211.146 101.431 212.394 100.152 213.935 99.3345C214.825 98.8517 215.792 98.5277 216.793 98.377C217.884 98.1868 219.004 98.2586 220.062 98.5865C220.634 98.765 221.15 99.0898 221.558 99.529C221.961 99.9478 222.35 100.382 222.754 100.823C223.542 101.711 224.355 102.623 225.193 103.561L235.957 115.843L237.886 118.087L238.163 118.401H237.729C236.489 118.428 235.267 118.708 234.138 119.222C233.009 119.736 231.996 120.475 231.162 121.393C229.571 123.085 228.242 125.007 227.22 127.093L227.115 127.31L226.943 127.145L214.287 114.818L210.719 111.302L209.784 110.36C209.673 110.257 209.57 110.144 209.477 110.023C209.602 110.114 209.72 110.214 209.829 110.323L210.801 111.22L214.437 114.668L227.153 126.861L226.876 126.913C227.903 124.785 229.247 122.826 230.863 121.101C231.731 120.141 232.787 119.369 233.966 118.832C235.144 118.296 236.42 118.006 237.714 117.982L237.557 118.304L235.627 116.06L224.894 103.763L222.47 101.017C221.647 100.157 220.974 99.1475 219.942 98.8558C218.934 98.5397 217.865 98.4653 216.823 98.6388C215.855 98.7763 214.919 99.0799 214.055 99.5364C212.552 100.319 211.326 101.547 210.547 103.052C209.97 104.195 209.612 105.435 209.492 106.71C209.406 107.812 209.401 108.92 209.477 110.023Z" fill="#263238"/>
<path d="M239.426 123.004C239.742 119.37 237.052 116.168 233.418 115.852C229.784 115.536 226.582 118.226 226.266 121.86C225.95 125.494 228.64 128.696 232.274 129.012C235.908 129.328 239.11 126.638 239.426 123.004Z" fill="#263238"/>
<path d="M230.07 129.404C230.07 129.404 239.943 136.667 244.716 138.051C249.488 139.435 254.784 141.507 254.784 141.507L256.212 133.069L239.233 119.441C239.233 119.441 230.87 120.062 230.07 129.404Z" fill="white"/>
<path d="M230.07 129.404C230.062 129.319 230.062 129.234 230.07 129.15C230.07 128.948 230.122 128.693 230.16 128.402C230.16 128.23 230.204 128.035 230.227 127.826C230.249 127.616 230.332 127.399 230.384 127.153C230.436 126.906 230.511 126.651 230.586 126.405C230.661 126.158 230.795 125.851 230.908 125.552C231.494 124.104 232.423 122.821 233.615 121.812C235.205 120.48 237.145 119.636 239.203 119.381H239.263L239.315 119.418L256.212 132.942L256.317 133.024L256.407 133.099V133.211C255.906 136.129 255.419 138.963 254.963 141.641L254.926 141.866L254.709 141.783C250.969 140.347 247.483 139.15 244.282 138.178C242.797 137.629 241.363 136.95 239.996 136.151C238.717 135.403 237.565 134.707 236.518 134.042C234.446 132.703 232.83 131.566 231.738 130.773L230.489 129.853C230.212 129.636 230.062 129.509 230.07 129.509C230.232 129.586 230.385 129.681 230.526 129.793L231.813 130.668C232.927 131.416 234.558 132.531 236.652 133.84C237.699 134.483 238.851 135.194 240.138 135.897C241.495 136.674 242.917 137.335 244.387 137.871C247.588 138.814 251.118 140.003 254.858 141.432L254.604 141.574C255.053 138.904 255.532 136.061 256.025 133.144L256.1 133.331L255.995 133.241L239.136 119.575H239.24C237.242 119.816 235.353 120.62 233.795 121.894C232.609 122.873 231.68 124.126 231.087 125.544C230.967 125.836 230.84 126.113 230.75 126.382L230.534 127.13C230.474 127.369 230.399 127.586 230.354 127.788L230.264 128.342C230.212 128.656 230.167 128.903 230.13 129.09C230.121 129.196 230.101 129.302 230.07 129.404Z" fill="#263238"/>
<path d="M251.41 140.459C250.674 139.853 250.091 139.08 249.711 138.205C249.33 137.33 249.161 136.378 249.218 135.425C249.331 132.007 249.787 129.06 249.967 126.726C250.146 124.392 251.133 124.811 251.851 125.499C252.57 126.188 252.914 130.885 252.914 130.885L255.068 122.934L257.97 117.428C258.133 117.093 258.415 116.831 258.76 116.693C259.106 116.554 259.491 116.55 259.84 116.68C260.349 116.912 260.715 117.428 260.386 118.648C259.916 120.194 259.351 121.711 258.696 123.188L258.539 126.18L262.279 118.049C262.279 118.049 262.914 115.678 264.485 116.725C266.056 117.773 261.441 127.377 261.441 127.377C261.441 127.377 266.153 118.82 267.597 118.835C269.265 118.835 268.27 120.869 268.27 120.869L264.096 129.06C264.096 129.06 268.008 122.941 268.652 123.465C269.976 124.527 267.948 127.519 267.948 127.519L265.241 131.932C265.241 131.932 262.481 137.52 260.813 139.569C259.144 141.619 257.013 142.778 254.215 141.581L251.41 140.459Z" fill="#FFBF9D"/>
<path d="M256.25 138.148C256.107 137.756 255.987 137.357 255.891 136.951C255.588 136.01 255.094 135.141 254.44 134.401C254.073 133.967 253.617 133.653 253.273 133.196C252.967 132.817 252.777 132.357 252.727 131.872C252.685 131.655 252.688 131.432 252.735 131.215C252.783 130.999 252.874 130.795 253.003 130.616C252.962 131.021 252.962 131.43 253.003 131.835C253.082 132.253 253.27 132.643 253.55 132.964C253.864 133.338 254.298 133.712 254.731 134.139C255.423 134.921 255.911 135.861 256.153 136.876C256.289 137.286 256.322 137.723 256.25 138.148Z" fill="#FF9A6C"/>
<path d="M261.8 132.635C260.931 132.406 260.079 132.119 259.249 131.775C258.376 131.553 257.518 131.27 256.684 130.93C257.603 130.895 258.518 131.059 259.369 131.409C260.259 131.635 261.089 132.054 261.8 132.635Z" fill="#FF9A6C"/>
<path d="M228.23 117.69C228.003 117.547 227.797 117.373 227.616 117.174C227.242 116.823 226.704 116.306 226.053 115.678C224.744 114.392 222.949 112.596 220.989 110.599L220.376 109.971L220.301 109.896V109.799C221.258 104.69 222.201 100.718 222.425 100.786C222.425 100.786 222.201 101.773 221.894 103.404C221.587 105.034 221.146 107.375 220.682 109.866L220.63 109.702L221.243 110.323C223.203 112.32 224.983 114.145 226.225 115.484C226.853 116.149 227.362 116.695 227.721 117.077C227.917 117.258 228.088 117.465 228.23 117.69Z" fill="#263238"/>
<path d="M165.712 169.467L160.633 178.824L180.156 194.585L185.07 190.463L190.089 194.899L212.656 179.752L208.842 170.043L165.712 169.467Z" fill="#263238"/>
<path d="M208.572 161.62L168.3 160.072L162.922 170.544C162.922 170.544 169.654 176.251 173.723 180.268C177.377 183.977 180.835 187.875 184.083 191.944L186.82 192.042C186.82 192.042 189.85 187.554 198.452 180.074C202.596 176.478 207.159 173.396 212.043 170.896L208.572 161.62Z" fill="white"/>
<path d="M209.634 164.47C209.524 164.561 209.4 164.634 209.268 164.687L208.168 165.241L204.084 167.23L190.284 173.783H190.239H190.194L187.441 173.701L179.961 173.454H179.901H179.857L170.417 166.026L167.717 163.857L167.006 163.258C166.841 163.124 166.767 163.049 166.774 163.042C166.87 163.088 166.96 163.146 167.043 163.214L167.791 163.76L170.559 165.847L180.081 173.162L179.976 173.125L187.456 173.349L190.201 173.431H190.119L203.972 166.991L208.109 165.113L209.238 164.62C209.366 164.561 209.499 164.511 209.634 164.47Z" fill="#263238"/>
<path d="M173.768 181.614C174.644 180.138 175.632 178.73 176.722 177.403C177.707 175.994 178.8 174.664 179.991 173.424C179.112 174.899 178.124 176.306 177.037 177.635C176.047 179.041 174.954 180.371 173.768 181.614Z" fill="#263238"/>
<path d="M195.916 182.594C194.842 181.268 193.869 179.863 193.006 178.391C192.041 176.988 191.181 175.515 190.433 173.985C191.507 175.307 192.478 176.71 193.335 178.181C194.306 179.585 195.169 181.06 195.916 182.594Z" fill="#263238"/>
<path d="M192.288 182.011C192.371 182.101 190.478 183.806 188.72 186.379C186.963 188.952 186.028 191.316 185.908 191.271C186.006 190.719 186.185 190.185 186.439 189.685C186.977 188.448 187.633 187.266 188.399 186.155C189.165 185.048 190.034 184.016 190.994 183.073C191.368 182.654 191.804 182.295 192.288 182.011Z" fill="white"/>
<path d="M209.694 171.464C209.053 171.933 208.375 172.351 207.667 172.713C206.403 173.461 204.675 174.471 202.73 175.623C200.786 176.775 199.095 177.867 197.853 178.615C197.199 179.067 196.511 179.47 195.796 179.819C196.386 179.285 197.022 178.804 197.696 178.383C198.908 177.553 200.613 176.438 202.536 175.286C204.458 174.134 206.231 173.147 207.54 172.466C208.227 172.07 208.948 171.734 209.694 171.464Z" fill="white"/>
<path d="M205.431 164.321C205.476 164.418 202.259 166.056 198.25 167.978C194.241 169.901 190.949 171.382 190.905 171.285C190.86 171.187 194.069 169.549 198.078 167.627C202.087 165.705 205.378 164.223 205.431 164.321Z" fill="white"/>
<path d="M173.798 178.174C173.73 178.076 174.606 177.426 175.466 176.386C176.326 175.346 176.85 174.389 176.962 174.434C176.723 175.242 176.32 175.991 175.776 176.635C175.233 177.279 174.562 177.803 173.805 178.174H173.798Z" fill="white"/>
<path d="M188.249 196.096C188.249 196.096 190.493 230.504 192.498 244.282L194.27 248.77L197.816 248.456C198.319 247.673 198.99 247.012 199.781 246.522C200.572 246.032 201.462 245.725 202.387 245.623C203.312 245.522 204.248 245.628 205.126 245.934C206.005 246.24 206.804 246.739 207.465 247.393L207.675 247.595L212.709 247.154C212.709 247.154 217.122 215.581 218.214 205.461C218.593 201.893 218.788 198.307 218.797 194.719C218.964 187.524 217.461 180.389 214.407 173.873L188.249 196.096Z" fill="white"/>
<path d="M203.98 245.785C203.935 245.626 203.902 245.463 203.882 245.299C203.83 244.94 203.763 244.469 203.673 243.871C203.501 242.599 203.254 240.796 202.925 238.545C202.334 233.96 201.511 227.579 200.554 220.204V220.129L200.599 220.069L204.772 214.691V214.818C204.772 213.928 204.772 212.986 204.728 212.036C204.638 206.306 204.556 200.898 204.488 196.178V196.118V196.066L213.561 185.235L216.149 182.198C216.434 181.861 216.666 181.599 216.845 181.398C216.919 181.3 217.004 181.212 217.099 181.136C217.04 181.242 216.97 181.343 216.89 181.435C216.718 181.644 216.501 181.921 216.232 182.265L213.718 185.369L204.743 196.29L204.78 196.178C204.862 200.89 204.959 206.298 205.064 212.028C205.064 212.978 205.064 213.921 205.109 214.811V214.878L205.064 214.93L200.883 220.294V220.159C201.78 227.534 202.558 233.93 203.127 238.515C203.389 240.759 203.591 242.576 203.74 243.856C203.808 244.454 203.852 244.933 203.89 245.292C203.932 245.454 203.962 245.619 203.98 245.785Z" fill="#263238"/>
<path d="M212.006 315.783C212.019 316.654 211.774 317.509 211.301 318.24C210.829 318.972 210.15 319.547 209.351 319.893C208.552 320.239 207.669 320.34 206.812 320.184C205.956 320.029 205.164 319.623 204.538 319.017C203.912 318.412 203.48 317.635 203.295 316.784C203.11 315.934 203.182 315.047 203.501 314.237C203.819 313.427 204.371 312.729 205.086 312.232C205.801 311.735 206.647 311.461 207.518 311.445C208.097 311.434 208.674 311.538 209.213 311.75C209.753 311.962 210.246 312.279 210.662 312.682C211.079 313.085 211.413 313.567 211.643 314.099C211.874 314.631 211.997 315.203 212.006 315.783Z" fill="#263238"/>
<path d="M198.744 329.03L220.944 328.724C220.944 328.724 217.144 318.057 208.415 318.177C199.686 318.296 198.744 329.03 198.744 329.03Z" fill="white"/>
<path d="M194.293 255.113C194.233 257.11 194.211 265.585 196.343 281.959C198.325 297.195 201.257 314.25 201.257 314.25L212.903 314.609C212.903 314.609 217.174 279.453 216.726 267.866C216.209 254.687 213.083 251.807 213.083 251.807L207.809 252.398L207.533 252.824C207.086 253.521 206.482 254.103 205.769 254.524C205.057 254.945 204.255 255.192 203.429 255.247C202.603 255.301 201.776 255.161 201.014 254.838C200.253 254.515 199.577 254.017 199.043 253.385L194.33 253.916" fill="white"/>
<path d="M209.071 253.862C211.215 250.659 210.357 246.324 207.154 244.18C203.951 242.036 199.616 242.894 197.472 246.097C195.328 249.3 196.186 253.635 199.389 255.779C202.592 257.923 206.927 257.065 209.071 253.862Z" fill="#263238"/>
<path d="M208.243 314.467C208.227 314.248 208.227 314.028 208.243 313.808C208.243 313.345 208.243 312.724 208.198 311.931C208.198 310.263 208.146 307.914 208.108 305.027C208.071 299.163 208.019 291.129 207.959 282.25C207.959 279.258 207.959 276.379 207.959 273.648V273.596V273.551L213.576 264.463V264.568C212.993 260.693 212.514 257.499 212.178 255.24C212.02 254.155 211.901 253.295 211.811 252.667L211.729 251.994C211.72 251.917 211.72 251.839 211.729 251.762C211.76 251.833 211.78 251.909 211.789 251.986C211.789 252.158 211.871 252.383 211.916 252.652C212.028 253.273 212.178 254.148 212.365 255.218C212.739 257.462 213.262 260.656 213.898 264.515V264.575V264.62C212.267 267.305 210.39 270.387 208.34 273.746V273.648C208.34 276.371 208.34 279.266 208.378 282.243C208.378 291.129 208.378 299.163 208.415 305.027C208.415 307.914 208.415 310.263 208.378 311.931C208.378 312.724 208.378 313.345 208.378 313.808C208.354 314.032 208.309 314.252 208.243 314.467Z" fill="#263238"/>
<path d="M197.756 277.755C197.794 277.869 197.822 277.987 197.838 278.106C197.883 278.383 197.943 278.712 198.003 279.116C198.145 280.051 198.325 281.3 198.549 282.856C198.998 285.99 199.581 290.336 200.202 295.116C200.823 299.896 201.369 304.249 201.743 307.398C201.915 308.894 202.057 310.181 202.162 311.138C202.199 311.542 202.229 311.886 202.259 312.155C202.276 312.275 202.276 312.395 202.259 312.514C202.212 312.402 202.181 312.284 202.169 312.163C202.125 311.894 202.072 311.557 202.005 311.161C201.87 310.218 201.683 308.969 201.459 307.421C201.017 304.279 200.434 299.941 199.806 295.153C199.177 290.366 198.646 286.02 198.272 282.871C198.1 281.375 197.958 280.089 197.846 279.131C197.809 278.727 197.779 278.383 197.756 278.114C197.735 277.995 197.735 277.874 197.756 277.755Z" fill="white"/>
<path d="M209.575 320.144C208.364 320.342 207.176 320.66 206.029 321.094C204.931 321.645 203.889 322.301 202.917 323.054C203.688 322.043 204.704 321.246 205.869 320.736C207.034 320.227 208.309 320.023 209.575 320.144Z" fill="white"/>
<path d="M208.692 256.153C208.692 256.153 208.744 256.325 208.64 256.616C208.472 257.02 208.181 257.36 207.809 257.589C207.283 257.934 206.701 258.187 206.089 258.337C205.356 258.535 204.603 258.655 203.845 258.696C202.465 258.777 201.082 258.596 199.768 258.165C199.212 258.021 198.691 257.766 198.235 257.417C198.235 257.364 198.848 257.626 199.843 257.888C201.141 258.226 202.483 258.363 203.822 258.292C204.556 258.251 205.284 258.146 205.999 257.978C206.581 257.856 207.143 257.652 207.667 257.372C208.146 257.104 208.511 256.671 208.692 256.153Z" fill="white"/>
<path d="M214.519 210.188C214.624 210.188 214.122 217.174 213.404 225.761C212.686 234.348 212.006 241.32 211.908 241.305C211.811 241.29 212.297 234.326 213.023 225.731C213.748 217.137 214.407 210.188 214.519 210.188Z" fill="white"/>
<path d="M174.284 316.022C174.288 316.894 174.551 317.745 175.04 318.467C175.528 319.189 176.219 319.75 177.026 320.08C177.833 320.409 178.72 320.491 179.574 320.316C180.428 320.141 181.211 319.717 181.823 319.097C182.436 318.477 182.851 317.689 183.016 316.833C183.181 315.977 183.088 315.091 182.749 314.288C182.41 313.485 181.841 312.8 181.113 312.321C180.385 311.841 179.531 311.588 178.66 311.594C177.493 311.602 176.376 312.073 175.556 312.903C174.735 313.733 174.278 314.855 174.284 316.022Z" fill="#263238"/>
<path d="M187.793 329L165.592 329.143C165.592 329.143 169.183 318.401 177.904 318.341C186.626 318.281 187.793 329 187.793 329Z" fill="white"/>
<path d="M182.729 323.136C182.669 323.136 182.482 322.799 182.078 322.306C181.555 321.657 180.903 321.123 180.165 320.737C179.426 320.351 178.616 320.121 177.785 320.062C177.43 320.073 177.075 320.058 176.722 320.017C177.048 319.843 177.416 319.763 177.785 319.785C178.673 319.767 179.552 319.97 180.343 320.376C181.132 320.784 181.805 321.383 182.302 322.119C182.669 322.732 182.774 323.136 182.729 323.136Z" fill="white"/>
<path d="M161.261 175.87L181.764 195.228C181.764 195.228 182.684 226.547 182.624 234.199C182.564 242.045 181.712 249.652 181.712 249.652L164.814 250.221C164.814 250.221 156.968 230.384 156.332 220.66C155.696 210.936 154.769 201.96 155.03 194.547C155.218 187.843 157.386 181.344 161.261 175.87Z" fill="white"/>
<path d="M164.56 254.664C164.56 254.664 162.952 267.216 165.487 279.004C168.15 291.368 173.566 314.998 173.566 314.998L183.013 314.504C183.013 314.504 185.07 284.405 185.078 276.356C185.085 268.308 181.764 254.485 181.764 254.485L164.56 254.664Z" fill="white"/>
<path d="M180.597 253.318C180.494 254.695 179.985 256.01 179.133 257.097C178.282 258.185 177.128 258.995 175.816 259.426C174.504 259.857 173.094 259.889 171.764 259.519C170.434 259.148 169.244 258.391 168.344 257.344C167.444 256.296 166.875 255.005 166.709 253.634C166.544 252.264 166.788 250.874 167.412 249.643C168.036 248.411 169.011 247.392 170.215 246.715C171.418 246.037 172.795 245.732 174.172 245.838C176.015 245.979 177.727 246.846 178.932 248.249C180.136 249.651 180.735 251.474 180.597 253.318Z" fill="#263238"/>
<path d="M176.692 317.511C176.649 317.296 176.621 317.079 176.61 316.86C176.565 316.404 176.505 315.776 176.431 314.99C176.296 313.33 176.101 310.988 175.862 308.109C175.413 302.267 174.792 294.248 174.119 285.399C173.895 282.407 173.685 279.543 173.483 276.82V276.917L167.23 268.255V268.21V268.15C167.567 264.246 167.844 261.037 168.038 258.756L168.285 256.168C168.285 255.898 168.337 255.674 168.36 255.494C168.348 255.417 168.348 255.339 168.36 255.262C168.373 255.339 168.373 255.418 168.36 255.494C168.36 255.674 168.36 255.898 168.36 256.175C168.322 256.811 168.262 257.671 168.195 258.771C168.038 261.052 167.806 264.268 167.529 268.173V268.076L173.835 276.693V276.738V276.76C174.037 279.483 174.254 282.362 174.478 285.34C175.107 294.196 175.683 302.214 176.101 308.064C176.288 310.944 176.446 313.3 176.55 314.953C176.595 315.701 176.633 316.367 176.655 316.83C176.691 317.055 176.703 317.283 176.692 317.511Z" fill="#263238"/>
<path d="M172.406 252.226C172.39 252.059 172.39 251.891 172.406 251.725C172.406 251.365 172.406 250.887 172.444 250.281C172.444 248.987 172.541 247.162 172.616 244.895C172.803 240.273 173.057 233.832 173.364 226.435L173.416 226.569L168.809 221.565L168.756 221.513V221.445C168.756 220.884 168.681 220.286 168.637 219.68C168.248 213.532 167.889 207.765 167.567 202.843L167.612 202.955L158.793 193.829L156.332 191.249L155.696 190.561C155.618 190.486 155.548 190.403 155.487 190.314C155.576 190.375 155.659 190.445 155.734 190.523L156.407 191.181L158.928 193.687L167.829 202.708L167.874 202.753V202.813C168.203 207.735 168.622 213.502 168.996 219.65C169.04 220.256 169.078 220.855 169.115 221.408L169.063 221.296L173.663 226.307L173.715 226.367V226.442C173.371 233.84 173.065 240.273 172.848 244.895C172.728 247.139 172.631 248.987 172.564 250.281C172.526 250.879 172.489 251.358 172.466 251.717C172.459 251.888 172.439 252.058 172.406 252.226Z" fill="#263238"/>
<path d="M182.205 280.792C182.289 281.176 182.342 281.566 182.362 281.959C182.437 282.707 182.527 283.791 182.609 285.138C182.774 287.83 182.886 291.563 182.789 295.677C182.691 299.791 182.407 303.516 182.116 306.201C181.973 307.54 181.839 308.625 181.727 309.365C181.685 309.756 181.615 310.144 181.517 310.525C181.499 310.132 181.519 309.739 181.577 309.35C181.644 308.528 181.734 307.458 181.846 306.171C182.063 303.486 182.303 299.776 182.4 295.699C182.497 291.623 182.4 287.875 182.332 285.182C182.28 283.888 182.243 282.819 182.213 281.996C182.173 281.596 182.17 281.193 182.205 280.792Z" fill="white"/>
<path d="M178.548 258.853C178.35 259.3 178.041 259.689 177.65 259.982C176.761 260.773 175.656 261.281 174.477 261.441C173.298 261.601 172.098 261.405 171.03 260.88C170.574 260.702 170.171 260.408 169.863 260.027C169.863 259.982 170.342 260.304 171.142 260.626C172.179 261.056 173.311 261.203 174.423 261.052C175.535 260.901 176.587 260.457 177.47 259.765C178.159 259.242 178.495 258.808 178.548 258.853Z" fill="white"/>
<path d="M179.243 205.304C179.348 205.304 179.827 214.504 180.305 225.874C180.784 237.243 181.098 246.459 180.986 246.459C180.874 246.459 180.403 237.258 179.916 225.889C179.43 214.519 179.131 205.304 179.243 205.304Z" fill="white"/>
</svg>
