<svg width="100" height="100" viewBox="0 0 100 100" fill="none" xmlns="http://www.w3.org/2000/svg">
<circle cx="50.5204" cy="50.8724" r="30.1764" stroke="#BCBCBC" stroke-width="3"/>
<path d="M94.0689 51.1336C94.0689 75.091 60.3744 90 36.417 90C12.4596 90 13.0972 75.0909 13.0972 51.1336C13.0972 27.1762 15.6985 10 39.6559 10C63.6133 10 94.0689 27.1762 94.0689 51.1336Z" stroke="#BCBCBC"/>
<path d="M88.2389 60.5263C88.2389 84.4837 80.4554 88.3806 56.498 88.3806C32.5406 88.3806 5 74.1193 5 50.162C5 26.2046 41.6095 12.2672 65.5668 12.2672C89.5242 12.2672 88.2389 36.569 88.2389 60.5263Z" stroke="#959595"/>
<path d="M40.3166 50.8724C40.3166 52.9557 38.6278 54.6445 36.5445 54.6445C34.4613 54.6445 32.7725 52.9557 32.7725 50.8724C32.7725 48.7892 34.4613 47.1004 36.5445 47.1004C38.6278 47.1004 40.3166 48.7892 40.3166 50.8724Z" fill="#959595"/>
<path d="M54.2925 50.8724C54.2925 52.9557 52.6037 54.6445 50.5204 54.6445C48.4372 54.6445 46.7484 52.9557 46.7484 50.8724C46.7484 48.7892 48.4372 47.1004 50.5204 47.1004C52.6037 47.1004 54.2925 48.7892 54.2925 50.8724Z" fill="#959595"/>
<path d="M68.2684 50.8724C68.2684 52.9557 66.5795 54.6445 64.4963 54.6445C62.4131 54.6445 60.7242 52.9557 60.7242 50.8724C60.7242 48.7892 62.4131 47.1004 64.4963 47.1004C66.5795 47.1004 68.2684 48.7892 68.2684 50.8724Z" fill="#959595"/>
</svg>
