<svg width="100" height="100" viewBox="0 0 100 100" fill="none" xmlns="http://www.w3.org/2000/svg">
<circle cx="50.5204" cy="50.8724" r="30.1764" stroke="#BCBCBC" stroke-width="3"/>
<path d="M94.0689 51.1336C94.0689 75.091 60.3744 90 36.417 90C12.4596 90 13.0972 75.0909 13.0972 51.1336C13.0972 27.1762 15.6985 10 39.6559 10C63.6133 10 94.0689 27.1762 94.0689 51.1336Z" stroke="#BCBCBC"/>
<path d="M88.2389 60.5263C88.2389 84.4837 80.4554 88.3806 56.498 88.3806C32.5406 88.3806 5 74.1193 5 50.162C5 26.2046 41.6095 12.2672 65.5668 12.2672C89.5242 12.2672 88.2389 36.569 88.2389 60.5263Z" stroke="#959595"/>
<path d="M45.7638 44.5165C45.7638 46.5997 44.075 48.2885 41.9917 48.2885C39.9085 48.2885 38.2197 46.5997 38.2197 44.5165C38.2197 42.4332 39.9085 40.7444 41.9917 40.7444C44.075 40.7444 45.7638 42.4332 45.7638 44.5165Z" fill="#959595"/>
<path d="M62.8211 44.5165C62.8211 46.5997 61.1323 48.2885 59.0491 48.2885C56.9658 48.2885 55.277 46.5997 55.277 44.5165C55.277 42.4332 56.9658 40.7444 59.0491 40.7444C61.1323 40.7444 62.8211 42.4332 62.8211 44.5165Z" fill="#959595"/>
<path d="M40.1694 59.5503C43.3165 61.3673 46.8864 62.3239 50.5204 62.3239C54.1544 62.3239 57.7243 61.3673 60.8714 59.5503" stroke="#959595" stroke-width="2" stroke-linecap="round"/>
</svg>
